<mxfile host="Electron" agent="Mozilla/5.0 (X11; Linux x86_64) AppleWebKit/537.36 (KHTML, like Gecko) draw.io/27.0.5 Chrome/134.0.6998.205 Electron/35.3.0 Safari/537.36" version="27.0.5" pages="2">
  <diagram id="qHGvu_pJrcenIyCVozc1" name="graffana_Nginx">
    <mxGraphModel dx="396" dy="243" grid="1" gridSize="10" guides="1" tooltips="1" connect="1" arrows="1" fold="1" page="1" pageScale="1" pageWidth="1169" pageHeight="827" math="0" shadow="0">
      <root>
        <mxCell id="0" />
        <mxCell id="1" parent="0" />
        <mxCell id="lzWMTXst7IQfSHoqMK04-23" value="" style="rounded=1;whiteSpace=wrap;html=1;fillColor=#e1d5e7;strokeColor=#9673a6;" vertex="1" parent="1">
          <mxGeometry x="40" y="280" width="430" height="140" as="geometry" />
        </mxCell>
        <mxCell id="lzWMTXst7IQfSHoqMK04-24" style="edgeStyle=orthogonalEdgeStyle;curved=1;rounded=0;orthogonalLoop=1;jettySize=auto;html=1;exitX=0.25;exitY=0;exitDx=0;exitDy=0;entryX=0.5;entryY=1;entryDx=0;entryDy=0;" edge="1" parent="1" source="lzWMTXst7IQfSHoqMK04-26" target="lzWMTXst7IQfSHoqMK04-35">
          <mxGeometry relative="1" as="geometry" />
        </mxCell>
        <mxCell id="lzWMTXst7IQfSHoqMK04-25" style="edgeStyle=orthogonalEdgeStyle;curved=1;rounded=0;orthogonalLoop=1;jettySize=auto;html=1;exitX=0;exitY=0.5;exitDx=0;exitDy=0;entryX=1;entryY=0.5;entryDx=0;entryDy=0;" edge="1" parent="1" source="lzWMTXst7IQfSHoqMK04-26" target="lzWMTXst7IQfSHoqMK04-31">
          <mxGeometry relative="1" as="geometry">
            <mxPoint x="490" y="530" as="targetPoint" />
            <Array as="points">
              <mxPoint x="550" y="448" />
              <mxPoint x="550" y="389" />
            </Array>
          </mxGeometry>
        </mxCell>
        <mxCell id="lzWMTXst7IQfSHoqMK04-26" value="" style="shape=image;verticalLabelPosition=bottom;labelBackgroundColor=default;verticalAlign=top;aspect=fixed;imageAspect=0;image=data:image/png,iVBORw0KGgoAAAANSUhEUgAAAUwAAAB1CAYAAAAlbNiOAAAgAElEQVR4nO3dd3gU1foH8O/27KYXQ+gJJaFIFKlBUZr0wA1CqD9UVBSQ5kWqUkS4F2lKDxcVVIoaJYCEXrxCiIAKgXAJEFpCOklI3T6/P9YMu2TLbDI7CfB+nsfHLTPnnA2775w5VcQwDANCCCEOiWu6AIQQ8riggEkIIRxRwCSEEI4oYBJCCEcUMAkhhCMKmIQQwhEFTEII4YgCJiGEcEQBkxBCOKKASQghHFHAJIQQjihgEkIIRxQwCSGEIwqYhBDCkbSmC8AFo9VAf+8m9Bl3YMi4DX36Lehz0sFoysGoy8GUFoFRlwMARG5KiNy9TP9XKCENbABpgxBI6gVDWq8xpPWbQCRX1PAnIoQ8jkS1cj1MgwG62ynQJCVCm3QG2v/9CUan5SdtiQSy4DAowjtDHh4Becu2EMkogBJCHKs9AdNohObCaZT/ug/qcyfAaNSCZCtSuMGtQw8oX4mE4vkugJhaKQgh1tV4wNRn3UXZwe9R/ls8jIV5NVkUiH0CoOzaH6q+wyENalSjZSGE1D41FjD1d2+gJO4rlJ+KBwyGmiiCbSIxFO26wnP4JMiatKzp0hBCagnBA6Y+7QaKd6yB+txJgK+sJRKoXhkETfI5GLLT+UkTAEQiuHXoDs/RUyBt0JS/dAkhjyXBAiajKUfx9xtR+su3gEHPW7piDy/4zdsIsZcvciYPBIxG3tJmSaTwiBwLj+j3IFIo+U+fEPJYEKSHQ514FLlTBqF0z9e8BkuIxfCdtQay0HBoLp91TbAEAIMeJXFfIXfKIKgTj7omD0JIrefScZiMRo0H//kU5Sf2uCR99/6jIW/VDgBgzM9xSR7mDHlZKFg+Haoe/4DX2/MgUri5PE9CSO3hshqmPu0G8maOcFmwFLmp4PHaO+xzsaePS/Kxpux4HPJmjoA+7YZgeRJCap5LAmb5f/cjb9ZI6NNTXZE8AED5Yl+IvXzZ59LgMJflZY0+PRV5s0ai/Ld4QfMlhNQc3gNm6d5tKFwzx+UDz91e7GPxXB4aDpHSw6V5PorRqFH4xWyU7vtG0HwJITWDv4DJMCj6ZhWKtq3gb7iQLWIx5KHPWb4mkUIZ8SrnJCR+gfyUhWFQtHU5ir5Z5frPTQipUfwETIbBgw0LTL3gApD4B0GkdK/0urJnFKfzlV37Q96qPa9lKt3zNR5sWEBBk5AnGC8Bs2jbcpQd381HUpyIPb2tvi5v0RbSesF2z5UE1of3xE+guZTIe7nKju9G0bblvKdLCKkdqh0wS37egtJ93/JRFs7EHtYDJgAoe9ivZXq9ORNgGBgf5PNdLABA6b5vUbL7S5ekTQipWdUKmGXHd6N4xxq+ygIAkNZrDL+PN0HiX8fmMSKVp833VN0iba44JA97Hm4de4ApL6l2Oe0p3v4Fyo7HuTQPQojwqhwwdanJKNr8Ke9tdvqMO5CFtITfJ19BpLLe6y12tx0wxb7PQBEeYfU9VZ9oAHD99EaGQdHmxdClXnFtPoQQQVUpYDJlJShYOYO/RX0fYcjLhDSoEbzG/tPq+2LfZ+yer3wlsvI5Hl5wi+gNABAp3W0GY74wOi0KVs0AU+ba2iwhRDhVCpiF6+fzuyrQo/6eE67qEQVJUMNKb0sb2l85yK1Tz0q96Ip2r1hsTSFr1JyHgtpnyEpD4YYFLs+HECIMpwNm2dGfoE484oqysNgZPBIJVD2HVHrfUbATKdzg1qmXxWuK5yxv0+UtX6heITlSnzmMsmM/C5IXIcS1nAqYxqICFH+72lVlAWCaIy4JqMs+V3btb3mARApJvcYO01G+MtAsUVGlgKl4oWu1yumM4m9Xw1hUIFh+hBDXcCpgFn+7CsaSB64qCwBAHvYcIJGwzyXP1IO07sMAKQtpAZFU5jidFm0BiWkxJklgfYh9Aizfb9kWkmfq8VRq+4zFhSj+7nNB8iKEuA7ngKm9+hfKXLTykDl568ozcMxfU4R35pSOSK6ArLHp1l3WpJWVA8RQ9RletUJWQdnx3dCmXBAsP0II/zgHzKKtywWZ9qd44eVKr0kbhz58v303zmnJmrY2/T+khdX33fsOF25ZuL/nnBNCHl+cAqbm4hnorl9ydVkgrRdsNbhJ/26zlATWhzw0nHN6FbfctnrVRUp3uA8cU4WSVo3uWhI0l34XLD9CCL84BcySnza7uhwAKi/ZVkES2AAAoOodDYhEnNOrmC0kqdPA5jHuA/8PYh9/J0pZPSWxwvwtCSH8cxgwtVf/gjb5vBBlgfLlgVZfF3t4QezuCVXvYU6lVxEwpXYCpshNBc+h7zqVbnVoL5+ltkxCHlMOA6ZQC2vImofbXGlI7O4Fz5GT7U6JtHqe7zMQu3tC5Kaye5yq9zCrA+RdRejFSggh/LAbMI0lD6D541dBCqJ6xXrtEoBpAHtf53u0xT7+ENlZ2ehh+lK4DxCuLVNz/iSMJUWC5UcI4YfdgKk+fdBl88UtSyGGWxfr7ZcskfOzOMXuXpxXVld1GyTYnuOMTgt1wiFB8iKE8MfuNrvlv+4TpBDylu0g9vbjP2GRyGJIkt1DVR5Qdu2PsqM/8V8OK8p/3ed0mywhW7ZsgfHvtRYGDBiA+vXr13CJni42A6YhJwPaa0mCFMKZvXicJW/Rlns5XuonWMDUplyAITejSrONrl27huLiYpvvKxQK+Pv7o27dujaPIY+nSZMmQas13fUdOXKEAqbAbAZMTdIZwfanUbSrPFidL/Kw5zkfK2vRFiKFEoym3GXlYTEMNJd+h8rBCvHWTJgwAcePH3d4nI+PDyIiIjBs2DCMGTMGMpnjKaVEGEeOHEFhYSEAoG3btmjWrFkNl4hwYbNhUHv5rCAFkPgFQhLouqukJJB7DU4kk9ucFeQKWhcPYi8sLMSBAwcwbtw4tGzZEr//ToPma4uZM2ciOjoa0dHROHDgQE0Xh3BkvYbJMNBcPidIAWRO3DILQRocBu3VvwTJS8vD37hBgwaIiHi4EtP9+/eRnZ2NrKws3L9/n309NTUV3bt3x549e/Dqq65rAiHkSWY1YOrv3YKxIFeQAjgz1VEIkmeEa/cz5OdAf+8WpPVDqpxGREQEfvjhB6vvJSUlYcmSJez75eXlGDNmDC5duoTAQJ72ZSfkKWL1llx3+6pgBRBywDgXEgfbX/BNd8t1f+vw8HB8//33+PDDD9nXcnJysGXLFpflSciTzEYN87ZgBZA8sk5lTXM0K4hvhgzX/62XLFmC7du3IyMjAwAQGxuLuXPnujTP+/fv48qVK8jNzYVMJkOdOnXw3HPPQaFQOD6Zg5s3byIlJQVqtRpBQUF4/vnnoVTaHkebn5+P5ORk5OTkwM3NDWFhYdXqaCkpKUFSUhJyc3Oh1+sREBCAZ599Fv7+wq1L8KjS0lJcuHAB2dnZkMvlaNasGVq0qHqbvMFgQFJSEjIzM1FaWgpvb2+EhoYiONj6jLyawjAMrl27htzcXKjVanh5eaFRo0YICgriPS+rAVOIH3EFkVLYAOWI+b4/QhDi4iSTyfDqq69i27ZtAEzB5lGTJ0/GmTNnAADjxo3DxIkTAZh+hLt370Z8fDzu3LkDjUYDf39/LFu2DM8/X3kEwsGDB7F06VIkJCTAYDBYvOfh4YFBgwZh0aJFDoPVhQsX8Pbbb7PPz507B4ZhsH37dqxcuRIXL160ON7X1xcTJkzAwoULLUYDJCQk4NNPP8XRo0eh0+kszmnbti3WrFmDl156yW5ZzP33v//F0qVLcfLkSWg0Gov3xGIxOnfujLlz52LAgAGVzmUYBh06dABgGhpWYfny5ey/zaP279+POnVsbzkNABcvXsSSJUvwyy+/oLzccoRHWFgYli1bhsGDB3P6fABw+/ZtLF68GHFxccjPz6/0fpMmTTB16lS8++67di+A48ePx59//gnANLLjrbfecph3v379kJtrag7817/+Zbe9/a+//sLnn3+Offv2oaCg8o4GQUFB6NatGwYPHowhQ4ZALpc7zN8Rm22YQmHKywTLiwtBhhSZ0WcI87c2v9o+ePAAOp3OIrDcuHEDf/zxBwCgb9++YBgGX331FT7++GNkZmZWSm/KlCkWAVOn02HcuHH47rvvbJahpKQEO3bsQGxsLDZs2GD3B1RSUsKWBzD9iEePHs0G9UcVFBRg6dKlOH/+POLj41FaWooJEyZg586dYGwMj/vrr7/Qq1cvxMfHo0ePHjbLAgBarRbvvvsutm7davMYo9GIhIQEDBw4EBMmTMDatWshMds9AIDFZ6qQlpaGtLQ0m/naolarMWnSJGzatIkdzP6olJQUREVFYe3atZg0aZLNtCrExMRg6tSplS4G5m7evImpU6di586d2LNnj8328GvXrrGf19p3yJqkpCT2TshasK6waNEiLF68uNJF2VxWVhZ27dqFXbt2ISoqCj//XP29tawHzCwX7gj5CENhHmrT6EDjA9v/SK6gz7L+Q+HbgwcPtxbx8PCwOyYzLy8PgwcPxr593GZ6MQyDESNGWHwh69ati8jISAQHB0On0+HSpUvYv38/ysvLodVq8c4778BoNOKdd97hlEe7du3YWoRUKkWLFi0QGBiIzMxMXL16lQ2Khw8fxtSpU3H48GFcv36dPb9evXpo2rQpdDodLl++jJIS0/bHGo0Gb731FlJSUmzWQAwGAwYNGoRDhx5OZ+3WrRv69euHRo0awWg0IjU1FbGxsUhKMk322LhxI/z8/PDpp59apNWkSRMAQHp6OhsMAwIC4OXlZTVvqdT2ZLyxY8da1Kzq1q2Lpk2bwmAwIDk5GUVFpvUKGIbBBx98gJ49e9q9RV+2bBlmz57NPg8NDcXQoUPRokULuLm5IT09HUeOHMHBgwfBMAwSExMxZMgQnDx50m45+bZixQosXLiQfe7r64vIyEiEhIRALBYjKysLiYmJuHDhAvu9sHcBcEblT8kYwahLeUmcC2PhfccHCcgg0OiACkx5GcAYqzRX3hmnT59mH7dqZWXLDjMxMTHsY39/f0RFRaFVq1Zwd3dHYWEhUlNTLWoVGzdutAiWU6ZMwb///e9KbYppaWkYMWIEEhISwDAMpk6dihdffNFheQBTDdLb2xszZ87E22+/bZF/cnIyIiMjceuWqba+fv169r3+/ftjzpw5FrfdarUa06dPx6ZNmwCYaq979uzBsGHWp6ouWLCADZZ+fn7YuXMnevfuXem4jz76CIsWLcKiRYsAmG4pR48ejZYtWwIARCIRUlNTAZiaAy5cMC3zN3/+fEyePNnh38Da30QkEiE6OhrTpk1Dp06dIPp7vVitVovly5fjo48+Yp+vW7cO69ats5rWsWPHMG/ePACmpoWlS5dixowZlWrI06dPx6FDhzBkyBCUlZXh9OnT2Lx5M9uE42p5eXmYP38++/z999/H8uXL4ebmVunYjIwM/Oc//7H4PlRXpV8poy4XbIYPAOhuXhEsLy706cI1RwD4+wLl2maAuLg4XLr0cMX8QYMGOTzH19cXq1evZr9006dPx/jx4zFz5kzExMSwbXFqtdriaj927Fh88cUXVjtgGjZsiIMHDyIkxDSMqry8HAsWcNu3feDAgUhJScHcuXMr3QK2bt0aa9assXgtMDAQe/fuxf79+yu1Ubq5uWHdunVsbQ8wBQxr7t69i88++wwAIJFIsGfPHqvBEjAFxIULF2LgQNPKW0ajEWvXruX0+aoiNDQUCQkJ2LVrFzp37swGSwCQy+WYN2+exb/14cOHrabDMAymTZvG3t4uWrQIs2bNqhQsK/Tp0wdLlixhn3/+uXAb/B06dIhtpw0ICMDq1autBkvAdFexYMECpKSkYMwYflYjqxQwjeXC1S4BQPPnb4LmZ5fR6PLZN9Ywate14/72228YN24c+9zHxwcTJkywe0779u1x8eJFTJs2zWFD+Y8//sg20svlcixfbn/fIk9PT4vb1Li4OLbNyp69e/fa7fzo1auXxQ981apViIyMtHm8RCJBr14P966/csX6hXvdunVsZ9Ebb7zBqYNoypQp7GPz23i+rV+/Hp07298UMCrq4dTbGzduWL01PXz4MC5fvgwAaNasGWbNmuUw7/Hjx7MXxevXr7O1e1cz/66oVCpOTQG+vr4YOXIkL/lbqWEK2wljyMuCPj1V0Dxt0V5Pcvk2wtZU5yKl1WpRUFDA/peRkYHLly9j165diI6ORvfu3S3audavXw8/P/srQ/Xp0wcNG3IbH3v06FH2cY8ePTgNiI+KimJ/bHq9HidPnuSUlz1ubm4ICHg4RM3e4iQVzD+jtV5WAIiPj2cfjx07llNZzIPYzZs3baYtBPNaNMMwVsti/hlHjhzJac0BlUqF8PCHk06sdWa5gvliI2lpafj1V2HW661QOTwbbfc6uUrZ0Z/h9caHjg90sfLf4h0f5AoGfZVP3bNnj8MACJg6D1avXo1Ro0ZVOS9rzp59uOZAxW26I0qlEm3atGHPPXv2LC/l8vT0RHZ2NgD7vcvmx1ewVvPKz8+3qHneuHGDTd8RmUzG1kzz8vLg6+vL6Ty++fhY7opq7XOat28XFxfjxx9/5JS2+TCtirsMV+vQoQNEIhEYhgHDMOjXrx8mTpyIkSNHom3bthCLXdsXUClgCj1wGwDKDv8Aj6i3XLMmJkfGwvsoP1b9YQdVIVJ6uDT9iIgILF++HC+++CLvaWdlZbGPGzduzPm84OBgNmByHXLiiLu7O6/HZ2RkWAxJ4jKO0BrzEQpCM78o2HLv3j328eeff16lNsmKHnlXa968Od544w18/fXXAEzt4CtXrsTKlSvh5eWFdu3aoX379ujYsSNeffVVeHtz2HHBCVYCpnNfOltkwWEQ+9eB7volGIvs35IwGjVK922D55jpvORdFSV7t4HRchh6IBJDWq8xZE1aQp+Vxsv2w9W5SLm7u1u07alUKvj4+CAgIAAdO3ZE9+7dHbZzVRXDMBY/FA8P7oHf/IdcscxZdYmc2FGUy/F83UrbGgcqBC41LnvjHbmyNQ7UFTZt2gQ3NzfExMRY5FtUVIQTJ07gxIkTAEzNNJGRkVi8eDHCwsJ4ybtSwBTzNPOGUZfDb846QCSCIecetNeSoLtxCbrrl6G7eaVScCrd9y3cuvSFrElLXvJ3hu7ONZTFb6/8hkQKWcOmkIa0gKxJK8iatIQsOIwNcLkfDOElf7Gy6hep/v3721x8w9VEIhFkMhl7m/foTBp7zI/lYwaGKzzaS3zhwgVONbZH1fZFfqVSKduEsWHDBvTp42C7GCu4NAvxRS6XY8OGDZg9eza2bt2K2NhYJCcnVwraarUaP/74Iw4cOIB9+/ahW7du1c67chumRAqRXMGttmWHPusutP/7E/JW7SAJrA9lYH0oX+pnetNggO7ONeiuJ0GXegW61GTo0m6gcPVMBKz4QbC9dQCA0WlQ+PksMAY9pI2aQd6sDWTN20DWpCWkjUMhkln/MWtTLkJ/57rV95whkisAG8M3Hgc+Pj5su54zNTLzWk1Nte858ui8cE9PT4tOlCeFv78/yspMnb0SicQln9GZiylXjRo1wvz58zF//nwUFRXh/Pnz+OOPP3Dy5EmcOHGCHX5UUlKC0aNHIzU11eYQJK6s9slLAoKgz7hTrYQBoHTPVshbtbOSgcRUWzOrTTJaDfS3U2AoyIU0qFG18+bKkJcF73c+gqxJS6dujcsOfc9L/pKAx3sbiebNm7MBs2JoChfmxzZv3pz3cvGhYcOGkMvlbO0rMTHRJcGESweVKzVt2pSdmpmYmIjx48fzkq55k4er2zi9vLzQo0cP9OjRAx9++CEKCwsxefJkdqpuRkYGjh07ZnWOvzOsNnBI61V9fUZz6j9+he7ONccHwlTTkoWGCxosAUBatzHkrdo5FSwNuRm87fpYnbUwa4MuXbqwj48cOcKpvS4lJQW3bz9cdMQVnVF8UKlU6NSpE/t8x44dvKVt3gzB17S9qurevTv7eN++fZyGZHFh3qbNVzs1Vz4+PtiyZQtUqoe/a/OpslVlNWBK6vO0fBPDoPi71fykVYsUf7+Bt+2HJfVq11JZzho6dCj7+NatW9i7d6/Dc8xn5dStW9ep1YKEZj7gef/+/U5vJ5Gebn1dBvPeW/Ne6poQHR3Ndg7l5eVZzNziIjc312ot2XwTvnPnHO8ukJ6ejtJS+2OSk5OT7S64YU6hUFiMC3Z2FIU11muYdbkPD3FE8+cpqBOsT8l6HOluXOZ1+2EpXxenGtKhQweLGuL777+Pu3fv2jz+l19+sZirPmnSpFrb6QOYlrpr0KAB+3zEiBE4cuSIw/Oys7Px4Ycf2pxtZD5/fvfu3Q4DhSu1aNEC0dHR7PNVq1Zh6dKlDu8WNBoNYmJi0Lp1a6s97ebjcpOTk21eTLVaLTZu3Ig2bdo4HIIVExODLl26IDEx0e5xgGn2lvl3kes4YXusB8xG/LYpFX29DExZCa9p1giDAQ82fQLwOIRC1vDx3y0wJiaGnbmTnp6Ozp0745tvvmE7EgDTWMv58+fjtddeY2sI4eHhmDFjRo2UmSuFQoEdO3awQb2oqAh9+/bFsGHDsH//fuTk5AAw9cjeunUL27dvx8iRIxEcHIwVK1ZAr7c+KaFv377s48zMTAwePBinT59GdnY20tLScPz4ccyePdtiXyZXWrt2LTvHHwDmzZuHjh07YuvWrbh9+zb0ej0MBgMyMjJw6NAhTJkyBcHBwXjvvfdsDlofMmSIxZoCo0aNwuLFi3HmzBlcvXoVJ0+exMcff4zQ0FBMnDiR82372bNnERERga5du2Lz5s2VpmUWFBRgy5Yt6NOnD9tz3r17d6vrtzrLaqePrGkrXrebNeTnoHDjQvj+cwUv6dWU4u83QHfrf7ylJ3JTQdbU8Uo9tV3r1q2xbds2jBkzBlqtFpmZmXj99dcxfvx4BAYGQq/XIzs722LYR3BwMGJjY3lbgd2Vunbtil27duH1119HcXExjEYjYmNjERsbCwDszBNn9O7dG507d2ZrSseOHbO6AMikSZMEWcU9ICAABw4cwODBg5GSkgIAOH/+PN588032GGc/p7+/P+bMmcOuLlRaWsr2alsTGRmJ06dPcx4XeurUKZw6dQqAacxlYGAg8vPz2aX7KoSEhNhdx9QZVmuYIqkM8pYv8JJBBXXCIZQd2MlrmkLSXPodJT/zuxeOvNULgES4dQRdadiwYTh06BBCQ0PZ1zQaDdLS0pCZmWkRLAcMGIDTp0/X2t5xa6KionD+/HlERUVVGgxuLYjI5XJERkbik08+sZqeWCxGbGws2rdv75LyVkVYWBjOnTuHDz74wOokBGufs2PHjli1apXNcZhz587Fe++9ZzffOnXqYMuWLdi7d6/DYT9jxozB8OHDKx2nVqtx9+7dSsFy6NChSEhIQKNG/HQmixgbl4yS3V/x32EjkcJ/8VbIw57jN10XM2SlIW/OaIczlpzlNfYDuA9+0/GBj/jll1/YVVuaNGlisepOVR04cIAdWtK2bdsqt/fodDr8/PPP2Lt3L7vnjUwmQ1BQEF566SW89tprnDp5srKyLNq8uAx1+emnn9hb2C5duuDZZ5+1e3xKSgq7eIO3tzeGDx/uMA/AtGXxwYMHcerUKdy7dw/5+fmQSCTw9fVFq1at0KlTJwwaNIjT+FKj0Yi4uDgcPHgQqamp0Gq1CAgIQEhICF544QUMHTrUIjhs2bKFvfgMGDDA4aD4ilXuK4waNYrTjKyCggLEx8fjt99+w/Xr15Gfnw+NRgNfX1+EhISgffv2iIyMRNOmTR2mBZi29vjyyy/x+++/s3PrmzZtiqioKIwaNYqdEPDdd9+xTTk9e/a0mX5BQQHi4uJw9uxZJCcno7CwEKWlpfDx8UGDBg3QoUMHDBs2jLcZPhVsBkxdajLyZo7gNTMAkATWQ8CyXRB71c7Byo8yFt5H3twxMGTzvwp9wGffPxG35IQ8LWwGTDAMcib2hSHH8VqFTmeqcLM5g6a2YXRaMBo17+lK6jRA4Pp4wMn5z4SQmmO7AU0kgvLlSJTExtg8pKoYjdolQehxonx5IAVLQh4zdpcyUXaLpB+1iyhfrt4ULUKI8OwGTGndxpA1byNUWZ4a8rDnIX3MZ/gQ8jRyOKbFvc9wFF5L4jVT7wkLoWjTyfGBtYDm8lk82MBtoy6uVH2iHR9ECKl1HAZM5csDUfJjDPRZtqe7OUviEwBJnQaOD6wFJOk3+U2vTgMoX+rPa5qEEGE4Xo5ZLIb7oNcFKMrTwSPqrcd6/UtCnmacdgxS9vgHJH6OdwMk9kn860DZzfGe4ISQ2olTwBTJ5PCItr+XNXHMY/jEx2b8KSGkMs57Uqp6DXnspjTWJrJmz0LV4x81XQxCSDVw38RXJIb3uwuo/a0qxGJ4vzcfELl2z2RCiGs59QuWNm4O9778zy9/0rn3GwVZiPC7YRJC+GV7LrkNjKYceTNHQp+e6qoyPVGk9Roj4LPvIarGVrqEkNrB6XtEkUIJ3xkrIFJUb7vKp4FIpoDPP1dSsCTkCVGlRjVpw2bwemsO32V54niN/wiyYH7X4yOE1JwqL/et6jkEuqsXUHZ8N5/lAQCIlO5w78ttMdfqKj34A5hy/vcbUvWIol5xQp4wTrdhWjAaUbB8OtRnj/NYJNO4z6Cd51zfq8wwyBrZAYyO332hFe1eht+sNTSigJAnTPUiklgMn2nLeB+fyei0MORb34mOT4b8HN6DpTzsOfj+cyUFS0KeQNWuwokUbvCdsw5SnreL1fBcaxUiD2nDZvCdu546xAh5QvFyzyv29IH/4q8hax7OR3IAgLITcUA1WgscYhhTHjyRNQ+H/+KvIfbw5i1NQkjtwlsjodjTB/6LvoTiha68pKdLvYKyE3t4ScuasuO7oUu9wktaivDO8F+wGWJPH17SI4TUTrz2qogUbvCbvQbKboN5Sa9462cw5EIgav0AAAKQSURBVNzjJS1zhux0FG9bwUtayu6D4ffRRhprSchToHq95HaUn9yLB5sXV3uzM0lAEPwXfQVJUENeymXIy8T9j9+sdiAWyRTw/L9pcB8whpdyEUJqP5cFTADQ3bqKwlUzoM+4U610JH6B8J68BIrwztVKR5OUiAdr58GQn1OtdKT1GsPnnytpUDohTxmXBkwAYMpLUbRtBcqO/gwwxqonJBJB9epQeLz2DiQBdZ061ZCXiZLYzSg7+lP1OpJEYqh6DYHX6zPoFpyQp5DLA2YF3bUkPNj8KXS3/le9hCQSKCN6wy2iN+St29vsaDEWF0KbfB7qM4dRfuYwYDBUK1tZSEt4j/8IslD+RgIQQh4vggVMAIDRiNKDu1Dyw0YYiwurn55IDGndRhD7+EPs5WfKoigfxsL70GferV6N9m9iL194DHvPtKydmNazJORpJmzA/BujKUfZ0Z9QGvd1tdsTXUXs7QdVn+HwiBwLkcqjpotDCKkFaiRgVmB0GpQf243S+B3Q37tVU8WwIK0fAvf+o6DsGQWRTFHTxSGE1CI1GjDN6dNuoPzXfSg7Hgfjg3xB8xZ7eMEtojeUr0RC3qItIBIJmj8h5PFQawImy6CH5vJZaJN+h+byWehuXgGM1W+LtCAWQ9akFRRtOkLephMUz3YEJFVe6Y4Q8pSofQHzEUxZCTRXzkN/5zr0Gbehv3cbhoxbMJYWczpf7O4JSb0QSOsHQ1ovGNLGzaFo1Z7aJQkhTqv1AdMWpqwExtIiMOoyMOoyGMvLAABipQoiN9N/YncvCoyEEN48tgGTEEKERgMLCSGEIwqYhBDCEQVMQgjhiAImIYRwRAGTEEI4ooBJCCEcUcAkhBCOKGASQghH/w9dGkO9aylCTAAAAABJRU5ErkJggg==;" vertex="1" parent="1">
          <mxGeometry x="602.6899999999999" y="420" width="160.26" height="56.48" as="geometry" />
        </mxCell>
        <mxCell id="lzWMTXst7IQfSHoqMK04-27" style="edgeStyle=orthogonalEdgeStyle;curved=1;rounded=0;orthogonalLoop=1;jettySize=auto;html=1;exitX=0;exitY=0.5;exitDx=0;exitDy=0;entryX=0.25;entryY=0;entryDx=0;entryDy=0;" edge="1" parent="1" source="lzWMTXst7IQfSHoqMK04-29" target="lzWMTXst7IQfSHoqMK04-38">
          <mxGeometry relative="1" as="geometry" />
        </mxCell>
        <mxCell id="lzWMTXst7IQfSHoqMK04-28" value="&lt;div&gt;HTTP&lt;/div&gt;" style="edgeLabel;html=1;align=center;verticalAlign=middle;resizable=0;points=[];labelBackgroundColor=none;" vertex="1" connectable="0" parent="lzWMTXst7IQfSHoqMK04-27">
          <mxGeometry x="-0.0175" y="4" relative="1" as="geometry">
            <mxPoint as="offset" />
          </mxGeometry>
        </mxCell>
        <mxCell id="lzWMTXst7IQfSHoqMK04-29" value="" style="shape=image;verticalLabelPosition=bottom;labelBackgroundColor=default;verticalAlign=top;aspect=fixed;imageAspect=0;image=data:image/png,iVBORw0KGgoAAAANSUhEUgAAAOEAAADhCAYAAAA+s9J6AAAgAElEQVR4nO2de3wU1fn/P7Oz2c1uErKBBHLhLgHlHiHRqrFqwXpBrBf69dJoFRW+/PBSi6JWKq31greqtFSxfq2mVSviBcFS8VJFUW4BRLAQTDRACCTAhmwuu5nN/P6Ynd0zZ87M3lmSnPfrta/szpyZeWZynjnPec5zniPIsiyDw+GkDEuqBeBwejtcCTmcFMOVkMNJMVwJOZwUw5WQw0kxXAk5nBTDlZDDSTFcCTmcFMOVkMNJMVwJOZwUw5WQw0kxXAk5nBTDlZDDSTFcCTmcFMOVkMNJMVwJOZwUw5WQw0kxXAk5nBTDlZDDSTFcCTmcFMOVkMNJMVwJOZwUw5WQw0kx1lQL0N15uWo5ijL6IyM9AxY/cKjjCHIz+qK1oxXtfi/zmHSrHf0z+mm29bFn4pjXE9W1O7wdONRxBADQP70vACDLkQkA+O5oHU7KGQxHWjoaWpvQ1HoEg7MLo729oGxGHDrWhK/qt+KcYadjQtHomM7f2+FKGAe1TXVYvm0VtjTXwGFJQ3tXJxyWNE0Zo22JQj03fU5VHqPfiWbFt2vw0c2vJe38PRmBZ+COjXp3AyqW/QoHO9xwWu0AAFkI7RdkADKAwDZ1n9ClbJMFfRmVYFmZ8VumjofxOQSD/yx9flo+meqkqNdVt9NyAUBDhxv3T7oRs8qvY1+UYwjvE8bIzoPVqDr2fVABAaUCqx9AW5kFOaSAalm6DAKVPVhWpo5Vywd+ywJ0CqhRdlJJESoflFGG9hqBc5H3oV43uJ1Q3GAZGcizZeGLvZvh8bZG9Pw4IbgSxsjU5bMxzJGr/CAqM90i0YoQ/M5ojSAEPjL1nThvsCWl/3OqAhNKE5SFlElgfOgWk9xHb2eVA2AVRHxyaBve2/ZvcKKDK2EMLF1biYHOPFgFUaMwQcVQzUWi5SMrLK1AsqA17WilofeZlVVOGPoEz622dCDKsM5B7wN1PYYJq5Jny8Jfty2Du60ZnMjhShglXsmHz/duQp4tS9lAV+AAwRaJhjI11bJB85IoFzQVqXOR5mloY+AwCzQtmcakpBSPvJ6ZYgt0S0+YzaTCWyHiaKcHOU+OM7h5DguuhFGyYutqfHJom9IKAhpzU9PPos05ejvDRAz2+2hT0aClovt1LGQLoZgUdP9OZzJrCuvl1XwPfKyCiIFZw7G+pspYKI4GroRR4G5rRuX2d0KtIKDvdwXMUtUMlOnKCugruEyUo1sYss/GUnDVDKYVUz0X6UwhWjGN8rJeGgKYCk7KyVR+GSiwuzBz1W/w5Q9cESOBK2EU/P7jZ/Hflr2wQgxuY5lxqqeR9EKSfTOWg0NQhwAYyqwqRHA/Y6iC7I+y+qEac5L4yAwnT1BW+niytWc5h1S5BcAnS9hcu4VRgEPDxwmjQHh4DEpzivUtFKVUrHE4Q7PS6DyM/pvG80m3blCUgul8YZ2XoZwaZ5JMlTFy3pBlqb/VbQfx/pV/xo+GnAqOMbwljJDn176C4sxA2BerpQmgVmSmMhiYb0bOneA1ZKq1k6lWSO1T0qYj3XKSslPHaoY3Attp76fuOFV++m9g3zBHLua//7DJSTgAV8KIWLZpBe7Z8Be40jL0fT2iP6dpraiKH3SQIFSWVJKg6YnQMaS5qDE7ie+ykTJA2xc0VGBWGeJ48vokGvkFaO8xcJxVENHQ2Yy5y+5jPFWOClfCMHi8rdhY/zWKbC4ARH+PYQIGTTmGB1QTpQLtOTT7KejrkU4bzTkpBxH9sjAKYSNbNM24JnFPGlmJ4Qn6nOQ9qHJlWtNR52lAbVOdgQAcroRhONbegheqV8GRZmeakwKjBWJ5P5XC0CgJcx/tuSTPQbdaAuM4Si7DYQyGl5Q2cWVaVuLaTC8p1SoCytjhluYabPp+KzhsuBKGoWhxGYY5coNxlUEopSM9m7T5ptlHt0y0Egna8uQ5SJNSo1wydOaueg3NOCFxD+o2cj/ZUpNDK7oWTwbb1FWfC9GqyhZlyOLnH/8OH+5aC44eroQmrK+pgstZpB2YJ1sNoiKSUSUs0xMI9et0Ckwpns50pE0/ug8WOK9msJ82GwnPJSmfehw5JKGboUHIwfqtHk/eBz3joiSzEFOXz6YfMQdcCU2p3Pym0hdkmJOA1gkR3B/4q2l9gFDrQBGsrFTECmkKko6ZUAFGP5L0ctJmI+3RJVtgSumC/Tra+UOek2oJBUoef5dfc59WQURxZiGWrq3UP4ReDldCA17b8Bbe3b9OmarEGCMLxnuqjhkZ2haI5TChTEINDEeOrmVVL0/3CanzkIoTtkUzOF6zycDjqlF6ObRNFgDRIuo8qpnWdHy+dxO8kg+cEFwJGXi8rVi/bxuyRQe7AGEOkpVS5x0F9A4R2vvI8DKSFVpzTvUUBp5UWml1rSQpD+tFENivaxUpJ47uvAby0fdlFUR81bQT81c8xOcdEvCIGQZf/lCFi978fyh2DFA2UA4ZsvXT7WfBcOpI8MPnlxIlckKxiVZYIWpeMixz2PBFA+jul/y9sWUv9t+yCoWu/ESK3W3hSkjhbmtGztOlKHWN1rZ0tMKxzEqyDNm/o8LJJNmPoVmFGJyRD8mfvLwvsWAV01DTvBc1ngNwinbtvQS+68LjENoOUI4gQKukAXN105GdkO/bnbwb6UbwRE8U969ahOLMIVpTENB7DVlDDpTTRq2MdC6XRm8L7j3lYsyYPD2p9xIrav6co50eWGVR+7JhtYiB7YD++Wi+E8cNdBZifU0VThvO40p5n5Dgyx+qsKFxJzKt6coGakBaF5JGDgFQMCsjFK/huf0nYPrECxItfsIodOVj+bXPYYunPvjyYYXF0WYoHVWjO4ZQ1GzRgRc2vJp44bshXAkJNtdugVtqDY0LBtBNjDUYUDeEqJS17U04a9Bk2K22hMmdDFzObFQMPAvuzlZ9mg6EvpMBBMyIHvqYAE6rHf9u2IQn1ixJvPDdDN4nDFDvbkDR0otRmjUofOEwDhmjeE13ZytuG38V5p4zM2Y5jydeyYf5Kx7Ch/s3aLLKaYjUOWUAd9LwljDIPe8/gjGO/qENDHMqOIAe5qnRKQtVqjuO4OKxUxMg7fHBbrXhzMGTsN/n1u80CGDQhb2p22hTNcAYR3/Mfe+BBEncPeFKiEDain2fK95AFbJy0YPSgDZsjQE9l8/d2YoFE67pdm/8GZOn4/ph56NN8uq8nExUK4CVXCqwn3yJOa12bDy8Cy9XLU+MwN0QroQA5q14UGkFqaEFDcSgNJko1wjSTS/Bj5OzBuGGSTNO+L4gi6snXoodLXVa76/RGKEaOcQKkyOLEcfn2bKwfNuqXjvdqdcr4fqaKnx9dI/S52F5AE3Q5I0httEV0eeX0N/RF8NyBydO8OPIacNPxYqfPYMD3oBZSniKNY4ZIDS0w/KiklFCRKibVejd0516tRK625qx6IvnFVMLMHxrM5EZLSJROcmKuKPlO/z1qicSKfpxp3xoKUqyh0OS/aFnRA7P0OOCjHFCCYGgbllfpsDWe6c79Wol/PuGN7Hx8C5jzx+gcyQEMYgGoT/uzlYsPmN+YgROIS5nNirG/QyNvpbQxig9osGhH4MA9tKsQZi6vHt4jhNJr1bCW9c9hTxblj4NPQnx1g8bI0khyX40dnq6lUfUjOkTL0Bpv1EhyyEcBh5RwPh5F2cO6XXTnXqtEt70+jyMyRoMK0TdJFwAupkDEZupxPGNvhYs/fG93bYvSGO32vBWxfOKkwYwfjGRkM+OLs+IsOmN0516pRLWNtXhUPsR2EQidJasKIB2vl4MA9ES/BiZUYDJQyfGLe+JxuIz7lScNLRJTisZq29IBDKQyY3V561Od/r12wt7zXSnXqmEm77fii3NNbAKojbtoFohSA8f/aExeLvXtjehcsYfe0wrSPKLsisxMqNAMUsJxSJTHkYC6SUln7crLQP/qPsEx9pbwpyhZ9DrlHDngd34+Qf3Ij/dpQ3KFqgKQbSChrPYQewnfkuyH3lpmd1uYD5SXM5sPPyTu0LDOkSAuybONBKo56s+y2GOXBQtLku06CckvU4J/7bxDYzJCrROrL4KQ9kMc3aSU5WIMrXtTXhySvf3iJpx2vBTUZY7Gm6pVe8VBiLvL4J4fsRLUbT0ntWdel0At/DwGJS6igM/lD9m67trMAjbIo/vbkHa8aBOgC5xjYIVYnAc0Coo+WXUZE/0rBRAsRZorIIISfYH/wJAmmjD0mkPYkLR6CTeSWrpNS2hV/Lh8spZKHEN172tdflaTIYjdOs7UMe7rBkoHVyScPlPRFzObOyf8xlq25sgiCLSRBvSRBsEiwiLoP1Nf9R95Efdnp/eFzlpmUgTbci02NDoOZzqW00qvWZm/Yqtq7Hx8C4U2JV09qb9FqN9MrGLUaZN8uKc/JJeNVvcaXPglQsfRG5G34SdM9uWic4uCW1SB/Izcnukc4ukV5ij9e4GzH77Puxrb9SsLcjKEcNcXoyMDzWZQ7jp2F4cnfsxXM7shMnO6fn0CnN058FqbGmugWgh8qWwovoFvZMl6HKnvaDEcbIANPtaUTHwLK6AnKjpFS2h8PBIlOaMDrVqKmatG2ufwfQlSfZjrGs4llzxMDLtGQmQmNOb6PF9wqVrK5XsaYBegRjz44wSNAW3MRSx0deCC0f8mCsgJyZ6tDnqlXz4fO+mUPY0A9QhBsPZ4OQ2SgHbJC8uLToDV5ddHq+4nF5Kj1VCj7cV81c8hK+adjLHqUh0uURZT8VgJkWzvx0Vk66MU1pOb6bHKuGx9hY8s2clXGlaE1G33LVmZ5iTMqJp9rXV96ohCU7i6bFKWLTkJyjJLNTlQmEulkJOVwK0SWzJ/ZSSbmzZi/1zPku88JxeRY90zKyvqYLL3kcZEyTW6gOIYBmBMkPNJuwy4iHb/F7cPmIa+jiyEn8DnF5Fj2wJg4t7kspH5kOBPlSN7AeazbKXLaFcKdPGTOEeUU7c9LiWcNmmFXh3/zoUBFbYVSeP6pYyo81UUkFN+oaCrGRPu2jImZgyqjzxN0BQ726A0+ZAzpPj4HIWIS8tEwDQ2OmB23ssqdemKc4sRGOnB5mB3Kz72hrDHuOy94Hb70Nxel/k2Pug1deGHS11KM4sBABUe+pDha3pKE5XQt/auzrh8Xvh9vsAqQMAMNCZB4clLSiDw5KG28ZfhbpjB/DY9PsTfLfHlx41WO/xtuL+VY/p07YzxvZYMyeMZlPQ2zcercaOG97G6IKRCZOdZOeB3Vi75ys8v30ZRIsIf5c/rIc3JCzxPYaMAIbnFBjPh3yutGkfJvcOQMyuCLwoyVkXkuxXIpyg/59Ish8eqQPnF5TiycsWdstcriQ9qiVsbDmMZ/asDK0nYZIbhlz8kvzNgnTUHPC5seaK55KmgPXuBtz/4ZP45mgNXNYMQNZOBVIVwfCFYbB2oNE+U8VSIRWQVEijMgaKqGYssAqizhkGaLcHvzPuQ7SIaO/qxI+Hnd7tFRDooX3CIIwA7eBXQvmCuUJNBullQekLlvYbhcmDxidaUgDAh7vWomjJ2djnOagMrZi8PIxkZa2Bob6IVOUlh2g0aTzUsoFzkZ5leiyVlRhLt4w2JYcmR6ugLaO5H5M+OQSgvVMJkDhR13eMlh6lhHlZ/XD7iGlwd+oTBGlSs1MVxnSBF6LS+fwSxvYfCauYeANifU0Vpi6frcS4AsbOIQOC92eUhiOA6qAilYpe5k02CFZXdoJtYRgExEcE+WIwOyZw7Z4WINGjlDDTnoEbTvsfDHLk6mZu6960xD9bN6nXAKfVjge3vZrwBETra6owc9VvUOIarjePzdJEEPvIFBHB3ZEoAeU1BgLjqIzWD6AUljZtidpkaFXQctIWiZmHImCN7Gtr7FEBEj1KCQFgQtFonOIaBp9f0u9MgAuqJLMQRUvOhrutOf6TBdhYtwU+WVJyoLL6Z2HMM6Pfpi8Xop+o285q1dRzsszGMCZy8KtBGsng+cO0hLIAbPHUY/+cj4wLdUN6nBICQMWkK7Gj/VBog9nMiMD24MIudLQMUQZQHAZjsk7C/asWJUTW2qY63LphCbJtGfoWJlxLFq6VVGNhTWaEaJZ7o5WA5QAyac2Y8tBdAEYZZuA8fR1ZmbPZEwMkeqQSnjb8VKy59OnQKkIGaBwUdKtjEltqE6341l2Lbft3JkRel2gLVlC1P0YrDnMpMsq5oXG6sCo/DdUqaZRBNvCmkkuHM7yomv4da59BcDwps65lDJihp+eOxh8uvrvHBUj0SCUEgNEDijEyoyC0ihCDYL+H5Qo3qrRQWsO97U1YW/1l3HK2d3YgU7QHKzbtOFErtMaRwjLlAsqm9ueC+wmlYbWIpOIGFYTyppLPgo48YsEqo1FMoxZeNWsZuUt9fgl90jJ6nAICPVgJC135mF1ydXAVobCLvtC/GS528ne2LQO3bliCendDXHI+uvY5ZIsOw/6bpkIz+l6aFpxoidQXiSbLNcPcE4gyuv2B84dbHlwDw0EUvA/6GtR+2gpR/2eS7MeO9kM9yiNK0mOVEFBWETq3/wS0Sd6wCXzJcTHW2vQyqZiBijvG0R/3vP9IXDLOGHsRfLIU1iEBQN+aUXKrBBXHzOFBKiyI/ax+WTgoEznY+oKSjfUipJSWdgIJspK5YM2lT/cojyhJj1ZCu9WGswZNxn6f0jdkKqIA3TgZa0A8aB4S6y04RTsq930eV2s4tv9ItHd1GheQDeQg5A6umhvG3KS30+cDtCZpMPg9zBCOpg9r1vqq12MoLSh51HNJsh8l2cMxekCxuRDdmB6thABwS3kFHpx0E3MAH0CoosjayqZrcQIIVLkxjv54eM2zccno8TPW+zPwkLIifZgVGEQ5I2Wgzkc/A+a6EgbeTTKkLShThOY/s18ORTkbfS2oGPezHruuB9ALlBAALh47FdUdR9g7BW2rQpqbho4EorxNtGJD486Er5nA7IdRfcNwkTGAST+YLEc6fajFbVQvKblNJ1s4hwsQ3rSlXnpqGv1z+0/A9IkXmBzY/ekVSjgsdzDeOO8BZcjCpLWgB8dNg7oDLYa6BsOVK+6MySwdljsYr1z4oG44hdk6qF7SMIrFkpMJ3XoR12W9gHSeWjMYskcit/pCFLqUVvCsQZN7RJC2Gb1CCQFg8tCJKMkeHpyQG4RqCTTbyb80RCW1QoTDkoa3tq6KSbZJhWNDwymkTKxKG6mzhJbTaB/rnqltZIA7c90OI2hZWWVZXlRZGRfMs2XhlvIKkwv0DHqNEg7LHYzBmflKOBvlGGBFlmjGzAzc7mSldaVl4NZ1T8UkW6ErH8uvfQ5bDm8LrQfPkImWN+EQ1yRbYo3jhXTyhDMvaVlZ/UsDZ9IWTz3+fPHvohK/u9JrlBAA/jTjYexo+c6wEhvOrmd4UNXtQWRgTNZg3PT6vJhkczmzcfTX29HXmoEDAW8uy7uYVIj+MICgEulSg1D7Y7lG8HgGDR1uvHHeA/jRkJ45JEHTq5QQABafMR/VbQejPi7sTIuAk+ZQ+xHUNtXFJJvLmY2XZzyFp866ExuP7oRbag21jMeDcEoV6wuBVjzGWKeKOiQxeejEGC/W/ehRM+sjQV2889mvXw/mJGU6G+i3tVHlVE0qWekbbmmuwabvt8a8nNew3MEYljsYNUMnYvmWlfiudT+e2/kOBjrzkC06YjpnMgimDyE9q0ZOG9LMpYc9KIX0+SX0d/Tt8cuhkfSoHDOR8uGutbj7o8cAKKkS6LAwTWKoKM0tdYm0NZc+nbBEUF7Jh+e++juqD+xJyPniwSqmQfJ3Yl3j9mDaDWbqC5ZDJoJnufHoTsj37U6w1Cc2vVIJAeC6V29H1eHdcFrtmkoTsQtehaGokuzHFveuHluZlq6txLNbX4VTtIccV7E6i4hje9NS4yS9rk+o8uzPfq/MOSRCrFhRMzpPYARDBFaIGOgsxMtVyxMu94nArLWPKuao+nyMPLks6OcYOIck+1HdcQQXj52aFJlPZHqtErqc2agYeBba/F6tO50cuCaj/k2iZ3QIQLbowEf//Qwer0G4XDfEK/lweeUsjMkK9dd0CZVpM5Q1aK/+VYMiAgPzK6Yt6lV9QZVeq4QA8OhF96LZ367LRxPE4M0eHEM0ahFlxXHxyaFt+Nf2npOKYcXW1dh4eJc2p2uA4GRkcuaJJYJnBWVgfmRGAcb2T04ayROdXq2Eha58zJ9YEZxzqMEsZI1sHY3MUxnIs2Whcvs7cc85PBFwtzWjcvs7yLMFUkuQ9x0w4+n5gsGFd+g+I/W8tnjqsfza53plKwj0ciUElCGLn+ZP1o/HRRIVopYjyxLxp6JFGbLYebA6gRKnhk17v8baI9+GkvKS9x34rmv1WM8G0Chkm+TFZQWT4XJmJ1P8E5per4QAcHPZNWj2t7N3GoRVGSVPomcYFNhdmLp8NnYe6N6e0qlvXIti5wDlR7iII8JRo5mhQh0nC8CO9kP40yW9IzzNCK6EUBJD7Wur1240GrwHZWZRZXSeVllZTOVvG99ItNjHjaVrK1GcPYq90ySuVrMWJMOiaPa1YnHZnB49VzASuBIG2D/nM2xs2RvaYOYFZQUn02WJj8uagReqV2HZphWJE/g4sWzTCszfsES34nEQRlwtmQ3cqBWUZD9c1gyUDi5JitzdCa6EAfo4snD7iGnMWE1mXhTWbyPFFIAimwtf1G3uVkMWXsmHL+o2K2s9hnNUER/dsAVJoIzPL6Esb3SPzRsTDVwJA2TaMzBtzBTYGOtM6Gap054+2vnAMM+cVjue2bMy4Sn0k8lzX/0dy+s+hSPNznZUEc+FbvGMshKowxY7Wr7DHy6enzTZuxNcCQmmjCrH2fmn6lpD5oxyKrZUtyALo0VUU+h3B9xtzbjjsyeRn+7Sr7ZEoZvsS/WN6e0NHW58ddXrvdojSsKVkOLqiZdqU+gD7IS3dHQNHY7FaDGsgojizCF4fu0rCZU5Gdy/ahHGZA3WpNPQeYXJfiCdm4b1MhKUgfls0YFBfQuTJHn3gyshhWEKfVbsqMG0HTpyhKyINsGKbxu/S5i8yWB9TRU2NO5UImOI+9W9jMh9Ea5s1ehrwexxV/Z6jygJV0IGowcUK/loyHA2RsyjUQthlAYeUHKVLq/7FE+sWZIEyeOntqkOp79eEcrFo75UGGOjugTDYWiTlMU9e9ssiXBwJWRQ6MpHxbifmYez0eOGBt5DNSU9Gb5VYHfhri0vnpDhbKu+WYPizELNEt2skDSAcc8mY4aQe97inomCK6EBagp9SfYbhlzRzpngNgJ1Jjm9uGYiUugng1vXPQWXlRgTlPXjgIb9XnJ8kDGuuq+tng9JMOi1k3oj4eWq5bj/s8UosLt03lHdwpmMia26VXcR8rLKgrL2+n6fG26/L1m3EDEu0Qa334eSzEKIFlGzL5r7M9pf3XYQO2a+zfuCDLgShkF4eGRwHXkWZEWjZ+ir2/UHAeSMdLLvqQZIq30yqyBCkv3Bv2Q5wylYEcA6n6Gc4e4H+iEcMp9Mm+TFRUPOxG9/+qseubRZvHBzNAxrrnhRCWczqHzkGBlzGg+FZhHQgCJaBTH4UbEi9Jv8q26XBeI4hLZbBRGihb2dLB88nxA6H2S9GalZ+8LAM6rp8xLPRb2//T43SgvHcwU0gCthGKaMKldS6PvcwUrK9BICWkWlZ1SQbn6WI4c1Dmlko5CD4wwzkXQCRbImvRpqpqafjwjy3OSYIKWobqkVi8rmYMbk6RGeuPfBlTACyBT64RbtDEK3DnRkDYjtLAVkQTk/jMpqlhqjl00ziG0FiNbL6B5UGRgxojonVWBfteeHXpHKPh64EkaALoU+S7ECv1lewSB0CwZCKVkeVlphGK2w5lrqV+IloVvolPZsRhh4wJwbaPbyEIADPjeeL19gIDBHhTtmokB4eAxKc6jFKum3P8PUMxvCMB3kJh040H8Pm57RQDY6TyhTbuIYzXVY56TlhOJYGujIwyv/80ceIxoG3hJGweIz7gyFs9GtCes7DT3mZjT2RisdZeLRpibrOrrzEr91OXLoFpIuT/c/6TKM1l9d3JMrYHi4EkbBzWdV4IZTLlFW/SVMNVKpdAPbtNNE9UAyTFm6v6eWo2doyFSrQ6Lpc1LfNatOGfURyevTE3IJWdR9MiUroAy5nNt/Ai4c9xO2kBwNXAmjwG614eLic+GyZkCSKSdNQDFMWyeyBaOdOowWVKDLUNtZJiRzhV5SNkFbLliW7peSctJDDyZ/IQMeqQNnDZrMhyQihCthlJw2/FSU5Y3WrHOoa1VYzg66bxeJVzSgABqFYvUPWQrcRR1LnVsX8cNA09KzhlQY2yT4uUc0SrgSxsAfLp6vzDkkWxWjPhLZz2KZftR33WC5BexhAvJ4E88qvc5i8CvZyhl4S5kZyFl9VmJbbXsT1lzxIjiRw5UwBoIp9CVvqDVU3fgWhFogov+kWe3WBLXPqAkTY/QNmSv4kn9hUI46JiibRXuMpgWkFZlqydXj3VIrFp52c8JWo+otcCWMkUcvulfXGgb7iNTQgWZfBBiVpc8ZqVKzdxjLpuvrwuBaAWVUW8xBjlxMPems8EJxNHAljJFCVz4eL5mpDFmwhgSMtkWoiMFDjVoz1dFidC2qrPlFDMqpfdJw4WyCEqRdlNEfowt653oS8cAH6+Nk7rL7lAUzA0HRoE1JI+jxP6NWjd7H+g1oWizD60ZwTWZCK7PrB7ZtdFdDvm+HwYU5ZvCWME4qJl2pzMAnXPxMc9KsJQzTbwv7m3a4GF3XZPzS8PgIcEutWHzGndEfyAHQC9esTzSnDT8V+1pqkC2OgU20KkMXBPQ2m2iFT5KY+9Wcpz6/ZLjd6Dd9XXK70V8jGcntADTy6vb5JVR76nvl4p6JgpujCcDd1ox5Kx5EumhLtSjHnQ6/DzeXXcPTVsQBV0IOJ8XwPiGHk2K4EnI4KYYrIR96umQAABtlSURBVIeTYrgScjgphishh5NiuBJyOCmGKyGHk2K4EnI4KYYrIYeTYrgScjgphishh5NiuBJyOCmGKyGHk2K4EnI4KYYrIYeTYrgScjgphishh5NiuBJyOCmGKyGHk2J4trUeQL27AV7Jh7ysfnwlpG6IqRLWNtVh0/dbAQBSl4TLT50GuzU1GcWWbVoR/D6470Ce3StAbVMdbnp7Pj4+uhu3j5iG0wZOwNVll6darJTx2oa3YLVYIXVJKX8OX/5QhX2N+4K/Z0yezixnqIRzl92HOk8D/tuyFwDQ3tWJf+35FDMmXoKx/UdiWO7gBIvMZn1NFT7+4Sss2fYGHJY0AECmNR23n/5LXDX+krheCvXuBqyp+QKNhw/ie/e+8AfEwbj8kzGr/LqEnnPN7rVY/MVLONjhRmnWIHzWUIWXaz/AMa8nomutr6nCf9212Pjd5uA2p92JK8ZedNxfcnOX3Ye+ffrhyLHDwW3FBSPgkNMiWmbNK/nwwueVWLD5r8hLy0R7Vye+PVqL0kETcMnoKckUXYe7rRn3r1qEDY074ZZaAQCNnR64+uRgRN8hOt3RpTx8Ys0S3LXxaZS4Rimp3YlMzZLsh0fqQLXnB6y54sWkr75T21SH4UunYEzWSXCK9uBKQLIFaOhwY8n592NS4VgUuvJjOv+Hu9Zi6rt3oCSzMLGCM/D5Jexw78DWG1djQtHouM930+vz8O+GTcizZcEqiJoM2ydnD8GSKx42NU3JZ6sm8lXlHOkajAfOuz0hcobj5arl+GjPF6g6+K1GDkBZbHSQIxf3nj3HtK5t278Tv/v4GXxztAautNA9B+tr01eQf9+StHsgubxyFt4+sAklmYXK/4XggNeNkuzheOV//qhZRlxcuHDhQvVHbVMdpv1rPspyRikeGypVukWwIF20YWBGPh7d/DdcWPQjDMwpSNoNtfva8caOf6OvLVOz9JcAIMuajn/u/gB7G77H9LHnx3T+k5ZORWn2CFgEi/YDi35bNPsZ5dNEK3JsfVHftD9meUk++PY/OOJ1h/7RxP9q+7EfMMSWi3FFpxge/48Nb6LO3QCn1a6T84j3GP66/W3cefov45bTjHp3A85e9r8QpU7YrGkQqeeaLtrg65Lw3I53MMTa1/B+TnlhOoQuv/KiJrAIFqRbbMhxFKGz04fBfQqQlZ6ZlHvxSj48/unz2FD/NYrs2bAIep9nlpiOlq52nNLvJJzUb0hITrKQ3WqDS7RB7vKbXlDu8qPENRyVm99M0C2wuef9R5BnyzLcn2fLijnr9dK1lSjOHKJbG0Km1nZgEsGSZKzyTqsd/27YhOfXvhLlCaLDYUmD1WLuc7t13SJk2JzajQE5rRDhsKRh6drKJEmocM/7jwRbDLPFc4qdA3D3umeZ+3Ye2A0AoQV5aATAkWbHy1+/jXs+eAweb2u8YjO5d/Ui/OOb90yXq5MtgL/Lj/kfPqbZrlHCoiVno9g5IKKLWgURHxzYiCfWLIle4gip3Pc5RIvBw40Dj7cVn+/dhExrOnud9ggwfNhh8pkX2F34Yu/m5FSGqHKppxnvEgCbYMXOxj3xSsTEK/lw58oH8VXTzpApHWYFK4clDf/7zm90u/66+Z8osrmMDw2sMiVaRFQd/BZnv3hVQp+9ei8raz6DU7SbvkwEGUgTbdjirtFs17aZ1izjteoY21xpGVj67dtJU0RXktZ2+Nf2j/DJoW06mx1AxK1cuMU3zfjk0Da8t+3fkV0oHPQquglc1MBmNVHUGPFKPvz67YVYWfOZ0n8jViIGYLhqlU2wwt6lb92vL7kC+31u7UZywdPAS1WQFUsEAOa8uwD17oZ4bwVeyYeHPlqMD2rXwWXNML8HdZdfb2XqDVfWssvqCRhD+660DDz0dWXSTBehK7IVaSOl3t2Ayu3vmJq5APuakmxuphsdp+wIfc1Pd+Gv25bB3dYc9nxhoRcRTeCzSgY3v3UPPjiwUam0QPil38IwoWg03N7DEETihWryPKyCiG+aqhNimt67ehFWfvcfONLsES07Bxk44HNjzRXPaTaHj5ihllFmMTKzEPM3LNGM5SUM1qKVlFzRsPNgNbY01yh9iDDnECwiBIuomDQWEWmiLbiN/qhlLILynVRYup8pyMDRTg9ynhwX203QcnaTJX083lZUfv+pttWgMbgX2nNKUjH0QnT6fRHLoSpirKapV/LhkU+WYGXNZ0p/NtI1HQVgZEYBRg8o1sqjKxjhYpIkXbIfwxy52Fj/NaZLFyR3QJ9sqWOofFPfuBZl/UtNnU/psOLaMdNxUv9hun0Z6Rlo7TD+x6l9kGfXvYR97Y2wQmQ+QitEDMwajvU1Vb0i8KDe3YC57z2gDAdFsyhqANb6iSqPXnQvznmlQmvehsEqiJBkP+a8uwCPnn93xMNcqgn61u4PQ8MhEbbeB7xu3FV6o+5aCQlbE7qUm3r/hy8grV6Ep6YtSMRpARgs/xzjm3/p2kqMcY0xVUBJ9mOoa0jcA+uTB41Hzp/OQ2nWIHYBQfHuVm5+88RTwgS3rO62ZlQs+xWOdnrY/fA4KXTl47bxV2HB5r9iZGYhumR/REuGk6bpkksfjCjk797Vi/BB7TrFBI3iObk7WzFjxE9w4bif6PYlJoCbcMF/ULsO01+6EV4pcvPA9NRGy0tH2XdYtmkF5m9Yoh1Los4tWERsce/CK9c8E62YOlzObOy/ZRWq2w4alrEKIt7dvy6pHmYzWE4CAAntV7rbmpHz5Li4FdDMHAWAuefMxKKyOdjtqYfF7DoGfcRwpqnGC2o194LSSLIfN4y7DE9NW8BU9LBKKEdp9jmtdvy3ZS8e+mhxwhSRSRQyebyt+KJus+LKNjG1j3qP4fHSOxIiHgD0cWTh+mHno03yGpYpsLlw15YXE+KtixaNMyNJ3L9qEca4xhiP4yWQW8or8JvxFahvPxy+MIH6cjDymqom6H/qNmgicjQw6qMccJpdP/4y3Fl+k+H1wyqhEKGNTeJKy8BL376Hw54j0R0YDtodHyHH2lvwzJ6VQRe1EdUdR3BFybTYZGOQac/AmYMnhVzoBi+OksxCzH3vgdgucgI7ZdbXVGFD407luR8nr+28qXNw+5if44DXrd9p8qzMvKb3rl6E13etDo1pss5F3Z8sAM2+Vlw+6nzMPv0Xpn6SqM1RWQDaJG9Yd31+ugvTXr05fje8keJFUfmKFpdp+2aMYw943XjjvAcSHpg+Y/J0LCqbo7SGrIooKBXgk0Nfx/asklG5E6DYH+5ai/9d/QAkMOoJUZEl2Q93Z2IDF+ZNnYP7J92o7wqEeVakaepua9aYoDonTJhz+bsUE/Tec+eEdVRGrYSDMgbg6fPvw0BHnqkiqjbzdf/8FWqb6qK9DHGiKLdTrK+pwsCs4aatqCwApf1GYfLQibFIGJZbyiuww70DbZIXAhEBRH4vdg7A9JdnRvysOvw+iAbDJYAy9SxVrK+pwtTls2EVRNOACLfUiikDT8OSn/5WabkS2KrPKr8OvxlfYdonZ6HKe90/f4UF7z+mVcAIUIenwpmgmmtGI6Ak+zE4Ix9TRpVj8qDxOO9vv4Ak+0P2PtVSWQURNZ4DuOnt+Vh+7XOayPHjReXmN8MOzDf7WlE+cGBSp2fV/O/nWPXNGty6bpESmUQjdeCSgtOQE+EzemL6AuQ8OhBIp2XuxGWDzsUlE34av9AxsL6mCjNX/QalOcWm5dydrZg2/Gw8eMHdsFtt2PduCwod/cLGLUfDvKlzAAAPfV2JYkcgHDPC4Yt97Y3Yt68xagVs9rXihnGXhTVBNdeL+AoBJH8nAMX79/Ev/44r/jEbLVK7viDhMd3degBvbF4R0bywRPLahrfw7v51KLAbxxYCwNic4QkdVmExLHcw5p4zE3PPmZmQ87mc2cdtek6keCUfln/zfthybZIX04afrXvmiVRAlXlT56BPehbmb1gScVw0AHYLHsY/Qpqg0RDXEIXLmY3ZJVezO8EEBXYXZn35dDDi/Xjg8bZi/b5tyBYdpuU2tuzFny753XGSqpsQYz/z5S//iddqPgzrABuQ7sJvz7stqnObDdaHQ/WahqunYTGbIRGBF9QI49jRCJk+8QKU9huldcMzbPvJfQbh1pUPYNv+ndFdIMZ+wvIdq7G87lPdHDMSd2crFpfNiXlScI8lhmf+2oa38OzWV9lWBzFLorrtIH5+8oVRd03CjROGQ/WaRttHjAR3Z2ReUCPiHqy3W214q+J5jHQNDgUSMxRZkIFj/nZM/EcFPty1NuLzs4LGw+Fua8YdnzyhVAiDl4osAC5rBiYNK4n+Aj2dKF/ET6xZgjlrH1eiSIzOJyiVdVHZHMNoJMFiHM8bT0uoMm/qHCwqm4PqtoMJmxSgDsRH4gU1Ql/FY2x5Xrt6MS4cVq60iOqbj45IkYHSzEGYujzyflEswcn3r1pkOscMUOz38X1H4EdDTrCQseNNnCGBf/rPi3hmxxsodgww/V+5O1tx2/irwvsFkjyeqJqme1rjaxEl2Y90WDFr3IyYTFCShKU8tFttOHtoGV7ftRpOmAzOCkBx5hAsXVuZFEfNlz8QA8QmHektnnp8/Mu/R3TO9TVV+Kp+K6oP7IFV1M+xU51VieTkvJPCOnFuen0exg0crTPtWo65I3cAxTmV6NZ1i1DqGm1qcTT7FAWMSCbyf6YqdYIVc97UOUhPs+PZr1+PyvtJMzS7KCHJuxKad3TKqHLMO3RdWE9Uti0Dz259FTLkhGcgU2c4yIL5/84l2iLqlwgPDsbArOHIFh1x90sixeeX0BFmas51r96Ob9w1+Kpxh25fs78d/Zw5SU3555V8uPmte1DiGmX6oAUZyE/LxnkRJAWTu/yGYYWJfvZzz5mJrQ3fourIruhjWmWgtr0JX96yPCGyJDwD9y3lFXhw0k1hB/KdVjvu2fCXsMHL0druU0aVoyxvNNo7qXhNhqm0vqbK9FzqQH+B3QWn1R4cfDb9IIIyajlWWYho9rfj5rJrTGXrE3iDO0U7nFbtJ5IcM/HglXxY8P5j+KapOmz6kY1Hq/H4T+/D6IKRcV0zEX1CFa/kw90r/oDPjLIrhEMAhjlyMaNydkImZhsrYbi8HybMPWcmZo2bAXdnq16JiHMWOwfgoa8r8XKV8RtFMJLDRLY/XDxfn/KAkmOYIzdsoqoXNryKPFtW5C+CaOJsTWaC7GupiXx6Ex1gH8X/zHAWRRiufu1WvPP9p9oETdT/SZL9kGQ/1lzxXMT3IiQhnxCLm9+6Bx/uWx8yRWOo51ZBREPHEdy28ndxz9A3VsIYpguRzCq/DucXlMJPD8BS9v6IjAH46L+fGc64YGU/C5cRzeXMxvtX/llxRxs8YHUakVk2ADWTm6aimSEQ8kUKde6Nnr3Yf+uGKE6AmP9PhrMoTO5z7rL7dPk9gzIQcmQKdvzlgt9FlZvWbLA+EeaoV/LhuldvR9XBb7UteIzPTxaQkORRSV0QpmLSlUpmKVZrFrhxQQaqDu+OaupTJB7TcfmjlGlEfuNpRNmiA1/UGWc+6/D7tGZQvEmgmIVDf9skL24fMQ19HOZhdjRx5Zgxmq/JoLapDnWeBmTbzJ0ZbZIX43NHJnSycrzmqDod6Rt3DRxp0c0HNELtVvn8Eua8uyBm0zSpSnja8FOx5ornUN1+kB1NH8BptWPld//B1a/dmrBrq9OImv2MkDr1uqIdz+xZiWPt7PCvJ6YvwPDMArRJ3ohbN11umQiRBcWhcubgSVEv6hJXhYpQRo+3Fb/+10Oo8RwwvZ4k+7Gj5Tv84eL5cQiVeG5+4y6s/O4/StB7pDlhIsSRZse3R2piNk2TvjTalFHl+OKal5GTZp75WLSI2O2uw+WVszQtYjwVbMbk6bi06AxjJ5EAlGUPRdFT7GBjlzMbK274P1w79hLsaT2ILKvDMNGT+iGTQVkE5W8kWdr8XX5cWnSG4aIhxxXqmbvbmpH12Cn4vqXeNCRNkv3IScvE0Ts2piRYnwWd4zSW+bHhUOto1cFvcc2rt0atiHpDOwmDpaMLRuLnJ1+IJ7dUGo7LqE37xsO7sGLr6mBlZOaYiYKKSVfi3RXGQdxylx8D+04yTbh01bhpGJqRj6EDhpomeTLig12f4v0fvjCtwLXtTfjLpCujPndSCNSBdLsD7rZmTH95Jkr6TTD1JEqyH0OzCvGnS353QimgJi9oFKjrWJhmhiNQ62+N5wDmvLsAz057IOLncNzWJ5xVfh1m/+f+sP/MPFsWntvyGqZPvAB5aZnwd/njyk1y2vBTsa+tPrRwCkngrVhgd+G2NQ/hpemPMF3pw3IHxzXN6bPvzR0tB7xuLJv22AmV8MkmWrG1fgduXH43jkitYYOyt3jq8dnM15O2PmIsjpl7Vy+KaT5gs68Vp+eOxlmDJkc9+8KRZsc3TdX4/cfP4pEL5kcUynZcV+o9+uvtyEnLNDXPrIKIo50e5D/zY2Ra0xOSnevoHRthDeQD1UD8bvW1Ye2er+K+Fk29uwHfHNptWIkl2c/MRZlq1Dl14UxQQAlJqxj64xNmgVLNjPgoW0AAuGHcZXjlmmdwS3lFMNY0SLhctYGU+x/UrsOkv1wakbPxuCqhy5mNyhl/RE5apqnTwiqIKHYOSFh6PJczG9edcgkaOoynsjitdsz+8pmEJlzyeFvx8JpnsdtdZ/jPa/S1YHbJ1SfkTA7DmfEE7s5WnF9QihcufzSpskTqHVUDCYIKGGH3Sk3bcvmo8zWxoLppUFGYpoDSGoerU8d9zfpCVz6WX/scNh3be9wGZwHg5rMqcG7/Caat8BhHf9zz/iMJu+ax9hb8ufbfobUVSQL5Vc7tP4GZizJaYpkVEPMk2sALRZ0d/+RlC5O+gnOk5ujNb9yF93/4QjFBo3gmzb5WXDv2EtxZfpPuXkyTR5FQL1o1BegTn79g2iImbBZFNLic2agY+mMc9R5L/sUC2K02nDloEjxSh2EZp9WOyn2fJ2aNCABFTxWjLHuoYWXwSB04a9DkhJhxUTuvrOn6l2Ck5wjkUTk9fxyemrYgYQpo9lIO1xKqA/FfNe00nUPKQhYQdjrSvKlzsGDSTNMAENb/WVXEi1663lARj3tLqPLC5Y/i/ILShGfaMmNW+XWobt5lWqYksxDzVjwY97W27d+JgX0nGbc2AlDt+eG4p/wIwnoZRRGet8VTj0fPvzuhIsWKx9uKX7+9EF817YyqBVTzgv5i7PSIpiMFTVNfdEmpnFY7Dna4seD9x5iJvMLPrE9Sy2i32vDkZQsxbfjZpslxE82an/8DB7xuw5hW0SLi6yN7wgZ3m7G+pgo3r7gP+ekGs8yheETXXPFizNdIGDHEnR7wufF4ycyE92NjDVtTzf5opyVFmheUJDhDv/2gcXw1Y5vTasdrNR9i0/dbdft0d6Ybl0viJEu71Yanpi3A9JduVBZPScI6BTSTB41HSfZw/fWIMDrZAly54k7s88WWSGmgLUsZEmFlnQ44AEZmFGDyoPExnT+hGIS8GY3PHvC6sWDSzOPegpuZo0WLy1CaGxjeiXAwnpwRHy1hk0cZXL/A7sLPP7gXNUMnaoa8dEoodBmfJFk8c8lCDP+/y4wXT0kgLmc2bjvjBtz90WOGZQRZSU9foKbNpyea0jMXyN90eWh/y4KS6GjxtBNnUDsIISdLAd2drZg/sSJ1JrQRYpayPB09H5EmcE+yBbg+kJYwVm4pr8CxjhY8s+MNFNhdkQWVyEBxZiFWfbNGM8E57kRPiWBY7mA8XjIzqvGYeHKETBlVjqFZheHDyVg5c8htAqMMpYD0jA9/lx9FGf3jnl/HJN6ug8kzbZO8kc+Oj/XydI4Z4ruRObp0bSWKMwsVBTS6f+IF6ZbiS8pEQiaPMo1HJa7vsmbg1nVPaXZrlVDqYD+EOOYWRsq8qXOwpPyu0AKbYd5o8UbBv1XxPLa4dxl75NQWLZq5jPQUK4aciVr1yfD6ERN9So7jkhTLwDz2SB0YmKU3/eRg8wbj+xdC8xvjTcpEE0we1W6Ss4Z4QSvTx7TPXqOEi8+4U/H80AcHKley+2xXl12O3549F2mizbyVCsjlkTrCpoEw4/HSO5RhkkiVirq+hnBTgmSlNUnkqk9GtHd1hk2Dv/iM+Wj1tYV1zEiyHxtb9uLFix9KblIsb6PharuCRUR1xxHMPvt63b5Z5dehuuOI6f9EFoA00ZaQpEwsVK+p6fAFAAjKyl+Lz9DOMNEo4S9/dBXOLTxV561UXbnuzta4Kn0kXDJ6Cp6+4Dea8Dba9FQXEfnJ4DI8MT32zNlXlExDdccRSPDHNFVJg8nxsgBI8GNHS13CVn3ypwlo9LXolEgWgHP7T8Dlp5pf5+KxU7Gj5Tu0+YnFfQL3IMl+tEleZFkdSBNtWHPp00mPa91642qcVjheN2QlyX7lZeFtNB5P9exmZ3EI/G72tWJO6TWYVX5d0oIK5k2doyhi+0FIMrs+SbIfOfY+uHzixZrt4sKFCxeqP2xWGy4adS421VbhcKcHbp8HHV2dSBdtKLD3xYg+A/HS1X9Myk2QDHIVoKOtDV5fB7Yf+wF90jKCsnTJMuxiGq4eMw2PXngP0tPSY75OjjMbY+wF2HesAQfbjsBmtUMQLKYf0SKGLUN/pC4JaaINfyz/Nc4cUZaQZzTt5J+gny0LK2o+g0NMg2CxwC/7UdPWiJmjL8Vpw8yVJseZjQuLzsSAzH7we33YfuwH+GU/jkptGJU5EBeNPBcT+o3EC1c+iuG5QxIisxn5ffIwdUQ5/J52fHhgc1CW8waVonzwZLw54y+G/+uF596HoVmF+OeuD5AlBsoEGo2hGfkY7RqG305NvgVyxkml6Ou3Iz8rD5sPfYuOrk7YrTYIstIXPbX/KXhkyjwUU8uwC7Is6xpQNTnv0ZajAIB0pxMn5QxOjjPBBK/kw4qtq+HqkwP3sZAsDtGOwj4DEiLPzgO74XL0web6b+CIMtIiUtr9XuRm9EW2LTOhz9DjbcW/tn+Eyu3v4L3Gbbjr5MtQWjg+6jmJXsmHt6pWBpNDTaZc6Meb1za8FZTlzBFlEY1H1rsbsPNgNaa+ewdcog0jMwsxb9L1KbkXj7cVn3z3JRyiHVPfVZR/cdkc/KLsSqZHnKmEnO5FvbsBXsmHvKx+J8xMhlShRqTYrbYTIihelcfsRcCVkMNJMSmLHeVwOApcCTmcFMOVkMNJMVwJOZwUw5WQw0kxXAk5nBTDlZDDSTFcCTmcFMOVkMNJMVwJOZwUw5WQw0kxXAk5nBTDlZDDSTFcCTmcFMOVkMNJMVwJOZwUw5WQw0kxXAk5nBTDlZDDSTFcCTmcFMOVkMNJMVwJOZwUw5WQw0kx/x9kXb357wMQ2gAAAABJRU5ErkJggg==;" vertex="1" parent="1">
          <mxGeometry x="200" y="290" width="70" height="70" as="geometry" />
        </mxCell>
        <mxCell id="lzWMTXst7IQfSHoqMK04-30" value="" style="group" vertex="1" connectable="0" parent="1">
          <mxGeometry x="220" y="364" width="190" height="50" as="geometry" />
        </mxCell>
        <mxCell id="lzWMTXst7IQfSHoqMK04-31" value="" style="rounded=1;whiteSpace=wrap;html=1;fillColor=#fff2cc;strokeColor=#d6b656;" vertex="1" parent="lzWMTXst7IQfSHoqMK04-30">
          <mxGeometry width="190" height="50" as="geometry" />
        </mxCell>
        <mxCell id="lzWMTXst7IQfSHoqMK04-32" value="&lt;b&gt;Endpoint HTTP&lt;/b&gt;" style="text;html=1;strokeColor=none;fillColor=none;align=center;verticalAlign=middle;whiteSpace=wrap;rounded=0;" vertex="1" parent="lzWMTXst7IQfSHoqMK04-30">
          <mxGeometry x="23.75" width="133" height="25" as="geometry" />
        </mxCell>
        <mxCell id="lzWMTXst7IQfSHoqMK04-33" value="Http://192.1681.30:9113/metrics" style="text;html=1;strokeColor=none;fillColor=none;align=center;verticalAlign=middle;whiteSpace=wrap;rounded=0;fontStyle=2" vertex="1" parent="lzWMTXst7IQfSHoqMK04-30">
          <mxGeometry x="9.5" y="25" width="161.5" height="25" as="geometry" />
        </mxCell>
        <mxCell id="lzWMTXst7IQfSHoqMK04-34" style="edgeStyle=orthogonalEdgeStyle;rounded=0;orthogonalLoop=1;jettySize=auto;html=1;curved=1;entryX=0;entryY=0;entryDx=0;entryDy=0;" edge="1" parent="1" source="lzWMTXst7IQfSHoqMK04-35" target="lzWMTXst7IQfSHoqMK04-26">
          <mxGeometry relative="1" as="geometry">
            <Array as="points">
              <mxPoint x="670" y="270" />
              <mxPoint x="670" y="270" />
            </Array>
          </mxGeometry>
        </mxCell>
        <mxCell id="lzWMTXst7IQfSHoqMK04-35" value="" style="shape=image;verticalLabelPosition=bottom;labelBackgroundColor=default;verticalAlign=top;aspect=fixed;imageAspect=0;image=data:image/png,iVBORw0KGgoAAAANSUhEUgAAARgAAABlCAYAAACWRfwnAAAgAElEQVR4nO2deXhN1/rHv3uffabMhCTUkKBiJkIIveVyW6qGqhr660VLB0VvW7S0WkrRAaG3vdrSW6WmVlCqqHmIIYkhCaFEIiExZJLx5Ax77/X7Ixc5zjk5e++cEwnr8zzneZy193rXu4+T96z1rvd9F0MIIaBQKBQ3wD5oBSgUysMLNTAUCsVt1H4DQ0RAEB60FhQKxQ612sDw52NRMnUAiif0gHnnKkCkhoZCqUkwtdLJK/Aw/vw5zHvXAxXUVz3eCfrX54Ft2OwBKkehUO5Q6wwMMZai7N9TwCcesXud0eqhn7QQXHifataMQqHcT60yMMRQDMO8sRAy/qr8RlYF/RsLoH5iUPUoRqFQ7FJ7fDAWMwyLJjo3LgAgCihbPtPhLIdCoVQPtcbAGNcvgnDxlPQOAo+yb6ZBzL/lPqUoFEql1AoDwyfHwrx7rex+xFAM44+fuEEjCoUihZpvYIgI4+oFVrtFcuDPHIJw8bSLlaJQKFKo8QaGP7UfYmZKlWSYtv/XRdpQKBQ51PhdJMOSt8Cf3Fc1IQwDNqAR2MdaQNXocbBNWoJrFQ6mTmCl3UhRPoTUJAipZyFmpUIsygdMZWD86kE/eTEYnUfV9KJQHnJqpIERr6eBP30AfGIM+Isn3ZYKwAY2BtemO7iu/wDXtjvAqQFBgCV2FywHN4E/H1eeimAH3YvToBk4zi16USgPCzXGwBBDMSyHt8By+DdpW9EuhvHwBte5N4Qr5yFmpTq9n60bCK+lewAVVw3aUSi1kwduYMRb12A5sBHmfb+AGIofpCqy8Zi+HFyHJx60GhRKjUXZzy8RIWalQUg/DzH7GsSc6yC3s+8tJwQBjLcfmLqBYP0bgA1qClXzDmB8/e+JKMiBMfprWA5tqbVJinzyCWpgKJRKkGxgSEkBLHG7y7d9L8SDlJXIHoxt1ALqsN6AWgvzjpUgRoNsGTUJKUspCuVRRpKB4U/uheGbaYDFXKXBxMzLMGVerpKMmgQprV1LOgqlupEUByPm3aqycXkoUaketAYUSo1GWqCdYHGzGrUTVYOQB60ChVKjkeaDEe3HgjxoGJ+6UAW3AdvocbBBTcD6NwBTNxCMpy8YnQcYT5/yG81GEEMxSGkRxLwbELMzIWamQLh4GkLmZcVOZmIoKk9hYBgXPhWF8vAgycAw3n7u1kMaag24tt3BhfcB17orWKkzCI0OjEYHxq8+2MeaW10iZSUQUhIgXDgJy/E/IOZkSVbHcmIXoNFD/9pcgKXLJQrlfiTFwfDnjsPw2fjq0McuqhYdoek7AlyXf4Dx8HbfQIRA+OskzEe2go/bLXmnTN39Gegnfkl9MhTKfUgyMOLNDJRMfaY69LFC1bordMPfhiq0c7WPTcpKYN65GuadqyQFAGqe+j/oXv6oGjSjUGoP0iJ5RQHFb/Sotkhbtn4j6F75GFzHv1XLeJVBDMUw71wF846fnMbt6F6ZBc0/RlWTZhRKzUfaLhKrgio03M2qlKPp9xI8v9haI4wLUJ6jpB02GZ6fby1PiKwE4+oF4JNjq0kzCqXmI7keDNe2mzv1KD8NYPIi6MbMBKPVu3UsJbD1H4PHB/+FbtwnYPRe9m8SeJR9MxWkpKB6laNQaiiSDYy6e3+37ZQwXn7w+GgV1JED3CLfZTAMNH1HwHN+NNhGj9u9hRTlw7jmi2pWjEKpmUg2MEydQHDtIl2uAONTF54fr4KqWTuXy3YXbGATeM5Z53AZZzmyFXxSTDVrRaHUPGSVzNT0H+Pa0TU6eExd5nA2UJNhdJ7wmPofqCOetnvd+NM8emY25ZFHdj2Y0k9GQkg965LB9ZMWQ929+re/XYrAw/DV2+DPHLC5pH/jM6ifGPIAlLpHfn4+4uNP4tKlS7hx/QZKSkogCAL8/HxRp04dBAYGolNYGNq2bQOWrfElmim1DNkGRrh0CqULRiuu8n8Hda8XoB/3aZVk1Bh4MwxRE8AnH7dqZhs0g9dnvwNM9f7hlpaWYutvW3Hw4CGkpqZCyn+xt7c3IiIiMGLkcDz+eO2bUVJqJooq2hl/mg3LwV8VD8rWbwyPT39zX9FsQYCQngzhShJI9jWIhTmAoQTQ6svH1OrB+tQD+1gLsI1bgQ1oVGUjQEqLYJgzHGL2Vat2/b++Ade5b5VkS6WkpAQbN0Zjy+YtKCmRX68HABiGQUREBMa+PAatWrVysYY1i8TERBw6eAjJycnIz78Ns9m2YsC48a9gyJAHOwutzSgrmWk2onTeCIiZlxQNqp/8NbjOTynq6whiNoI/vg386T0QLp0CMUkvZsVo9VC17Qku/GlwHXuD8fBRpIN47SIM80eCmI1327jwp6Cf9LUieXK4ePEi5s75FDdu3HCJPIZhMHToUEx48w1w3MNVdzgzMwtffvElzp07V+l93t7eWL9hHTw86OkRSlFck9e8/VuYfvtKdj9Vq27wmLZKyZB2IYW5MO9dBcvhX0FKC6sukFOD69QX2gGvg23SRnZ3y8H1MK6ZU0GeBl5RMYqNlhQ2RW/C998vB8/zdq83btwYXbt2ReMmjeDvXw96nQ75t28jLy8PSYlJOH36tN1fbwAIDQ3Flwu/gLe3G3PAqpHU1FRMnTINRUVFTu8dM2Y0Xn7l5WrQ6uFF8U+TJf53gJVvm7SDJikd0hpCYInZCNOmheVlEwDXHCMnmsGf3gn+zC5w7XpBM3ASVCEdJHdX9xoJS/wfEFLi/yfPBD7pANTd3TPNjt4YjWXLvrVp5zgOTz31FEa9OBKNGzd22H/UqJEwmUw4cOAg1q9bj2vXrlldb9u27UNjXCwWC+Z8MteuceE4DvXr17/7Xq1W4/lhz1eneg8limYwYtYllH46UPZgqpCO8Ji+UXa/+yFFuSj74R0Il+KqLMspDAtN37HQDnkXUOskdRFvXSn/fPjyQl3qnsOhGz3f5art2vUnFn650MaJ26pVK3z08Uw0bNhQljwiEvy5eze+XfYtiouL0advH8z88EMw7MNR72bHjp1YtHCRVVtQUBD+9fZb6Nq1K1Q0G97lcAAgiqKsLUr+3AFFswV175fkd7oPMScDZd+Mh5hztZoOvhVh3r8SfPJB6MZ+CVVwR6c92MAQaHq9CPOB1QAAITXe5VpdvnwZUYujbIzLoMGD8NZbkxX5TRiWQf/+/dC1axds3boNY8aMfmiMCwAcjbEOftRqtfj8i8/QpEmTB6TRww8LAGfPnkVWVhZEiZXrhOT9YFgi68XqdOA62Q9Kk4p48zLKokaC5GXIHr+qL5KThrKvXgKftEeSrpr+E8BoteV989IBwb5/RAmEECxeFGXjc+nfvx/eeeftKjtl/f39MW7cKw+dczcr67rV+w4dOlDj4mY4AOB5Hjdv3oRGo7Fah9qDGEsgXE2UPXtQdegLRqvcG0/KimBc8SZIaZ7zsRkWbKPWYAObgw0IATgNwFtA8jMh5l2DmHkepExB6QnBBOOPb0E7ci7UkSMqV8G7HtTdhsBy7BcABKSsCIxXXflj2uHIkSO4ePGiVVtoq1BMnTYVzENYvrO0tBT5+fnQ6/Xw8/NTbPhKS0ut3gcEVP5dl4ogCCgoKIDBYICPjw98fX1dItceJSUluH37NrRaLXx9faHVal0qnxCC27dvo7S0FF5eXvDz9avSLPbu/5RGo4GXl4Ms4QqImecB8LINDNemCuUXCIFpzTSIeVcqHZf1bwz138eD6/A0GJ8AxzeKAoSrSRCSdsMSGw1SeluGMjxMv84EGAbq7sMrvVPdazQsJzaUP4KxxGUGZtOmzVbvGYbBO++8/cB8CCuWr8DBg4fuvv/q30uh0+lwYP8BJCYl4cb1GyguLoZwX+rEnLmfoEWLFjbycnNzcejQYRw7egznz5+HyWSyut6sWQi6dOmCfv37ISSkvGzq5s2bsSn63ufy8stj8dTTlYdCHDhwEKdPn7F7LSgoCIujFtm9BgAJCYk4GhODEydicf36daulqlarRadOnRAZ2R1P93saOl257+7NCROtHMxr162xkimKIkb/8146TmhoKGbN/hjp6enY+ts2xMXF4saNm3evMwyDFi2aIzIyEs8NfQ5+fspK26akpODQocM4fuw4rl69avX/xHEc2rVvh24REXhmwDPw8SnfDZ096xNcvnzvCKIlS6MQEGD7N8cBQMuWLeHl5SXp10/MOqfI96FqpfwERD5pF/gL+x2Oy2j00AycDnXkKGlnRbMqqILDoAoOg2bAu7DEb4Z55xKQkjyJGhGYNs8GG9QCquAwx8M0CAXbuA3ErPOA6JolUm5uLs6dtY7fiIyMRGhoqEvkK6GgoNAq/ua337Ziy+YtKCsrc9indevWNsaluLgY69atx5bNWxxumwNAWtoVpKVdwcaN0ej5RE9MnjwZxcUlVjrcP1uxh8FggMFgP15KpbL/ZUtOTsZ3336P5ORkh3JNJhNiY2MRGxuLlSt/wksv/R+GDRuGW7duoaDAcSkPQojVM3h6emJJ1BJs3/6H3WhsQghSUi4jJeUyfvnlV4wZMxqjRo2SPOPIyMjA8uUrcPzYcYf38DyPhDMJSDiTgNWrf8bQ54di7NgxyMvLs9LVUYgEB0DWNqSQeQ5g5G08MXUaVj6jqHRAHuYdCx2OyQY0h+6Vb8EGNLd73SmcBurIUeDCnoV522ewxP4iUS8TjKsmwuPd38D4BDoWHzYA5uvJLjMwp06dtvmy9enbxyWyXcW6teuc3vPi/71o9T41NRUffjATOTk5kschhCDmSAwSExLRvIXC/38ZY61e/TNWr1otKfXiDoWFhVi27FvExcVXajTtcfnyZatZQmWYTCasWPEDLly4gFmzZzldRu7auQtRUUscGgZ7lJWVYd3adYiPi5ccKS5vMStYIN76S77/5bHW8jpUgE/4HWJ+ht0x2YAW0E9YA8a76mtpRucN7YgFYIM7wbRlNsA7/zKQkmyYNn0M3SvLHd7DdXoW5j1fASp1lXUEgLRU2+Nqu3RxXm2QEKI4feB+OI6DXq+8KFjjxo3Rs0ePu+8TEhLx0cyPKplNqODn54fS0lIYjUab68XFxUg4kyBbj3r16qFpU/tO3nr16t39NyEECxcuwq6duxzK0ul08PT0REFBgc1SEABOnjwpWz97cBwHX19fh59FTMxRLF2yFNPem+ZQxpqf1+DHH1c6vK7VauHl5YXCwkK7BiglJUW6vpLuEgVYYtfDcvBbkIIbstN22CDbdbZU+MTfwdgJ6GM0HtCNW+4S41IRdcQIsB6+MK6dLOm8JOGvvRAuH4OqRQ+719m6jeE194zkGBpn5OVZL+P0ev3ddXFlWCwWDBn8nEt0iOwRifnz50m6t1fvXnj22QFo1qwZ1OpyI6vRaO5O43NzczF3zlwb48JxHPr1exr9+vdD69at7/qXCgoKcOzYcURvjEZ6enqVnqNbtwhMnTbV6X3R0ZvsGpcGDYIwfPhw9OjZ467/gYgEKZdTsH/ffmzdus3Gf6SU4OBgvDLuZURERECr1f5veZSC9es34FAF/xdQHu/z9z59EB5uWyz/6NGjWLnyJ5t2Pz8/DHthGJ588m9WgZkZGRk4fOgwoqM3obhY/saIUwMjZibBtGk6xJv/27VQ4H9hfOo5v8kOxFAAIS3G7pjqZz8A699UkVxnqNr1g3boXJi2zJR0v3nHfOgnb3Nc8c9FxgUAjEbrL6w7dyyqAsuy+ODDGejbt/JEzy+/WGjjl2jYsCE+mTPbrgPYz88PAwY8g/79+2HNmrVY9dMqWUsWuaSnp2PF8hU27QMHDsTktyZBo9FYtTMsg5YtW6Jly5Z4ftjzmPXxbFy6pCxn7w7h4Z0xb/48qx0jhikfZ/bsWfi11a/47rvvrfqsXbPGxsAUFRXhi8+/tPm8IntEYsaM6XZdJU2bNsXoMaPx3NDnMH/+AsTFygtudWwuCIHl2EqULX8BYvZf5WkBCl+MtzIDI95IBojFVl7dhlB3HalIplS4iBehavsPSc8n3joPPtnx9NmV6HTW25KVOQ3dhaeE5L+RI0c4NS4pKSk2Swd/f39ELVls17hUhGVZjBkzGq+9/ppzhavAxl+jbZYJgwYNxJSp79oYl/sJCAjAkqVRCA4OVjy+Xq/HhzM/rHQ7esTIEejSpYtVW2Jiks134/fft9sskyO6RWDu3DlO/bDe3t6YP38ewiUsxytifwbDm2CKfhd88s7y91WMmGU0yuJfxNxU+7OXCIm7RVVEO2QeDGkxgMXxbsgd+JPrwLV/1u06VfQNAIDRaERxcbHTL4hKpcKLL8o/UuVWdjb279tfqQ72GPKc8+XYtm2/27RNnDTR7nanI0aOHIGYmBicTz4vuY9UDAYD9u7da9UWEBCAiZMmSpah1+sx44PpmPDGm4p06Nq1K+rUqeP0vv79+1kZa0IIrl69arV1vW3rNhvd3ntvmuTwBpVKhRkzpuOfL42WvPSz/Su1GGFc/xqE1COuC8UnCs9+Lsyym1Cpatm7qhpJgvEOgDr8BVjiVju9V8g4DlKcDcZb4W6ZREKaNbNpO3XqFHr3rvwzUalUin7tN2z4xcbAOJtdaLVaSUFsF/+yDhb09/dHr15PytKvvKzEc24xMKmpabBYLFZtzwx4RnZwW8uWLdGuXTun5SHsERgo7fsUFBRk05afn3/333l5eTY7dE8++Tf4+/vL0sff3x9P9noSe3ZLi2i3NiGCBcb14yFc+Z9xcdGLlMkJZKuAaLGVp9aADVK+KyUXrtsYac/JiBBS9rldn7CwTjZtBw8csnOnazh0yFo2wzDoZEeHikiJtBVFERkZGVZtoaGhisp2tm7tnu9D+pUrNm1t2igbq1VrZcW7WImzC9ZO3I4o3Ev9SU/PsLnepo38ciQA0FpGITIrrcx/fgIxI8b1eTyF1xyNXymMzsM2p8m7LsBUX8QqW68F2DoNJT2nmHnK7foEBASgTVvrL0ZMTAzS0mz/GKpKfHy8zSyjY6eOqFu36hHJPM/bzA50emXOcHcVhCqzsw2sdHteit/KnRiNtsv8OxHGcvHwlP4sdw0Mn7QR/Jk1Lp253HmJBbbWU5JyAaG28izVc3xtRVTB3aU9582katHn/hKOoijim6+/BhFdt5tSVlaGZf9ZZtM+dKhrtro1Go2NYbhZIQxeDjdvKuvnjDp2Qu9vXFdWMfCGwmdzFfbSCG4o/NzkPAsLAKToOix7Z1dpp6jSXZbryn7Z2cfCbGQRSwlIaa4ieUph/JtKe84iZYZULn379kHTptZb9AkJiVi2zNYgKIGIBIsXLUZGhnV94U5hnfDEE8pTPu7n/uLiFy5cQHa29EjeOxyNOeoqlaxobsfXdOTIEdlyLBYL4uNdX7JDDiEhITZL18OHDiuSdezoMcn3sgBg3jMLxFwCMHDLixRngRTIXyYxvo3A+je/Tx6BcMV9Pge7emi9pT0rXwZYpNcCVgrLspgydYpN7timTZuxYsUPkstu2IPneSxY8Bn277c+hkWj0WDKlHddmq3do6d1cCIhBD+ssI05qYzr169jy5bfXKZTRUJCgtGgQQOrtqNHj+HsWXnO2nVr1+H2bYV+SBfh4eGBjp2saxmlpaVh7155fsPdu3fLiuRlAUBI/dNts5c7LyF1t6wHuQPX9RUbWfypHwC4L7jqfohgkvycRMKWtito374dJk603fpcv2493pv2PrKzs2XLTEtLw1uT/4V9+2y/dJMmT0KjRo0U6eqI/v37wdPT06pt79592LBBWj5YQUEBZkyf4TDFoKowDINhL1iXzSSEYN6n83D16lUHvazZs3sPVq/+2R3qyeaFF4bZtC1dslSywUw4k4DFi6JkjckC5Sd2uPslJEfLUuwOXLsXwPoEWskiOefAJzlPqHMZhmzJz+mu87vtMeyFYRg+/AWb9jNnzuCfL41G1OIlkpy/F/+6iM8WfIYJb7xpU2cGAF577VUMGiS/RKozvL29MX78OJv25d8vx7x585Gb63gpvH/ffrw6/jVkZma5XK+KDB48+G5JiDvk5OTgrcn/wh9/7HA4WywuLsbiRYvx+edfuDXSWA7dunVD9+7drdoMBgPef+99rFu7zmEypslkwg8//Bfvvz/dxjHvjPJFmZ1YE1cj5p6FeCsJbKD0AtoAALUH1P0Xw7z5n6g4a7EcnA22XkuwDbu6VlE7kILLkj8jRl29uwUTJkyAVqvF2rXrrL7IPM9j+/bt2L59O+rXr4+OHTsgMDAQfv8L2iosLERWZiaSks7a5DfdQaVSYdz4cYoC9KQy5LkhSExKssmn2b9vPw4dPITw8M5o3bo1/Ov5g7fwuJKejtgTJxT5apTAcRw+mTMbkyZOtoqCvWNAVv64EpE9IhHctCm0Oi2Ki0uQmJCAhIRE2dnT1cH0Ge9j4psTrRy1dwzIhg2/ILJHJJqFhMDTyxNlZUYkn0tGfHx8paU3KoMDADaoA8Rs9++A8LFLoRn8o+x+quBe4CLeBH+yghNTNMK05SVo+n8NVfN+LtTyPogIMVtiBT+VGoQ3glFVHkLuShiWwbjx49AprBPmz1tgd62fk5Mje60dEBCAmTM/RPsO7V2lql0YhsHMmR+CiASHD1s7HQVBQFxcPOLinDtIWZatku+pMho3boyFi77EBzM+tAm/z8/Pxx/b/5Akx506SsXX1xdRS6Lw3rT3bGZ/JSUl0gPoJD4LCwDa4RuhCunlfj9M+m6It+Sn1QOA+okPwXV+1VqmUArzH+Ng3vMOSHGmIrnOEG8lgJjypD0jMcP0ywCQAtfHpDijc+fO+OG/KzBo0MAq1dL19vbG2JfH4r8//uB243IHjuMw+5NZeP2N1xWVgHzq6acwZuwY5zdWgdDQUHz3/XcIC3NcYMwR3t7emD17FgIDHdcNqk4CAwOx7NtliuoIabVaTJo8yW7Apz3Kf5fVntAMWgWu29sAx0FunIv0F4Hl4HTFxZfUT86GuvengFprJVe4uBHGn3vCvGM8hL82guRfujcGb4R48zT4uCgYf+4J45onZI0vXNwk6xlJ0RWYtr0IUlr9cQ916tTBu1PexfoN6zD25bGSk+w4jkOHDh0wadJEbPhlPcaOHWPjfHU3DMNg1KiR+GnVSgweMthpQBvDMAjvEo4lS6PwwQczqlSfRioBAfWxOGoR5n46F23btnW6o+bt7Y0RI0fg5zWr0at3L7frJwcvLy989NFMLP1qCSK6RTiNoNbpdHj22QFYtfonDBv2PCBxN9HmXCTx1mmY970NUmBb2MhVqLvNABf+L8X9xbwLsBybA/Gak318lrMxJqoWg6F5+luU7ys7wVIK488RIEb5W4xsvTbQDtsBVONyyR55eXk4dy4ZmZmZyMnJQVlZGRgw8PDQIyAwEMHBTdGxY8cq/YEmJiZaHdjGcWr071+1ZavZbEbCmQRcuHABmZlZKCsrAwFBUFAQWrRojvDwcKukyLS0Kzh//l4Zy3bt2tkY2D179sJkuhed26RJE3ToINMnWIHs7BzEx8fjStoV5OXnwVBqgJ+fLwKDgtC+fTt07NjRKuN6//4DMBjulfIcONDacU5Egj92WC+3mjdvLikVoqCgADH3HcvSuXNnyWdjFRYWIi4uHqmpqci+lQ1DmQGeHh4IDAxE23ZtERYWZhUYeeLECSsnfJ8+fexGVNs/eI0vA3/2BwgJ/wExOT9iUzasGppn14F9rGeVxIg34yCcXwsh/U/AXImejAps497gOk6QNSZ/Kgp8vOPCz87gOr8NLmK64v4USm2n0pMdiakQQuIyCBdWgZhccO5zxYF1daEZuguMt+NjTSUjmCHmJYPknQMpyQIxFwNEAOMRAMavJdgG3cHo5dWkIYabMP36JGCuQmoCp4N25HEwnraZrhTKo4C0o2MFE4S0bRAurod4M05x+QWbwX2CoRm4CYynvCNO3Q+BeceLELOqHjHMhb0DrgudxVAeTWSfTU1MBRAz90O8FQeSmwBSlA5iUl5VjfEJhuaZaDBero0SrQp84r/Bn1zgElmMZ0NoR512iSwKpbYh28DYw3J0CoRLyiNrGV1dqHuvANugaj4ZVyBc/hWWI2/DlakI2uePgvF177EaFEpNRH51Hzuou30KxldaxrHd/B1zHsx7R4I/vxwgDy4QSbi0BpZj7wCs6LLYH0bnAyK4PwGSQqmJuGQGAwBiTjwsu4eWV6GrAmxAN3A9loLxti0N6TaIAP7kbAh/ycvkrRSGhar5KHCRS1wnk0KpZbjMwACAcHk1+FjHBz5JhtVA9fhYqNpPAaOVVzNULuT2OVhip4DkKYswvh9GWwdsk8FQhb4KxvfBHedKodQEXGpgAIA/PQvCxe9cI0ztBVWzl6BqMRaMj/LD2+xBDFkQLnwDIWUVQJRFFrOBfwPjHQKwGjA+j4Op0w6sf+dqLelJodRkXG5gQARYTkyAeNWVRYAYsAE9wTYaCPaxfmA8FO44EQFiznGI6b9CyNgEiMqzXdnAXlD32gAw7j8+hUKprbjewAAA4WGJfRPiNfdUGmN8WoGt2wlM3TAwPqFg9A3BeDwGsBXC8okIYsoFDFkQ80+D3E6AeHM/iFF+ISab8b0fh6bvTkBdM09VpFBqCu4xMADAl8C8rbnLgvIkwXmV5x8BgKXIPTtSmrpQ//1PMF4hzu+lUB5x3Da/F3NiAPCScgpdhlAMVLRnrh5bUxfqnhuocaFQJOI+A3PrTxdF2dQMGH1DcD2iwXjTnSEKRSpuMzCk8HS1lOKsDhivx8FFRoPRuyAxk0J5hHCfgSlLfyhmMGyjkeDaLQK46i3ARKE8DLjHwFgKAbGodhsYjT+49l+BDXz2QWtCodRa3DSDIeVHeNRiVMGvU+NCoVQR9xgYRlX7/S/aqh/wTqE86rjHwHDegNoTEEqd31tDYXykVU2nUCiOcZuTl/EMBimRd4avVX+vtmADh0MsOA5SEFO9xoTFUCQAAAGlSURBVIrzBeMj/3gKCoVijfsMjG84iEGBgdEEQtV0KtiG4wGGA9v0XYDwIKUXQEqTQUrOg5SeBYxXQcy3AL4KNXMdwNZ7iiYsUiguwG2pAmJONIQLtucOO1TEsz3Yhq+CDRwFsDKO0BBNIJZcwJKLu1XoLLfB//UqYFF2vCjXaS8YnwhFfSkUyj3cl4sklIKPbeF4acPqwHiFganTB0y9wWA8nJ/9IgdSehZC0kCAl3emEVO3H1RtN7pUFwrlUcV9BsYBJDca0IWA8WwPMO49lIwY0yBeHAtSIrGYFKuHqtMxMHrX1p6hUB5Vqt3AVDuiCWLWlxCvfwOIldfGZZt/AzZgbDUpRqE8/Dz8BuYO5usQb3wFMWcNINgeIscGjAMb8u8HoBiF8vDy6BiYO4gGkMJ9IEX7QAr3gJgywNQdBlWzH+nOEYXiYh49A2ODgPKkqeosXEOhPBrQgrKgsxYKxV3U8pRECoVSk6EGhkKhuA1qYCgUittgAeDs2bMPWg8KhfIQwgKA2az8ADIKhUJxBF0iUSgUt0ENDIVCcRvUwFAoFLfx/8ckb46CymRFAAAAAElFTkSuQmCC;" vertex="1" parent="1">
          <mxGeometry x="652.06" y="235" width="110.89" height="40" as="geometry" />
        </mxCell>
        <mxCell id="lzWMTXst7IQfSHoqMK04-36" value="" style="group" vertex="1" connectable="0" parent="1">
          <mxGeometry x="50" y="364" width="170" height="56" as="geometry" />
        </mxCell>
        <mxCell id="lzWMTXst7IQfSHoqMK04-37" value="" style="rounded=1;whiteSpace=wrap;html=1;fillColor=#dae8fc;strokeColor=#6c8ebf;" vertex="1" parent="lzWMTXst7IQfSHoqMK04-36">
          <mxGeometry width="170" height="48.00000000000001" as="geometry" />
        </mxCell>
        <mxCell id="lzWMTXst7IQfSHoqMK04-38" value="&lt;b&gt;Exporter&lt;/b&gt;" style="text;html=1;strokeColor=none;fillColor=none;align=center;verticalAlign=middle;whiteSpace=wrap;rounded=0;" vertex="1" parent="lzWMTXst7IQfSHoqMK04-36">
          <mxGeometry x="60" width="60" height="24.000000000000004" as="geometry" />
        </mxCell>
        <mxCell id="lzWMTXst7IQfSHoqMK04-39" value="&lt;i&gt;NGINX Prometheus Exporter&lt;/i&gt;" style="text;whiteSpace=wrap;html=1;" vertex="1" parent="lzWMTXst7IQfSHoqMK04-36">
          <mxGeometry y="24.000000000000004" width="170" height="32" as="geometry" />
        </mxCell>
        <mxCell id="lzWMTXst7IQfSHoqMK04-40" value="Réponse format JSON" style="text;html=1;strokeColor=none;fillColor=none;align=center;verticalAlign=middle;whiteSpace=wrap;rounded=0;" vertex="1" parent="1">
          <mxGeometry x="680" y="350" width="152.06" height="30" as="geometry" />
        </mxCell>
        <mxCell id="lzWMTXst7IQfSHoqMK04-41" value="Requête HTTP" style="text;html=1;strokeColor=none;fillColor=none;align=center;verticalAlign=middle;whiteSpace=wrap;rounded=0;" vertex="1" parent="1">
          <mxGeometry x="470" y="374" width="152.06" height="30" as="geometry" />
        </mxCell>
        <mxCell id="lzWMTXst7IQfSHoqMK04-42" value="Requete&amp;nbsp; PromSQL intégré &lt;br&gt;dans des requêtes HTTP" style="text;html=1;strokeColor=none;fillColor=none;align=center;verticalAlign=middle;whiteSpace=wrap;rounded=0;" vertex="1" parent="1">
          <mxGeometry x="490" y="310" width="152.06" height="30" as="geometry" />
        </mxCell>
        <mxCell id="lzWMTXst7IQfSHoqMK04-43" value="Réponse format text" style="text;html=1;strokeColor=none;fillColor=none;align=center;verticalAlign=middle;whiteSpace=wrap;rounded=0;" vertex="1" parent="1">
          <mxGeometry x="430" y="430" width="152.06" height="30" as="geometry" />
        </mxCell>
        <mxCell id="lzWMTXst7IQfSHoqMK04-44" style="edgeStyle=orthogonalEdgeStyle;rounded=0;orthogonalLoop=1;jettySize=auto;html=1;exitX=1;exitY=0.75;exitDx=0;exitDy=0;entryX=0;entryY=0.75;entryDx=0;entryDy=0;curved=1;" edge="1" parent="1" source="lzWMTXst7IQfSHoqMK04-31" target="lzWMTXst7IQfSHoqMK04-26">
          <mxGeometry relative="1" as="geometry" />
        </mxCell>
      </root>
    </mxGraphModel>
  </diagram>
  <diagram id="Qam1TlfQNZoZ9kGaPJG3" name="LEMP_Prometheuse">
    <mxGraphModel dx="868" dy="553" grid="1" gridSize="10" guides="1" tooltips="1" connect="1" arrows="1" fold="1" page="1" pageScale="1" pageWidth="1169" pageHeight="827" math="0" shadow="0">
      <root>
        <mxCell id="0" />
        <mxCell id="1" parent="0" />
        <mxCell id="QUJFFLUGVoSj-1alCTjn-5" value="" style="shape=image;verticalLabelPosition=bottom;labelBackgroundColor=default;verticalAlign=top;aspect=fixed;imageAspect=0;image=data:image/png,iVBORw0KGgoAAAANSUhEUgAAAUwAAAB1CAYAAAAlbNiOAAAgAElEQVR4nO3dd3gU1foH8O/27KYXQ+gJJaFIFKlBUZr0wA1CqD9UVBSQ5kWqUkS4F2lKDxcVVIoaJYCEXrxCiIAKgXAJEFpCOklI3T6/P9YMu2TLbDI7CfB+nsfHLTPnnA2775w5VcQwDANCCCEOiWu6AIQQ8riggEkIIRxRwCSEEI4oYBJCCEcUMAkhhCMKmIQQwhEFTEII4YgCJiGEcEQBkxBCOKKASQghHFHAJIQQjihgEkIIRxQwCSGEIwqYhBDCkbSmC8AFo9VAf+8m9Bl3YMi4DX36Lehz0sFoysGoy8GUFoFRlwMARG5KiNy9TP9XKCENbABpgxBI6gVDWq8xpPWbQCRX1PAnIoQ8jkS1cj1MgwG62ynQJCVCm3QG2v/9CUan5SdtiQSy4DAowjtDHh4Becu2EMkogBJCHKs9AdNohObCaZT/ug/qcyfAaNSCZCtSuMGtQw8oX4mE4vkugJhaKQgh1tV4wNRn3UXZwe9R/ls8jIV5NVkUiH0CoOzaH6q+wyENalSjZSGE1D41FjD1d2+gJO4rlJ+KBwyGmiiCbSIxFO26wnP4JMiatKzp0hBCagnBA6Y+7QaKd6yB+txJgK+sJRKoXhkETfI5GLLT+UkTAEQiuHXoDs/RUyBt0JS/dAkhjyXBAiajKUfx9xtR+su3gEHPW7piDy/4zdsIsZcvciYPBIxG3tJmSaTwiBwLj+j3IFIo+U+fEPJYEKSHQ514FLlTBqF0z9e8BkuIxfCdtQay0HBoLp91TbAEAIMeJXFfIXfKIKgTj7omD0JIrefScZiMRo0H//kU5Sf2uCR99/6jIW/VDgBgzM9xSR7mDHlZKFg+Haoe/4DX2/MgUri5PE9CSO3hshqmPu0G8maOcFmwFLmp4PHaO+xzsaePS/Kxpux4HPJmjoA+7YZgeRJCap5LAmb5f/cjb9ZI6NNTXZE8AED5Yl+IvXzZ59LgMJflZY0+PRV5s0ai/Ld4QfMlhNQc3gNm6d5tKFwzx+UDz91e7GPxXB4aDpHSw6V5PorRqFH4xWyU7vtG0HwJITWDv4DJMCj6ZhWKtq3gb7iQLWIx5KHPWb4mkUIZ8SrnJCR+gfyUhWFQtHU5ir5Z5frPTQipUfwETIbBgw0LTL3gApD4B0GkdK/0urJnFKfzlV37Q96qPa9lKt3zNR5sWEBBk5AnGC8Bs2jbcpQd381HUpyIPb2tvi5v0RbSesF2z5UE1of3xE+guZTIe7nKju9G0bblvKdLCKkdqh0wS37egtJ93/JRFs7EHtYDJgAoe9ivZXq9ORNgGBgf5PNdLABA6b5vUbL7S5ekTQipWdUKmGXHd6N4xxq+ygIAkNZrDL+PN0HiX8fmMSKVp833VN0iba44JA97Hm4de4ApL6l2Oe0p3v4Fyo7HuTQPQojwqhwwdanJKNr8Ke9tdvqMO5CFtITfJ19BpLLe6y12tx0wxb7PQBEeYfU9VZ9oAHD99EaGQdHmxdClXnFtPoQQQVUpYDJlJShYOYO/RX0fYcjLhDSoEbzG/tPq+2LfZ+yer3wlsvI5Hl5wi+gNABAp3W0GY74wOi0KVs0AU+ba2iwhRDhVCpiF6+fzuyrQo/6eE67qEQVJUMNKb0sb2l85yK1Tz0q96Ip2r1hsTSFr1JyHgtpnyEpD4YYFLs+HECIMpwNm2dGfoE484oqysNgZPBIJVD2HVHrfUbATKdzg1qmXxWuK5yxv0+UtX6heITlSnzmMsmM/C5IXIcS1nAqYxqICFH+72lVlAWCaIy4JqMs+V3btb3mARApJvcYO01G+MtAsUVGlgKl4oWu1yumM4m9Xw1hUIFh+hBDXcCpgFn+7CsaSB64qCwBAHvYcIJGwzyXP1IO07sMAKQtpAZFU5jidFm0BiWkxJklgfYh9Aizfb9kWkmfq8VRq+4zFhSj+7nNB8iKEuA7ngKm9+hfKXLTykDl568ozcMxfU4R35pSOSK6ArLHp1l3WpJWVA8RQ9RletUJWQdnx3dCmXBAsP0II/zgHzKKtywWZ9qd44eVKr0kbhz58v303zmnJmrY2/T+khdX33fsOF25ZuL/nnBNCHl+cAqbm4hnorl9ydVkgrRdsNbhJ/26zlATWhzw0nHN6FbfctnrVRUp3uA8cU4WSVo3uWhI0l34XLD9CCL84BcySnza7uhwAKi/ZVkES2AAAoOodDYhEnNOrmC0kqdPA5jHuA/8PYh9/J0pZPSWxwvwtCSH8cxgwtVf/gjb5vBBlgfLlgVZfF3t4QezuCVXvYU6lVxEwpXYCpshNBc+h7zqVbnVoL5+ltkxCHlMOA6ZQC2vImofbXGlI7O4Fz5GT7U6JtHqe7zMQu3tC5Kaye5yq9zCrA+RdRejFSggh/LAbMI0lD6D541dBCqJ6xXrtEoBpAHtf53u0xT7+ENlZ2ehh+lK4DxCuLVNz/iSMJUWC5UcI4YfdgKk+fdBl88UtSyGGWxfr7ZcskfOzOMXuXpxXVld1GyTYnuOMTgt1wiFB8iKE8MfuNrvlv+4TpBDylu0g9vbjP2GRyGJIkt1DVR5Qdu2PsqM/8V8OK8p/3ed0mywhW7ZsgfHvtRYGDBiA+vXr13CJni42A6YhJwPaa0mCFMKZvXicJW/Rlns5XuonWMDUplyAITejSrONrl27huLiYpvvKxQK+Pv7o27dujaPIY+nSZMmQas13fUdOXKEAqbAbAZMTdIZwfanUbSrPFidL/Kw5zkfK2vRFiKFEoym3GXlYTEMNJd+h8rBCvHWTJgwAcePH3d4nI+PDyIiIjBs2DCMGTMGMpnjKaVEGEeOHEFhYSEAoG3btmjWrFkNl4hwYbNhUHv5rCAFkPgFQhLouqukJJB7DU4kk9ucFeQKWhcPYi8sLMSBAwcwbtw4tGzZEr//ToPma4uZM2ciOjoa0dHROHDgQE0Xh3BkvYbJMNBcPidIAWRO3DILQRocBu3VvwTJS8vD37hBgwaIiHi4EtP9+/eRnZ2NrKws3L9/n309NTUV3bt3x549e/Dqq65rAiHkSWY1YOrv3YKxIFeQAjgz1VEIkmeEa/cz5OdAf+8WpPVDqpxGREQEfvjhB6vvJSUlYcmSJez75eXlGDNmDC5duoTAQJ72ZSfkKWL1llx3+6pgBRBywDgXEgfbX/BNd8t1f+vw8HB8//33+PDDD9nXcnJysGXLFpflSciTzEYN87ZgBZA8sk5lTXM0K4hvhgzX/62XLFmC7du3IyMjAwAQGxuLuXPnujTP+/fv48qVK8jNzYVMJkOdOnXw3HPPQaFQOD6Zg5s3byIlJQVqtRpBQUF4/vnnoVTaHkebn5+P5ORk5OTkwM3NDWFhYdXqaCkpKUFSUhJyc3Oh1+sREBCAZ599Fv7+wq1L8KjS0lJcuHAB2dnZkMvlaNasGVq0qHqbvMFgQFJSEjIzM1FaWgpvb2+EhoYiONj6jLyawjAMrl27htzcXKjVanh5eaFRo0YICgriPS+rAVOIH3EFkVLYAOWI+b4/QhDi4iSTyfDqq69i27ZtAEzB5lGTJ0/GmTNnAADjxo3DxIkTAZh+hLt370Z8fDzu3LkDjUYDf39/LFu2DM8/X3kEwsGDB7F06VIkJCTAYDBYvOfh4YFBgwZh0aJFDoPVhQsX8Pbbb7PPz507B4ZhsH37dqxcuRIXL160ON7X1xcTJkzAwoULLUYDJCQk4NNPP8XRo0eh0+kszmnbti3WrFmDl156yW5ZzP33v//F0qVLcfLkSWg0Gov3xGIxOnfujLlz52LAgAGVzmUYBh06dABgGhpWYfny5ey/zaP279+POnVsbzkNABcvXsSSJUvwyy+/oLzccoRHWFgYli1bhsGDB3P6fABw+/ZtLF68GHFxccjPz6/0fpMmTTB16lS8++67di+A48ePx59//gnANLLjrbfecph3v379kJtrag7817/+Zbe9/a+//sLnn3+Offv2oaCg8o4GQUFB6NatGwYPHowhQ4ZALpc7zN8Rm22YQmHKywTLiwtBhhSZ0WcI87c2v9o+ePAAOp3OIrDcuHEDf/zxBwCgb9++YBgGX331FT7++GNkZmZWSm/KlCkWAVOn02HcuHH47rvvbJahpKQEO3bsQGxsLDZs2GD3B1RSUsKWBzD9iEePHs0G9UcVFBRg6dKlOH/+POLj41FaWooJEyZg586dYGwMj/vrr7/Qq1cvxMfHo0ePHjbLAgBarRbvvvsutm7davMYo9GIhIQEDBw4EBMmTMDatWshMds9AIDFZ6qQlpaGtLQ0m/naolarMWnSJGzatIkdzP6olJQUREVFYe3atZg0aZLNtCrExMRg6tSplS4G5m7evImpU6di586d2LNnj8328GvXrrGf19p3yJqkpCT2TshasK6waNEiLF68uNJF2VxWVhZ27dqFXbt2ISoqCj//XP29tawHzCwX7gj5CENhHmrT6EDjA9v/SK6gz7L+Q+HbgwcPtxbx8PCwOyYzLy8PgwcPxr593GZ6MQyDESNGWHwh69ati8jISAQHB0On0+HSpUvYv38/ysvLodVq8c4778BoNOKdd97hlEe7du3YWoRUKkWLFi0QGBiIzMxMXL16lQ2Khw8fxtSpU3H48GFcv36dPb9evXpo2rQpdDodLl++jJIS0/bHGo0Gb731FlJSUmzWQAwGAwYNGoRDhx5OZ+3WrRv69euHRo0awWg0IjU1FbGxsUhKMk322LhxI/z8/PDpp59apNWkSRMAQHp6OhsMAwIC4OXlZTVvqdT2ZLyxY8da1Kzq1q2Lpk2bwmAwIDk5GUVFpvUKGIbBBx98gJ49e9q9RV+2bBlmz57NPg8NDcXQoUPRokULuLm5IT09HUeOHMHBgwfBMAwSExMxZMgQnDx50m45+bZixQosXLiQfe7r64vIyEiEhIRALBYjKysLiYmJuHDhAvu9sHcBcEblT8kYwahLeUmcC2PhfccHCcgg0OiACkx5GcAYqzRX3hmnT59mH7dqZWXLDjMxMTHsY39/f0RFRaFVq1Zwd3dHYWEhUlNTLWoVGzdutAiWU6ZMwb///e9KbYppaWkYMWIEEhISwDAMpk6dihdffNFheQBTDdLb2xszZ87E22+/bZF/cnIyIiMjceuWqba+fv169r3+/ftjzpw5FrfdarUa06dPx6ZNmwCYaq979uzBsGHWp6ouWLCADZZ+fn7YuXMnevfuXem4jz76CIsWLcKiRYsAmG4pR48ejZYtWwIARCIRUlNTAZiaAy5cMC3zN3/+fEyePNnh38Da30QkEiE6OhrTpk1Dp06dIPp7vVitVovly5fjo48+Yp+vW7cO69ats5rWsWPHMG/ePACmpoWlS5dixowZlWrI06dPx6FDhzBkyBCUlZXh9OnT2Lx5M9uE42p5eXmYP38++/z999/H8uXL4ebmVunYjIwM/Oc//7H4PlRXpV8poy4XbIYPAOhuXhEsLy706cI1RwD4+wLl2maAuLg4XLr0cMX8QYMGOTzH19cXq1evZr9006dPx/jx4zFz5kzExMSwbXFqtdriaj927Fh88cUXVjtgGjZsiIMHDyIkxDSMqry8HAsWcNu3feDAgUhJScHcuXMr3QK2bt0aa9assXgtMDAQe/fuxf79+yu1Ubq5uWHdunVsbQ8wBQxr7t69i88++wwAIJFIsGfPHqvBEjAFxIULF2LgQNPKW0ajEWvXruX0+aoiNDQUCQkJ2LVrFzp37swGSwCQy+WYN2+exb/14cOHrabDMAymTZvG3t4uWrQIs2bNqhQsK/Tp0wdLlixhn3/+uXAb/B06dIhtpw0ICMDq1autBkvAdFexYMECpKSkYMwYflYjqxQwjeXC1S4BQPPnb4LmZ5fR6PLZN9Ywate14/72228YN24c+9zHxwcTJkywe0779u1x8eJFTJs2zWFD+Y8//sg20svlcixfbn/fIk9PT4vb1Li4OLbNyp69e/fa7fzo1auXxQ981apViIyMtHm8RCJBr14P966/csX6hXvdunVsZ9Ebb7zBqYNoypQp7GPz23i+rV+/Hp07298UMCrq4dTbGzduWL01PXz4MC5fvgwAaNasGWbNmuUw7/Hjx7MXxevXr7O1e1cz/66oVCpOTQG+vr4YOXIkL/lbqWEK2wljyMuCPj1V0Dxt0V5Pcvk2wtZU5yKl1WpRUFDA/peRkYHLly9j165diI6ORvfu3S3audavXw8/P/srQ/Xp0wcNG3IbH3v06FH2cY8ePTgNiI+KimJ/bHq9HidPnuSUlz1ubm4ICHg4RM3e4iQVzD+jtV5WAIiPj2cfjx07llNZzIPYzZs3baYtBPNaNMMwVsti/hlHjhzJac0BlUqF8PCHk06sdWa5gvliI2lpafj1V2HW661QOTwbbfc6uUrZ0Z/h9caHjg90sfLf4h0f5AoGfZVP3bNnj8MACJg6D1avXo1Ro0ZVOS9rzp59uOZAxW26I0qlEm3atGHPPXv2LC/l8vT0RHZ2NgD7vcvmx1ewVvPKz8+3qHneuHGDTd8RmUzG1kzz8vLg6+vL6Ty++fhY7opq7XOat28XFxfjxx9/5JS2+TCtirsMV+vQoQNEIhEYhgHDMOjXrx8mTpyIkSNHom3bthCLXdsXUClgCj1wGwDKDv8Aj6i3XLMmJkfGwvsoP1b9YQdVIVJ6uDT9iIgILF++HC+++CLvaWdlZbGPGzduzPm84OBgNmByHXLiiLu7O6/HZ2RkWAxJ4jKO0BrzEQpCM78o2HLv3j328eeff16lNsmKHnlXa968Od544w18/fXXAEzt4CtXrsTKlSvh5eWFdu3aoX379ujYsSNeffVVeHtz2HHBCVYCpnNfOltkwWEQ+9eB7volGIvs35IwGjVK922D55jpvORdFSV7t4HRchh6IBJDWq8xZE1aQp+Vxsv2w9W5SLm7u1u07alUKvj4+CAgIAAdO3ZE9+7dHbZzVRXDMBY/FA8P7oHf/IdcscxZdYmc2FGUy/F83UrbGgcqBC41LnvjHbmyNQ7UFTZt2gQ3NzfExMRY5FtUVIQTJ07gxIkTAEzNNJGRkVi8eDHCwsJ4ybtSwBTzNPOGUZfDb846QCSCIecetNeSoLtxCbrrl6G7eaVScCrd9y3cuvSFrElLXvJ3hu7ONZTFb6/8hkQKWcOmkIa0gKxJK8iatIQsOIwNcLkfDOElf7Gy6hep/v3721x8w9VEIhFkMhl7m/foTBp7zI/lYwaGKzzaS3zhwgVONbZH1fZFfqVSKduEsWHDBvTp42C7GCu4NAvxRS6XY8OGDZg9eza2bt2K2NhYJCcnVwraarUaP/74Iw4cOIB9+/ahW7du1c67chumRAqRXMGttmWHPusutP/7E/JW7SAJrA9lYH0oX+pnetNggO7ONeiuJ0GXegW61GTo0m6gcPVMBKz4QbC9dQCA0WlQ+PksMAY9pI2aQd6sDWTN20DWpCWkjUMhkln/MWtTLkJ/57rV95whkisAG8M3Hgc+Pj5su54zNTLzWk1Nte858ui8cE9PT4tOlCeFv78/yspMnb0SicQln9GZiylXjRo1wvz58zF//nwUFRXh/Pnz+OOPP3Dy5EmcOHGCHX5UUlKC0aNHIzU11eYQJK6s9slLAoKgz7hTrYQBoHTPVshbtbOSgcRUWzOrTTJaDfS3U2AoyIU0qFG18+bKkJcF73c+gqxJS6dujcsOfc9L/pKAx3sbiebNm7MBs2JoChfmxzZv3pz3cvGhYcOGkMvlbO0rMTHRJcGESweVKzVt2pSdmpmYmIjx48fzkq55k4er2zi9vLzQo0cP9OjRAx9++CEKCwsxefJkdqpuRkYGjh07ZnWOvzOsNnBI61V9fUZz6j9+he7ONccHwlTTkoWGCxosAUBatzHkrdo5FSwNuRm87fpYnbUwa4MuXbqwj48cOcKpvS4lJQW3bz9cdMQVnVF8UKlU6NSpE/t8x44dvKVt3gzB17S9qurevTv7eN++fZyGZHFh3qbNVzs1Vz4+PtiyZQtUqoe/a/OpslVlNWBK6vO0fBPDoPi71fykVYsUf7+Bt+2HJfVq11JZzho6dCj7+NatW9i7d6/Dc8xn5dStW9ep1YKEZj7gef/+/U5vJ5Gebn1dBvPeW/Ne6poQHR3Ndg7l5eVZzNziIjc312ot2XwTvnPnHO8ukJ6ejtJS+2OSk5OT7S64YU6hUFiMC3Z2FIU11muYdbkPD3FE8+cpqBOsT8l6HOluXOZ1+2EpXxenGtKhQweLGuL777+Pu3fv2jz+l19+sZirPmnSpFrb6QOYlrpr0KAB+3zEiBE4cuSIw/Oys7Px4Ycf2pxtZD5/fvfu3Q4DhSu1aNEC0dHR7PNVq1Zh6dKlDu8WNBoNYmJi0Lp1a6s97ebjcpOTk21eTLVaLTZu3Ig2bdo4HIIVExODLl26IDEx0e5xgGn2lvl3kes4YXusB8xG/LYpFX29DExZCa9p1giDAQ82fQLwOIRC1vDx3y0wJiaGnbmTnp6Ozp0745tvvmE7EgDTWMv58+fjtddeY2sI4eHhmDFjRo2UmSuFQoEdO3awQb2oqAh9+/bFsGHDsH//fuTk5AAw9cjeunUL27dvx8iRIxEcHIwVK1ZAr7c+KaFv377s48zMTAwePBinT59GdnY20tLScPz4ccyePdtiXyZXWrt2LTvHHwDmzZuHjh07YuvWrbh9+zb0ej0MBgMyMjJw6NAhTJkyBcHBwXjvvfdsDlofMmSIxZoCo0aNwuLFi3HmzBlcvXoVJ0+exMcff4zQ0FBMnDiR82372bNnERERga5du2Lz5s2VpmUWFBRgy5Yt6NOnD9tz3r17d6vrtzrLaqePrGkrXrebNeTnoHDjQvj+cwUv6dWU4u83QHfrf7ylJ3JTQdbU8Uo9tV3r1q2xbds2jBkzBlqtFpmZmXj99dcxfvx4BAYGQq/XIzs722LYR3BwMGJjY3lbgd2Vunbtil27duH1119HcXExjEYjYmNjERsbCwDszBNn9O7dG507d2ZrSseOHbO6AMikSZMEWcU9ICAABw4cwODBg5GSkgIAOH/+PN588032GGc/p7+/P+bMmcOuLlRaWsr2alsTGRmJ06dPcx4XeurUKZw6dQqAacxlYGAg8vPz2aX7KoSEhNhdx9QZVmuYIqkM8pYv8JJBBXXCIZQd2MlrmkLSXPodJT/zuxeOvNULgES4dQRdadiwYTh06BBCQ0PZ1zQaDdLS0pCZmWkRLAcMGIDTp0/X2t5xa6KionD+/HlERUVVGgxuLYjI5XJERkbik08+sZqeWCxGbGws2rdv75LyVkVYWBjOnTuHDz74wOokBGufs2PHjli1apXNcZhz587Fe++9ZzffOnXqYMuWLdi7d6/DYT9jxozB8OHDKx2nVqtx9+7dSsFy6NChSEhIQKNG/HQmixgbl4yS3V/x32EjkcJ/8VbIw57jN10XM2SlIW/OaIczlpzlNfYDuA9+0/GBj/jll1/YVVuaNGlisepOVR04cIAdWtK2bdsqt/fodDr8/PPP2Lt3L7vnjUwmQ1BQEF566SW89tprnDp5srKyLNq8uAx1+emnn9hb2C5duuDZZ5+1e3xKSgq7eIO3tzeGDx/uMA/AtGXxwYMHcerUKdy7dw/5+fmQSCTw9fVFq1at0KlTJwwaNIjT+FKj0Yi4uDgcPHgQqamp0Gq1CAgIQEhICF544QUMHTrUIjhs2bKFvfgMGDDA4aD4ilXuK4waNYrTjKyCggLEx8fjt99+w/Xr15Gfnw+NRgNfX1+EhISgffv2iIyMRNOmTR2mBZi29vjyyy/x+++/s3PrmzZtiqioKIwaNYqdEPDdd9+xTTk9e/a0mX5BQQHi4uJw9uxZJCcno7CwEKWlpfDx8UGDBg3QoUMHDBs2jLcZPhVsBkxdajLyZo7gNTMAkATWQ8CyXRB71c7Byo8yFt5H3twxMGTzvwp9wGffPxG35IQ8LWwGTDAMcib2hSHH8VqFTmeqcLM5g6a2YXRaMBo17+lK6jRA4Pp4wMn5z4SQmmO7AU0kgvLlSJTExtg8pKoYjdolQehxonx5IAVLQh4zdpcyUXaLpB+1iyhfrt4ULUKI8OwGTGndxpA1byNUWZ4a8rDnIX3MZ/gQ8jRyOKbFvc9wFF5L4jVT7wkLoWjTyfGBtYDm8lk82MBtoy6uVH2iHR9ECKl1HAZM5csDUfJjDPRZtqe7OUviEwBJnQaOD6wFJOk3+U2vTgMoX+rPa5qEEGE4Xo5ZLIb7oNcFKMrTwSPqrcd6/UtCnmacdgxS9vgHJH6OdwMk9kn860DZzfGe4ISQ2olTwBTJ5PCItr+XNXHMY/jEx2b8KSGkMs57Uqp6DXnspjTWJrJmz0LV4x81XQxCSDVw38RXJIb3uwuo/a0qxGJ4vzcfELl2z2RCiGs59QuWNm4O9778zy9/0rn3GwVZiPC7YRJC+GV7LrkNjKYceTNHQp+e6qoyPVGk9Roj4LPvIarGVrqEkNrB6XtEkUIJ3xkrIFJUb7vKp4FIpoDPP1dSsCTkCVGlRjVpw2bwemsO32V54niN/wiyYH7X4yOE1JwqL/et6jkEuqsXUHZ8N5/lAQCIlO5w78ttMdfqKj34A5hy/vcbUvWIol5xQp4wTrdhWjAaUbB8OtRnj/NYJNO4z6Cd51zfq8wwyBrZAYyO332hFe1eht+sNTSigJAnTPUiklgMn2nLeB+fyei0MORb34mOT4b8HN6DpTzsOfj+cyUFS0KeQNWuwokUbvCdsw5SnreL1fBcaxUiD2nDZvCdu546xAh5QvFyzyv29IH/4q8hax7OR3IAgLITcUA1WgscYhhTHjyRNQ+H/+KvIfbw5i1NQkjtwlsjodjTB/6LvoTiha68pKdLvYKyE3t4ScuasuO7oUu9wktaivDO8F+wGWJPH17SI4TUTrz2qogUbvCbvQbKboN5Sa9462cw5EIgav0AAAKQSURBVNzjJS1zhux0FG9bwUtayu6D4ffRRhprSchToHq95HaUn9yLB5sXV3uzM0lAEPwXfQVJUENeymXIy8T9j9+sdiAWyRTw/L9pcB8whpdyEUJqP5cFTADQ3bqKwlUzoM+4U610JH6B8J68BIrwztVKR5OUiAdr58GQn1OtdKT1GsPnnytpUDohTxmXBkwAYMpLUbRtBcqO/gwwxqonJBJB9epQeLz2DiQBdZ061ZCXiZLYzSg7+lP1OpJEYqh6DYHX6zPoFpyQp5DLA2YF3bUkPNj8KXS3/le9hCQSKCN6wy2iN+St29vsaDEWF0KbfB7qM4dRfuYwYDBUK1tZSEt4j/8IslD+RgIQQh4vggVMAIDRiNKDu1Dyw0YYiwurn55IDGndRhD7+EPs5WfKoigfxsL70GferV6N9m9iL194DHvPtKydmNazJORpJmzA/BujKUfZ0Z9QGvd1tdsTXUXs7QdVn+HwiBwLkcqjpotDCKkFaiRgVmB0GpQf243S+B3Q37tVU8WwIK0fAvf+o6DsGQWRTFHTxSGE1CI1GjDN6dNuoPzXfSg7Hgfjg3xB8xZ7eMEtojeUr0RC3qItIBIJmj8h5PFQawImy6CH5vJZaJN+h+byWehuXgGM1W+LtCAWQ9akFRRtOkLephMUz3YEJFVe6Y4Q8pSofQHzEUxZCTRXzkN/5zr0Gbehv3cbhoxbMJYWczpf7O4JSb0QSOsHQ1ovGNLGzaFo1Z7aJQkhTqv1AdMWpqwExtIiMOoyMOoyGMvLAABipQoiN9N/YncvCoyEEN48tgGTEEKERgMLCSGEIwqYhBDCEQVMQgjhiAImIYRwRAGTEEI4ooBJCCEcUcAkhBCOKGASQghH/w9dGkO9aylCTAAAAABJRU5ErkJggg==;" vertex="1" parent="1">
          <mxGeometry x="570" y="293.52" width="160.26" height="56.48" as="geometry" />
        </mxCell>
        <mxCell id="QUJFFLUGVoSj-1alCTjn-65" style="edgeStyle=orthogonalEdgeStyle;curved=1;rounded=0;orthogonalLoop=1;jettySize=auto;html=1;exitX=0;exitY=0.5;exitDx=0;exitDy=0;entryX=0.156;entryY=0.982;entryDx=0;entryDy=0;entryPerimeter=0;startArrow=classic;startFill=1;" edge="1" parent="1" source="QUJFFLUGVoSj-1alCTjn-13" target="QUJFFLUGVoSj-1alCTjn-5">
          <mxGeometry relative="1" as="geometry" />
        </mxCell>
        <mxCell id="QUJFFLUGVoSj-1alCTjn-13" value="" style="shape=image;verticalLabelPosition=bottom;labelBackgroundColor=default;verticalAlign=top;aspect=fixed;imageAspect=0;image=data:image/png,iVBORw0KGgoAAAANSUhEUgAAARgAAABlCAYAAACWRfwnAAAgAElEQVR4nO2deXhN1/rHv3uffabMhCTUkKBiJkIIveVyW6qGqhr660VLB0VvW7S0WkrRAaG3vdrSW6WmVlCqqHmIIYkhCaFEIiExZJLx5Ax77/X7Ixc5zjk5e++cEwnr8zzneZy193rXu4+T96z1rvd9F0MIIaBQKBQ3wD5oBSgUysMLNTAUCsVt1H4DQ0RAEB60FhQKxQ612sDw52NRMnUAiif0gHnnKkCkhoZCqUkwtdLJK/Aw/vw5zHvXAxXUVz3eCfrX54Ft2OwBKkehUO5Q6wwMMZai7N9TwCcesXud0eqhn7QQXHifataMQqHcT60yMMRQDMO8sRAy/qr8RlYF/RsLoH5iUPUoRqFQ7FJ7fDAWMwyLJjo3LgAgCihbPtPhLIdCoVQPtcbAGNcvgnDxlPQOAo+yb6ZBzL/lPqUoFEql1AoDwyfHwrx7rex+xFAM44+fuEEjCoUihZpvYIgI4+oFVrtFcuDPHIJw8bSLlaJQKFKo8QaGP7UfYmZKlWSYtv/XRdpQKBQ51PhdJMOSt8Cf3Fc1IQwDNqAR2MdaQNXocbBNWoJrFQ6mTmCl3UhRPoTUJAipZyFmpUIsygdMZWD86kE/eTEYnUfV9KJQHnJqpIERr6eBP30AfGIM+Isn3ZYKwAY2BtemO7iu/wDXtjvAqQFBgCV2FywHN4E/H1eeimAH3YvToBk4zi16USgPCzXGwBBDMSyHt8By+DdpW9EuhvHwBte5N4Qr5yFmpTq9n60bCK+lewAVVw3aUSi1kwduYMRb12A5sBHmfb+AGIofpCqy8Zi+HFyHJx60GhRKjUXZzy8RIWalQUg/DzH7GsSc6yC3s+8tJwQBjLcfmLqBYP0bgA1qClXzDmB8/e+JKMiBMfprWA5tqbVJinzyCWpgKJRKkGxgSEkBLHG7y7d9L8SDlJXIHoxt1ALqsN6AWgvzjpUgRoNsGTUJKUspCuVRRpKB4U/uheGbaYDFXKXBxMzLMGVerpKMmgQprV1LOgqlupEUByPm3aqycXkoUaketAYUSo1GWqCdYHGzGrUTVYOQB60ChVKjkeaDEe3HgjxoGJ+6UAW3AdvocbBBTcD6NwBTNxCMpy8YnQcYT5/yG81GEEMxSGkRxLwbELMzIWamQLh4GkLmZcVOZmIoKk9hYBgXPhWF8vAgycAw3n7u1kMaag24tt3BhfcB17orWKkzCI0OjEYHxq8+2MeaW10iZSUQUhIgXDgJy/E/IOZkSVbHcmIXoNFD/9pcgKXLJQrlfiTFwfDnjsPw2fjq0McuqhYdoek7AlyXf4Dx8HbfQIRA+OskzEe2go/bLXmnTN39Gegnfkl9MhTKfUgyMOLNDJRMfaY69LFC1bordMPfhiq0c7WPTcpKYN65GuadqyQFAGqe+j/oXv6oGjSjUGoP0iJ5RQHFb/Sotkhbtn4j6F75GFzHv1XLeJVBDMUw71wF846fnMbt6F6ZBc0/RlWTZhRKzUfaLhKrgio03M2qlKPp9xI8v9haI4wLUJ6jpB02GZ6fby1PiKwE4+oF4JNjq0kzCqXmI7keDNe2mzv1KD8NYPIi6MbMBKPVu3UsJbD1H4PHB/+FbtwnYPRe9m8SeJR9MxWkpKB6laNQaiiSDYy6e3+37ZQwXn7w+GgV1JED3CLfZTAMNH1HwHN+NNhGj9u9hRTlw7jmi2pWjEKpmUg2MEydQHDtIl2uAONTF54fr4KqWTuXy3YXbGATeM5Z53AZZzmyFXxSTDVrRaHUPGSVzNT0H+Pa0TU6eExd5nA2UJNhdJ7wmPofqCOetnvd+NM8emY25ZFHdj2Y0k9GQkg965LB9ZMWQ929+re/XYrAw/DV2+DPHLC5pH/jM6ifGPIAlLpHfn4+4uNP4tKlS7hx/QZKSkogCAL8/HxRp04dBAYGolNYGNq2bQOWrfElmim1DNkGRrh0CqULRiuu8n8Hda8XoB/3aZVk1Bh4MwxRE8AnH7dqZhs0g9dnvwNM9f7hlpaWYutvW3Hw4CGkpqZCyn+xt7c3IiIiMGLkcDz+eO2bUVJqJooq2hl/mg3LwV8VD8rWbwyPT39zX9FsQYCQngzhShJI9jWIhTmAoQTQ6svH1OrB+tQD+1gLsI1bgQ1oVGUjQEqLYJgzHGL2Vat2/b++Ade5b5VkS6WkpAQbN0Zjy+YtKCmRX68HABiGQUREBMa+PAatWrVysYY1i8TERBw6eAjJycnIz78Ns9m2YsC48a9gyJAHOwutzSgrmWk2onTeCIiZlxQNqp/8NbjOTynq6whiNoI/vg386T0QLp0CMUkvZsVo9VC17Qku/GlwHXuD8fBRpIN47SIM80eCmI1327jwp6Cf9LUieXK4ePEi5s75FDdu3HCJPIZhMHToUEx48w1w3MNVdzgzMwtffvElzp07V+l93t7eWL9hHTw86OkRSlFck9e8/VuYfvtKdj9Vq27wmLZKyZB2IYW5MO9dBcvhX0FKC6sukFOD69QX2gGvg23SRnZ3y8H1MK6ZU0GeBl5RMYqNlhQ2RW/C998vB8/zdq83btwYXbt2ReMmjeDvXw96nQ75t28jLy8PSYlJOH36tN1fbwAIDQ3Flwu/gLe3G3PAqpHU1FRMnTINRUVFTu8dM2Y0Xn7l5WrQ6uFF8U+TJf53gJVvm7SDJikd0hpCYInZCNOmheVlEwDXHCMnmsGf3gn+zC5w7XpBM3ASVCEdJHdX9xoJS/wfEFLi/yfPBD7pANTd3TPNjt4YjWXLvrVp5zgOTz31FEa9OBKNGzd22H/UqJEwmUw4cOAg1q9bj2vXrlldb9u27UNjXCwWC+Z8MteuceE4DvXr17/7Xq1W4/lhz1eneg8limYwYtYllH46UPZgqpCO8Ji+UXa/+yFFuSj74R0Il+KqLMspDAtN37HQDnkXUOskdRFvXSn/fPjyQl3qnsOhGz3f5art2vUnFn650MaJ26pVK3z08Uw0bNhQljwiEvy5eze+XfYtiouL0advH8z88EMw7MNR72bHjp1YtHCRVVtQUBD+9fZb6Nq1K1Q0G97lcAAgiqKsLUr+3AFFswV175fkd7oPMScDZd+Mh5hztZoOvhVh3r8SfPJB6MZ+CVVwR6c92MAQaHq9CPOB1QAAITXe5VpdvnwZUYujbIzLoMGD8NZbkxX5TRiWQf/+/dC1axds3boNY8aMfmiMCwAcjbEOftRqtfj8i8/QpEmTB6TRww8LAGfPnkVWVhZEiZXrhOT9YFgi68XqdOA62Q9Kk4p48zLKokaC5GXIHr+qL5KThrKvXgKftEeSrpr+E8BoteV989IBwb5/RAmEECxeFGXjc+nfvx/eeeftKjtl/f39MW7cKw+dczcr67rV+w4dOlDj4mY4AOB5Hjdv3oRGo7Fah9qDGEsgXE2UPXtQdegLRqvcG0/KimBc8SZIaZ7zsRkWbKPWYAObgw0IATgNwFtA8jMh5l2DmHkepExB6QnBBOOPb0E7ci7UkSMqV8G7HtTdhsBy7BcABKSsCIxXXflj2uHIkSO4ePGiVVtoq1BMnTYVzENYvrO0tBT5+fnQ6/Xw8/NTbPhKS0ut3gcEVP5dl4ogCCgoKIDBYICPjw98fX1dItceJSUluH37NrRaLXx9faHVal0qnxCC27dvo7S0FF5eXvDz9avSLPbu/5RGo4GXl4Ms4QqImecB8LINDNemCuUXCIFpzTSIeVcqHZf1bwz138eD6/A0GJ8AxzeKAoSrSRCSdsMSGw1SeluGMjxMv84EGAbq7sMrvVPdazQsJzaUP4KxxGUGZtOmzVbvGYbBO++8/cB8CCuWr8DBg4fuvv/q30uh0+lwYP8BJCYl4cb1GyguLoZwX+rEnLmfoEWLFjbycnNzcejQYRw7egznz5+HyWSyut6sWQi6dOmCfv37ISSkvGzq5s2bsSn63ufy8stj8dTTlYdCHDhwEKdPn7F7LSgoCIujFtm9BgAJCYk4GhODEydicf36daulqlarRadOnRAZ2R1P93saOl257+7NCROtHMxr162xkimKIkb/8146TmhoKGbN/hjp6enY+ts2xMXF4saNm3evMwyDFi2aIzIyEs8NfQ5+fspK26akpODQocM4fuw4rl69avX/xHEc2rVvh24REXhmwDPw8SnfDZ096xNcvnzvCKIlS6MQEGD7N8cBQMuWLeHl5SXp10/MOqfI96FqpfwERD5pF/gL+x2Oy2j00AycDnXkKGlnRbMqqILDoAoOg2bAu7DEb4Z55xKQkjyJGhGYNs8GG9QCquAwx8M0CAXbuA3ErPOA6JolUm5uLs6dtY7fiIyMRGhoqEvkK6GgoNAq/ua337Ziy+YtKCsrc9indevWNsaluLgY69atx5bNWxxumwNAWtoVpKVdwcaN0ej5RE9MnjwZxcUlVjrcP1uxh8FggMFgP15KpbL/ZUtOTsZ3336P5ORkh3JNJhNiY2MRGxuLlSt/wksv/R+GDRuGW7duoaDAcSkPQojVM3h6emJJ1BJs3/6H3WhsQghSUi4jJeUyfvnlV4wZMxqjRo2SPOPIyMjA8uUrcPzYcYf38DyPhDMJSDiTgNWrf8bQ54di7NgxyMvLs9LVUYgEB0DWNqSQeQ5g5G08MXUaVj6jqHRAHuYdCx2OyQY0h+6Vb8EGNLd73SmcBurIUeDCnoV522ewxP4iUS8TjKsmwuPd38D4BDoWHzYA5uvJLjMwp06dtvmy9enbxyWyXcW6teuc3vPi/71o9T41NRUffjATOTk5kschhCDmSAwSExLRvIXC/38ZY61e/TNWr1otKfXiDoWFhVi27FvExcVXajTtcfnyZatZQmWYTCasWPEDLly4gFmzZzldRu7auQtRUUscGgZ7lJWVYd3adYiPi5ccKS5vMStYIN76S77/5bHW8jpUgE/4HWJ+ht0x2YAW0E9YA8a76mtpRucN7YgFYIM7wbRlNsA7/zKQkmyYNn0M3SvLHd7DdXoW5j1fASp1lXUEgLRU2+Nqu3RxXm2QEKI4feB+OI6DXq+8KFjjxo3Rs0ePu+8TEhLx0cyPKplNqODn54fS0lIYjUab68XFxUg4kyBbj3r16qFpU/tO3nr16t39NyEECxcuwq6duxzK0ul08PT0REFBgc1SEABOnjwpWz97cBwHX19fh59FTMxRLF2yFNPem+ZQxpqf1+DHH1c6vK7VauHl5YXCwkK7BiglJUW6vpLuEgVYYtfDcvBbkIIbstN22CDbdbZU+MTfwdgJ6GM0HtCNW+4S41IRdcQIsB6+MK6dLOm8JOGvvRAuH4OqRQ+719m6jeE194zkGBpn5OVZL+P0ev3ddXFlWCwWDBn8nEt0iOwRifnz50m6t1fvXnj22QFo1qwZ1OpyI6vRaO5O43NzczF3zlwb48JxHPr1exr9+vdD69at7/qXCgoKcOzYcURvjEZ6enqVnqNbtwhMnTbV6X3R0ZvsGpcGDYIwfPhw9OjZ467/gYgEKZdTsH/ffmzdus3Gf6SU4OBgvDLuZURERECr1f5veZSC9es34FAF/xdQHu/z9z59EB5uWyz/6NGjWLnyJ5t2Pz8/DHthGJ588m9WgZkZGRk4fOgwoqM3obhY/saIUwMjZibBtGk6xJv/27VQ4H9hfOo5v8kOxFAAIS3G7pjqZz8A699UkVxnqNr1g3boXJi2zJR0v3nHfOgnb3Nc8c9FxgUAjEbrL6w7dyyqAsuy+ODDGejbt/JEzy+/WGjjl2jYsCE+mTPbrgPYz88PAwY8g/79+2HNmrVY9dMqWUsWuaSnp2PF8hU27QMHDsTktyZBo9FYtTMsg5YtW6Jly5Z4ftjzmPXxbFy6pCxn7w7h4Z0xb/48qx0jhikfZ/bsWfi11a/47rvvrfqsXbPGxsAUFRXhi8+/tPm8IntEYsaM6XZdJU2bNsXoMaPx3NDnMH/+AsTFygtudWwuCIHl2EqULX8BYvZf5WkBCl+MtzIDI95IBojFVl7dhlB3HalIplS4iBehavsPSc8n3joPPtnx9NmV6HTW25KVOQ3dhaeE5L+RI0c4NS4pKSk2Swd/f39ELVls17hUhGVZjBkzGq+9/ppzhavAxl+jbZYJgwYNxJSp79oYl/sJCAjAkqVRCA4OVjy+Xq/HhzM/rHQ7esTIEejSpYtVW2Jiks134/fft9sskyO6RWDu3DlO/bDe3t6YP38ewiUsxytifwbDm2CKfhd88s7y91WMmGU0yuJfxNxU+7OXCIm7RVVEO2QeDGkxgMXxbsgd+JPrwLV/1u06VfQNAIDRaERxcbHTL4hKpcKLL8o/UuVWdjb279tfqQ72GPKc8+XYtm2/27RNnDTR7nanI0aOHIGYmBicTz4vuY9UDAYD9u7da9UWEBCAiZMmSpah1+sx44PpmPDGm4p06Nq1K+rUqeP0vv79+1kZa0IIrl69arV1vW3rNhvd3ntvmuTwBpVKhRkzpuOfL42WvPSz/Su1GGFc/xqE1COuC8UnCs9+Lsyym1Cpatm7qhpJgvEOgDr8BVjiVju9V8g4DlKcDcZb4W6ZREKaNbNpO3XqFHr3rvwzUalUin7tN2z4xcbAOJtdaLVaSUFsF/+yDhb09/dHr15PytKvvKzEc24xMKmpabBYLFZtzwx4RnZwW8uWLdGuXTun5SHsERgo7fsUFBRk05afn3/333l5eTY7dE8++Tf4+/vL0sff3x9P9noSe3ZLi2i3NiGCBcb14yFc+Z9xcdGLlMkJZKuAaLGVp9aADVK+KyUXrtsYac/JiBBS9rldn7CwTjZtBw8csnOnazh0yFo2wzDoZEeHikiJtBVFERkZGVZtoaGhisp2tm7tnu9D+pUrNm1t2igbq1VrZcW7WImzC9ZO3I4o3Ev9SU/PsLnepo38ciQA0FpGITIrrcx/fgIxI8b1eTyF1xyNXymMzsM2p8m7LsBUX8QqW68F2DoNJT2nmHnK7foEBASgTVvrL0ZMTAzS0mz/GKpKfHy8zSyjY6eOqFu36hHJPM/bzA50emXOcHcVhCqzsw2sdHteit/KnRiNtsv8OxHGcvHwlP4sdw0Mn7QR/Jk1Lp253HmJBbbWU5JyAaG28izVc3xtRVTB3aU9582katHn/hKOoijim6+/BhFdt5tSVlaGZf9ZZtM+dKhrtro1Go2NYbhZIQxeDjdvKuvnjDp2Qu9vXFdWMfCGwmdzFfbSCG4o/NzkPAsLAKToOix7Z1dpp6jSXZbryn7Z2cfCbGQRSwlIaa4ieUph/JtKe84iZYZULn379kHTptZb9AkJiVi2zNYgKIGIBIsXLUZGhnV94U5hnfDEE8pTPu7n/uLiFy5cQHa29EjeOxyNOeoqlaxobsfXdOTIEdlyLBYL4uNdX7JDDiEhITZL18OHDiuSdezoMcn3sgBg3jMLxFwCMHDLixRngRTIXyYxvo3A+je/Tx6BcMV9Pge7emi9pT0rXwZYpNcCVgrLspgydYpN7timTZuxYsUPkstu2IPneSxY8Bn277c+hkWj0WDKlHddmq3do6d1cCIhBD+ssI05qYzr169jy5bfXKZTRUJCgtGgQQOrtqNHj+HsWXnO2nVr1+H2bYV+SBfh4eGBjp2saxmlpaVh7155fsPdu3fLiuRlAUBI/dNts5c7LyF1t6wHuQPX9RUbWfypHwC4L7jqfohgkvycRMKWtito374dJk603fpcv2493pv2PrKzs2XLTEtLw1uT/4V9+2y/dJMmT0KjRo0U6eqI/v37wdPT06pt79592LBBWj5YQUEBZkyf4TDFoKowDINhL1iXzSSEYN6n83D16lUHvazZs3sPVq/+2R3qyeaFF4bZtC1dslSywUw4k4DFi6JkjckC5Sd2uPslJEfLUuwOXLsXwPoEWskiOefAJzlPqHMZhmzJz+mu87vtMeyFYRg+/AWb9jNnzuCfL41G1OIlkpy/F/+6iM8WfIYJb7xpU2cGAF577VUMGiS/RKozvL29MX78OJv25d8vx7x585Gb63gpvH/ffrw6/jVkZma5XK+KDB48+G5JiDvk5OTgrcn/wh9/7HA4WywuLsbiRYvx+edfuDXSWA7dunVD9+7drdoMBgPef+99rFu7zmEypslkwg8//Bfvvz/dxjHvjPJFmZ1YE1cj5p6FeCsJbKD0AtoAALUH1P0Xw7z5n6g4a7EcnA22XkuwDbu6VlE7kILLkj8jRl29uwUTJkyAVqvF2rXrrL7IPM9j+/bt2L59O+rXr4+OHTsgMDAQfv8L2iosLERWZiaSks7a5DfdQaVSYdz4cYoC9KQy5LkhSExKssmn2b9vPw4dPITw8M5o3bo1/Ov5g7fwuJKejtgTJxT5apTAcRw+mTMbkyZOtoqCvWNAVv64EpE9IhHctCm0Oi2Ki0uQmJCAhIRE2dnT1cH0Ge9j4psTrRy1dwzIhg2/ILJHJJqFhMDTyxNlZUYkn0tGfHx8paU3KoMDADaoA8Rs9++A8LFLoRn8o+x+quBe4CLeBH+yghNTNMK05SVo+n8NVfN+LtTyPogIMVtiBT+VGoQ3glFVHkLuShiWwbjx49AprBPmz1tgd62fk5Mje60dEBCAmTM/RPsO7V2lql0YhsHMmR+CiASHD1s7HQVBQFxcPOLinDtIWZatku+pMho3boyFi77EBzM+tAm/z8/Pxx/b/5Akx506SsXX1xdRS6Lw3rT3bGZ/JSUl0gPoJD4LCwDa4RuhCunlfj9M+m6It+Sn1QOA+okPwXV+1VqmUArzH+Ng3vMOSHGmIrnOEG8lgJjypD0jMcP0ywCQAtfHpDijc+fO+OG/KzBo0MAq1dL19vbG2JfH4r8//uB243IHjuMw+5NZeP2N1xWVgHzq6acwZuwY5zdWgdDQUHz3/XcIC3NcYMwR3t7emD17FgIDHdcNqk4CAwOx7NtliuoIabVaTJo8yW7Apz3Kf5fVntAMWgWu29sAx0FunIv0F4Hl4HTFxZfUT86GuvengFprJVe4uBHGn3vCvGM8hL82guRfujcGb4R48zT4uCgYf+4J45onZI0vXNwk6xlJ0RWYtr0IUlr9cQ916tTBu1PexfoN6zD25bGSk+w4jkOHDh0wadJEbPhlPcaOHWPjfHU3DMNg1KiR+GnVSgweMthpQBvDMAjvEo4lS6PwwQczqlSfRioBAfWxOGoR5n46F23btnW6o+bt7Y0RI0fg5zWr0at3L7frJwcvLy989NFMLP1qCSK6RTiNoNbpdHj22QFYtfonDBv2PCBxN9HmXCTx1mmY970NUmBb2MhVqLvNABf+L8X9xbwLsBybA/Gak318lrMxJqoWg6F5+luU7ys7wVIK488RIEb5W4xsvTbQDtsBVONyyR55eXk4dy4ZmZmZyMnJQVlZGRgw8PDQIyAwEMHBTdGxY8cq/YEmJiZaHdjGcWr071+1ZavZbEbCmQRcuHABmZlZKCsrAwFBUFAQWrRojvDwcKukyLS0Kzh//l4Zy3bt2tkY2D179sJkuhed26RJE3ToINMnWIHs7BzEx8fjStoV5OXnwVBqgJ+fLwKDgtC+fTt07NjRKuN6//4DMBjulfIcONDacU5Egj92WC+3mjdvLikVoqCgADH3HcvSuXNnyWdjFRYWIi4uHqmpqci+lQ1DmQGeHh4IDAxE23ZtERYWZhUYeeLECSsnfJ8+fexGVNs/eI0vA3/2BwgJ/wExOT9iUzasGppn14F9rGeVxIg34yCcXwsh/U/AXImejAps497gOk6QNSZ/Kgp8vOPCz87gOr8NLmK64v4USm2n0pMdiakQQuIyCBdWgZhccO5zxYF1daEZuguMt+NjTSUjmCHmJYPknQMpyQIxFwNEAOMRAMavJdgG3cHo5dWkIYabMP36JGCuQmoCp4N25HEwnraZrhTKo4C0o2MFE4S0bRAurod4M05x+QWbwX2CoRm4CYynvCNO3Q+BeceLELOqHjHMhb0DrgudxVAeTWSfTU1MBRAz90O8FQeSmwBSlA5iUl5VjfEJhuaZaDBero0SrQp84r/Bn1zgElmMZ0NoR512iSwKpbYh28DYw3J0CoRLyiNrGV1dqHuvANugaj4ZVyBc/hWWI2/DlakI2uePgvF177EaFEpNRH51Hzuou30KxldaxrHd/B1zHsx7R4I/vxwgDy4QSbi0BpZj7wCs6LLYH0bnAyK4PwGSQqmJuGQGAwBiTjwsu4eWV6GrAmxAN3A9loLxti0N6TaIAP7kbAh/ycvkrRSGhar5KHCRS1wnk0KpZbjMwACAcHk1+FjHBz5JhtVA9fhYqNpPAaOVVzNULuT2OVhip4DkKYswvh9GWwdsk8FQhb4KxvfBHedKodQEXGpgAIA/PQvCxe9cI0ztBVWzl6BqMRaMj/LD2+xBDFkQLnwDIWUVQJRFFrOBfwPjHQKwGjA+j4Op0w6sf+dqLelJodRkXG5gQARYTkyAeNWVRYAYsAE9wTYaCPaxfmA8FO44EQFiznGI6b9CyNgEiMqzXdnAXlD32gAw7j8+hUKprbjewAAA4WGJfRPiNfdUGmN8WoGt2wlM3TAwPqFg9A3BeDwGsBXC8okIYsoFDFkQ80+D3E6AeHM/iFF+ISab8b0fh6bvTkBdM09VpFBqCu4xMADAl8C8rbnLgvIkwXmV5x8BgKXIPTtSmrpQ//1PMF4hzu+lUB5x3Da/F3NiAPCScgpdhlAMVLRnrh5bUxfqnhuocaFQJOI+A3PrTxdF2dQMGH1DcD2iwXjTnSEKRSpuMzCk8HS1lOKsDhivx8FFRoPRuyAxk0J5hHCfgSlLfyhmMGyjkeDaLQK46i3ARKE8DLjHwFgKAbGodhsYjT+49l+BDXz2QWtCodRa3DSDIeVHeNRiVMGvU+NCoVQR9xgYRlX7/S/aqh/wTqE86rjHwHDegNoTEEqd31tDYXykVU2nUCiOcZuTl/EMBimRd4avVX+vtmADh0MsOA5SEFO9xoTFUCQAAAGlSURBVIrzBeMj/3gKCoVijfsMjG84iEGBgdEEQtV0KtiG4wGGA9v0XYDwIKUXQEqTQUrOg5SeBYxXQcy3AL4KNXMdwNZ7iiYsUiguwG2pAmJONIQLtucOO1TEsz3Yhq+CDRwFsDKO0BBNIJZcwJKLu1XoLLfB//UqYFF2vCjXaS8YnwhFfSkUyj3cl4sklIKPbeF4acPqwHiFganTB0y9wWA8nJ/9IgdSehZC0kCAl3emEVO3H1RtN7pUFwrlUcV9BsYBJDca0IWA8WwPMO49lIwY0yBeHAtSIrGYFKuHqtMxMHrX1p6hUB5Vqt3AVDuiCWLWlxCvfwOIldfGZZt/AzZgbDUpRqE8/Dz8BuYO5usQb3wFMWcNINgeIscGjAMb8u8HoBiF8vDy6BiYO4gGkMJ9IEX7QAr3gJgywNQdBlWzH+nOEYXiYh49A2ODgPKkqeosXEOhPBrQgrKgsxYKxV3U8pRECoVSk6EGhkKhuA1qYCgUittgAeDs2bMPWg8KhfIQwgKA2az8ADIKhUJxBF0iUSgUt0ENDIVCcRvUwFAoFLfx/8ckb46CymRFAAAAAElFTkSuQmCC;" vertex="1" parent="1">
          <mxGeometry x="630" y="380" width="110.89" height="40" as="geometry" />
        </mxCell>
        <mxCell id="QUJFFLUGVoSj-1alCTjn-61" value="" style="group" vertex="1" connectable="0" parent="1">
          <mxGeometry x="90" y="210" width="380" height="140" as="geometry" />
        </mxCell>
        <mxCell id="QUJFFLUGVoSj-1alCTjn-2" value="" style="rounded=1;whiteSpace=wrap;html=1;fillColor=#e1d5e7;strokeColor=#9673a6;" vertex="1" parent="QUJFFLUGVoSj-1alCTjn-61">
          <mxGeometry width="380" height="140" as="geometry" />
        </mxCell>
        <mxCell id="QUJFFLUGVoSj-1alCTjn-7" value="" style="shape=image;verticalLabelPosition=bottom;labelBackgroundColor=default;verticalAlign=top;aspect=fixed;imageAspect=0;image=data:image/png,iVBORw0KGgoAAAANSUhEUgAAAOEAAADhCAYAAAA+s9J6AAAgAElEQVR4nO2de3wU1fn/P7Oz2c1uErKBBHLhLgHlHiHRqrFqwXpBrBf69dJoFRW+/PBSi6JWKq31greqtFSxfq2mVSviBcFS8VJFUW4BRLAQTDRACCTAhmwuu5nN/P6Ynd0zZ87M3lmSnPfrta/szpyZeWZynjnPec5zniPIsiyDw+GkDEuqBeBwejtcCTmcFMOVkMNJMVwJOZwUw5WQw0kxXAk5nBTDlZDDSTFcCTmcFMOVkMNJMVwJOZwUw5WQw0kxXAk5nBTDlZDDSTFcCTmcFMOVkMNJMVwJOZwUw5WQw0kxXAk5nBTDlZDDSTFcCTmcFMOVkMNJMVwJOZwUw5WQw0kx1lQL0N15uWo5ijL6IyM9AxY/cKjjCHIz+qK1oxXtfi/zmHSrHf0z+mm29bFn4pjXE9W1O7wdONRxBADQP70vACDLkQkA+O5oHU7KGQxHWjoaWpvQ1HoEg7MLo729oGxGHDrWhK/qt+KcYadjQtHomM7f2+FKGAe1TXVYvm0VtjTXwGFJQ3tXJxyWNE0Zo22JQj03fU5VHqPfiWbFt2vw0c2vJe38PRmBZ+COjXp3AyqW/QoHO9xwWu0AAFkI7RdkADKAwDZ1n9ClbJMFfRmVYFmZ8VumjofxOQSD/yx9flo+meqkqNdVt9NyAUBDhxv3T7oRs8qvY1+UYwjvE8bIzoPVqDr2fVABAaUCqx9AW5kFOaSAalm6DAKVPVhWpo5Vywd+ywJ0CqhRdlJJESoflFGG9hqBc5H3oV43uJ1Q3GAZGcizZeGLvZvh8bZG9Pw4IbgSxsjU5bMxzJGr/CAqM90i0YoQ/M5ojSAEPjL1nThvsCWl/3OqAhNKE5SFlElgfOgWk9xHb2eVA2AVRHxyaBve2/ZvcKKDK2EMLF1biYHOPFgFUaMwQcVQzUWi5SMrLK1AsqA17WilofeZlVVOGPoEz622dCDKsM5B7wN1PYYJq5Jny8Jfty2Du60ZnMjhShglXsmHz/duQp4tS9lAV+AAwRaJhjI11bJB85IoFzQVqXOR5mloY+AwCzQtmcakpBSPvJ6ZYgt0S0+YzaTCWyHiaKcHOU+OM7h5DguuhFGyYutqfHJom9IKAhpzU9PPos05ejvDRAz2+2hT0aClovt1LGQLoZgUdP9OZzJrCuvl1XwPfKyCiIFZw7G+pspYKI4GroRR4G5rRuX2d0KtIKDvdwXMUtUMlOnKCugruEyUo1sYss/GUnDVDKYVUz0X6UwhWjGN8rJeGgKYCk7KyVR+GSiwuzBz1W/w5Q9cESOBK2EU/P7jZ/Hflr2wQgxuY5lxqqeR9EKSfTOWg0NQhwAYyqwqRHA/Y6iC7I+y+qEac5L4yAwnT1BW+niytWc5h1S5BcAnS9hcu4VRgEPDxwmjQHh4DEpzivUtFKVUrHE4Q7PS6DyM/pvG80m3blCUgul8YZ2XoZwaZ5JMlTFy3pBlqb/VbQfx/pV/xo+GnAqOMbwljJDn176C4sxA2BerpQmgVmSmMhiYb0bOneA1ZKq1k6lWSO1T0qYj3XKSslPHaoY3Attp76fuOFV++m9g3zBHLua//7DJSTgAV8KIWLZpBe7Z8Be40jL0fT2iP6dpraiKH3SQIFSWVJKg6YnQMaS5qDE7ie+ykTJA2xc0VGBWGeJ48vokGvkFaO8xcJxVENHQ2Yy5y+5jPFWOClfCMHi8rdhY/zWKbC4ARH+PYQIGTTmGB1QTpQLtOTT7KejrkU4bzTkpBxH9sjAKYSNbNM24JnFPGlmJ4Qn6nOQ9qHJlWtNR52lAbVOdgQAcroRhONbegheqV8GRZmeakwKjBWJ5P5XC0CgJcx/tuSTPQbdaAuM4Si7DYQyGl5Q2cWVaVuLaTC8p1SoCytjhluYabPp+KzhsuBKGoWhxGYY5coNxlUEopSM9m7T5ptlHt0y0Egna8uQ5SJNSo1wydOaueg3NOCFxD+o2cj/ZUpNDK7oWTwbb1FWfC9GqyhZlyOLnH/8OH+5aC44eroQmrK+pgstZpB2YJ1sNoiKSUSUs0xMI9et0Ckwpns50pE0/ug8WOK9msJ82GwnPJSmfehw5JKGboUHIwfqtHk/eBz3joiSzEFOXz6YfMQdcCU2p3Pym0hdkmJOA1gkR3B/4q2l9gFDrQBGsrFTECmkKko6ZUAFGP5L0ctJmI+3RJVtgSumC/Tra+UOek2oJBUoef5dfc59WQURxZiGWrq3UP4ReDldCA17b8Bbe3b9OmarEGCMLxnuqjhkZ2haI5TChTEINDEeOrmVVL0/3CanzkIoTtkUzOF6zycDjqlF6ObRNFgDRIuo8qpnWdHy+dxO8kg+cEFwJGXi8rVi/bxuyRQe7AGEOkpVS5x0F9A4R2vvI8DKSFVpzTvUUBp5UWml1rSQpD+tFENivaxUpJ47uvAby0fdlFUR81bQT81c8xOcdEvCIGQZf/lCFi978fyh2DFA2UA4ZsvXT7WfBcOpI8MPnlxIlckKxiVZYIWpeMixz2PBFA+jul/y9sWUv9t+yCoWu/ESK3W3hSkjhbmtGztOlKHWN1rZ0tMKxzEqyDNm/o8LJJNmPoVmFGJyRD8mfvLwvsWAV01DTvBc1ngNwinbtvQS+68LjENoOUI4gQKukAXN105GdkO/bnbwb6UbwRE8U969ahOLMIVpTENB7DVlDDpTTRq2MdC6XRm8L7j3lYsyYPD2p9xIrav6co50eWGVR+7JhtYiB7YD++Wi+E8cNdBZifU0VThvO40p5n5Dgyx+qsKFxJzKt6coGakBaF5JGDgFQMCsjFK/huf0nYPrECxItfsIodOVj+bXPYYunPvjyYYXF0WYoHVWjO4ZQ1GzRgRc2vJp44bshXAkJNtdugVtqDY0LBtBNjDUYUDeEqJS17U04a9Bk2K22hMmdDFzObFQMPAvuzlZ9mg6EvpMBBMyIHvqYAE6rHf9u2IQn1ixJvPDdDN4nDFDvbkDR0otRmjUofOEwDhmjeE13ZytuG38V5p4zM2Y5jydeyYf5Kx7Ch/s3aLLKaYjUOWUAd9LwljDIPe8/gjGO/qENDHMqOIAe5qnRKQtVqjuO4OKxUxMg7fHBbrXhzMGTsN/n1u80CGDQhb2p22hTNcAYR3/Mfe+BBEncPeFKiEDain2fK95AFbJy0YPSgDZsjQE9l8/d2YoFE67pdm/8GZOn4/ph56NN8uq8nExUK4CVXCqwn3yJOa12bDy8Cy9XLU+MwN0QroQA5q14UGkFqaEFDcSgNJko1wjSTS/Bj5OzBuGGSTNO+L4gi6snXoodLXVa76/RGKEaOcQKkyOLEcfn2bKwfNuqXjvdqdcr4fqaKnx9dI/S52F5AE3Q5I0httEV0eeX0N/RF8NyBydO8OPIacNPxYqfPYMD3oBZSniKNY4ZIDS0w/KiklFCRKibVejd0516tRK625qx6IvnFVMLMHxrM5EZLSJROcmKuKPlO/z1qicSKfpxp3xoKUqyh0OS/aFnRA7P0OOCjHFCCYGgbllfpsDWe6c79Wol/PuGN7Hx8C5jzx+gcyQEMYgGoT/uzlYsPmN+YgROIS5nNirG/QyNvpbQxig9osGhH4MA9tKsQZi6vHt4jhNJr1bCW9c9hTxblj4NPQnx1g8bI0khyX40dnq6lUfUjOkTL0Bpv1EhyyEcBh5RwPh5F2cO6XXTnXqtEt70+jyMyRoMK0TdJFwAupkDEZupxPGNvhYs/fG93bYvSGO32vBWxfOKkwYwfjGRkM+OLs+IsOmN0516pRLWNtXhUPsR2EQidJasKIB2vl4MA9ES/BiZUYDJQyfGLe+JxuIz7lScNLRJTisZq29IBDKQyY3V561Od/r12wt7zXSnXqmEm77fii3NNbAKojbtoFohSA8f/aExeLvXtjehcsYfe0wrSPKLsisxMqNAMUsJxSJTHkYC6SUln7crLQP/qPsEx9pbwpyhZ9DrlHDngd34+Qf3Ij/dpQ3KFqgKQbSChrPYQewnfkuyH3lpmd1uYD5SXM5sPPyTu0LDOkSAuybONBKo56s+y2GOXBQtLku06CckvU4J/7bxDYzJCrROrL4KQ9kMc3aSU5WIMrXtTXhySvf3iJpx2vBTUZY7Gm6pVe8VBiLvL4J4fsRLUbT0ntWdel0At/DwGJS6igM/lD9m67trMAjbIo/vbkHa8aBOgC5xjYIVYnAc0Coo+WXUZE/0rBRAsRZorIIISfYH/wJAmmjD0mkPYkLR6CTeSWrpNS2hV/Lh8spZKHEN172tdflaTIYjdOs7UMe7rBkoHVyScPlPRFzObOyf8xlq25sgiCLSRBvSRBsEiwiLoP1Nf9R95Efdnp/eFzlpmUgTbci02NDoOZzqW00qvWZm/Yqtq7Hx8C4U2JV09qb9FqN9MrGLUaZN8uKc/JJeNVvcaXPglQsfRG5G34SdM9uWic4uCW1SB/Izcnukc4ukV5ij9e4GzH77Puxrb9SsLcjKEcNcXoyMDzWZQ7jp2F4cnfsxXM7shMnO6fn0CnN058FqbGmugWgh8qWwovoFvZMl6HKnvaDEcbIANPtaUTHwLK6AnKjpFS2h8PBIlOaMDrVqKmatG2ufwfQlSfZjrGs4llzxMDLtGQmQmNOb6PF9wqVrK5XsaYBegRjz44wSNAW3MRSx0deCC0f8mCsgJyZ6tDnqlXz4fO+mUPY0A9QhBsPZ4OQ2SgHbJC8uLToDV5ddHq+4nF5Kj1VCj7cV81c8hK+adjLHqUh0uURZT8VgJkWzvx0Vk66MU1pOb6bHKuGx9hY8s2clXGlaE1G33LVmZ5iTMqJp9rXV96ohCU7i6bFKWLTkJyjJLNTlQmEulkJOVwK0SWzJ/ZSSbmzZi/1zPku88JxeRY90zKyvqYLL3kcZEyTW6gOIYBmBMkPNJuwy4iHb/F7cPmIa+jiyEn8DnF5Fj2wJg4t7kspH5kOBPlSN7AeazbKXLaFcKdPGTOEeUU7c9LiWcNmmFXh3/zoUBFbYVSeP6pYyo81UUkFN+oaCrGRPu2jImZgyqjzxN0BQ726A0+ZAzpPj4HIWIS8tEwDQ2OmB23ssqdemKc4sRGOnB5mB3Kz72hrDHuOy94Hb70Nxel/k2Pug1deGHS11KM4sBABUe+pDha3pKE5XQt/auzrh8Xvh9vsAqQMAMNCZB4clLSiDw5KG28ZfhbpjB/DY9PsTfLfHlx41WO/xtuL+VY/p07YzxvZYMyeMZlPQ2zcercaOG97G6IKRCZOdZOeB3Vi75ys8v30ZRIsIf5c/rIc3JCzxPYaMAIbnFBjPh3yutGkfJvcOQMyuCLwoyVkXkuxXIpyg/59Ish8eqQPnF5TiycsWdstcriQ9qiVsbDmMZ/asDK0nYZIbhlz8kvzNgnTUHPC5seaK55KmgPXuBtz/4ZP45mgNXNYMQNZOBVIVwfCFYbB2oNE+U8VSIRWQVEijMgaKqGYssAqizhkGaLcHvzPuQ7SIaO/qxI+Hnd7tFRDooX3CIIwA7eBXQvmCuUJNBullQekLlvYbhcmDxidaUgDAh7vWomjJ2djnOagMrZi8PIxkZa2Bob6IVOUlh2g0aTzUsoFzkZ5leiyVlRhLt4w2JYcmR6ugLaO5H5M+OQSgvVMJkDhR13eMlh6lhHlZ/XD7iGlwd+oTBGlSs1MVxnSBF6LS+fwSxvYfCauYeANifU0Vpi6frcS4AsbOIQOC92eUhiOA6qAilYpe5k02CFZXdoJtYRgExEcE+WIwOyZw7Z4WINGjlDDTnoEbTvsfDHLk6mZu6960xD9bN6nXAKfVjge3vZrwBETra6owc9VvUOIarjePzdJEEPvIFBHB3ZEoAeU1BgLjqIzWD6AUljZtidpkaFXQctIWiZmHImCN7Gtr7FEBEj1KCQFgQtFonOIaBp9f0u9MgAuqJLMQRUvOhrutOf6TBdhYtwU+WVJyoLL6Z2HMM6Pfpi8Xop+o285q1dRzsszGMCZy8KtBGsng+cO0hLIAbPHUY/+cj4wLdUN6nBICQMWkK7Gj/VBog9nMiMD24MIudLQMUQZQHAZjsk7C/asWJUTW2qY63LphCbJtGfoWJlxLFq6VVGNhTWaEaJZ7o5WA5QAyac2Y8tBdAEYZZuA8fR1ZmbPZEwMkeqQSnjb8VKy59OnQKkIGaBwUdKtjEltqE6341l2Lbft3JkRel2gLVlC1P0YrDnMpMsq5oXG6sCo/DdUqaZRBNvCmkkuHM7yomv4da59BcDwps65lDJihp+eOxh8uvrvHBUj0SCUEgNEDijEyoyC0ihCDYL+H5Qo3qrRQWsO97U1YW/1l3HK2d3YgU7QHKzbtOFErtMaRwjLlAsqm9ueC+wmlYbWIpOIGFYTyppLPgo48YsEqo1FMoxZeNWsZuUt9fgl90jJ6nAICPVgJC135mF1ydXAVobCLvtC/GS528ne2LQO3bliCendDXHI+uvY5ZIsOw/6bpkIz+l6aFpxoidQXiSbLNcPcE4gyuv2B84dbHlwDw0EUvA/6GtR+2gpR/2eS7MeO9kM9yiNK0mOVEFBWETq3/wS0Sd6wCXzJcTHW2vQyqZiBijvG0R/3vP9IXDLOGHsRfLIU1iEBQN+aUXKrBBXHzOFBKiyI/ax+WTgoEznY+oKSjfUipJSWdgIJspK5YM2lT/cojyhJj1ZCu9WGswZNxn6f0jdkKqIA3TgZa0A8aB4S6y04RTsq930eV2s4tv9ItHd1GheQDeQg5A6umhvG3KS30+cDtCZpMPg9zBCOpg9r1vqq12MoLSh51HNJsh8l2cMxekCxuRDdmB6thABwS3kFHpx0E3MAH0CoosjayqZrcQIIVLkxjv54eM2zccno8TPW+zPwkLIifZgVGEQ5I2Wgzkc/A+a6EgbeTTKkLShThOY/s18ORTkbfS2oGPezHruuB9ALlBAALh47FdUdR9g7BW2rQpqbho4EorxNtGJD486Er5nA7IdRfcNwkTGAST+YLEc6fajFbVQvKblNJ1s4hwsQ3rSlXnpqGv1z+0/A9IkXmBzY/ekVSjgsdzDeOO8BZcjCpLWgB8dNg7oDLYa6BsOVK+6MySwdljsYr1z4oG44hdk6qF7SMIrFkpMJ3XoR12W9gHSeWjMYskcit/pCFLqUVvCsQZN7RJC2Gb1CCQFg8tCJKMkeHpyQG4RqCTTbyb80RCW1QoTDkoa3tq6KSbZJhWNDwymkTKxKG6mzhJbTaB/rnqltZIA7c90OI2hZWWVZXlRZGRfMs2XhlvIKkwv0DHqNEg7LHYzBmflKOBvlGGBFlmjGzAzc7mSldaVl4NZ1T8UkW6ErH8uvfQ5bDm8LrQfPkImWN+EQ1yRbYo3jhXTyhDMvaVlZ/UsDZ9IWTz3+fPHvohK/u9JrlBAA/jTjYexo+c6wEhvOrmd4UNXtQWRgTNZg3PT6vJhkczmzcfTX29HXmoEDAW8uy7uYVIj+MICgEulSg1D7Y7lG8HgGDR1uvHHeA/jRkJ45JEHTq5QQABafMR/VbQejPi7sTIuAk+ZQ+xHUNtXFJJvLmY2XZzyFp866ExuP7oRbag21jMeDcEoV6wuBVjzGWKeKOiQxeejEGC/W/ehRM+sjQV2889mvXw/mJGU6G+i3tVHlVE0qWekbbmmuwabvt8a8nNew3MEYljsYNUMnYvmWlfiudT+e2/kOBjrzkC06YjpnMgimDyE9q0ZOG9LMpYc9KIX0+SX0d/Tt8cuhkfSoHDOR8uGutbj7o8cAKKkS6LAwTWKoKM0tdYm0NZc+nbBEUF7Jh+e++juqD+xJyPniwSqmQfJ3Yl3j9mDaDWbqC5ZDJoJnufHoTsj37U6w1Cc2vVIJAeC6V29H1eHdcFrtmkoTsQtehaGokuzHFveuHluZlq6txLNbX4VTtIccV7E6i4hje9NS4yS9rk+o8uzPfq/MOSRCrFhRMzpPYARDBFaIGOgsxMtVyxMu94nArLWPKuao+nyMPLks6OcYOIck+1HdcQQXj52aFJlPZHqtErqc2agYeBba/F6tO50cuCaj/k2iZ3QIQLbowEf//Qwer0G4XDfEK/lweeUsjMkK9dd0CZVpM5Q1aK/+VYMiAgPzK6Yt6lV9QZVeq4QA8OhF96LZ367LRxPE4M0eHEM0ahFlxXHxyaFt+Nf2npOKYcXW1dh4eJc2p2uA4GRkcuaJJYJnBWVgfmRGAcb2T04ayROdXq2Eha58zJ9YEZxzqMEsZI1sHY3MUxnIs2Whcvs7cc85PBFwtzWjcvs7yLMFUkuQ9x0w4+n5gsGFd+g+I/W8tnjqsfza53plKwj0ciUElCGLn+ZP1o/HRRIVopYjyxLxp6JFGbLYebA6gRKnhk17v8baI9+GkvKS9x34rmv1WM8G0Chkm+TFZQWT4XJmJ1P8E5per4QAcHPZNWj2t7N3GoRVGSVPomcYFNhdmLp8NnYe6N6e0qlvXIti5wDlR7iII8JRo5mhQh0nC8CO9kP40yW9IzzNCK6EUBJD7Wur1240GrwHZWZRZXSeVllZTOVvG99ItNjHjaVrK1GcPYq90ySuVrMWJMOiaPa1YnHZnB49VzASuBIG2D/nM2xs2RvaYOYFZQUn02WJj8uagReqV2HZphWJE/g4sWzTCszfsES34nEQRlwtmQ3cqBWUZD9c1gyUDi5JitzdCa6EAfo4snD7iGnMWE1mXhTWbyPFFIAimwtf1G3uVkMWXsmHL+o2K2s9hnNUER/dsAVJoIzPL6Esb3SPzRsTDVwJA2TaMzBtzBTYGOtM6Gap054+2vnAMM+cVjue2bMy4Sn0k8lzX/0dy+s+hSPNznZUEc+FbvGMshKowxY7Wr7DHy6enzTZuxNcCQmmjCrH2fmn6lpD5oxyKrZUtyALo0VUU+h3B9xtzbjjsyeRn+7Sr7ZEoZvsS/WN6e0NHW58ddXrvdojSsKVkOLqiZdqU+gD7IS3dHQNHY7FaDGsgojizCF4fu0rCZU5Gdy/ahHGZA3WpNPQeYXJfiCdm4b1MhKUgfls0YFBfQuTJHn3gyshhWEKfVbsqMG0HTpyhKyINsGKbxu/S5i8yWB9TRU2NO5UImOI+9W9jMh9Ea5s1ehrwexxV/Z6jygJV0IGowcUK/loyHA2RsyjUQthlAYeUHKVLq/7FE+sWZIEyeOntqkOp79eEcrFo75UGGOjugTDYWiTlMU9e9ssiXBwJWRQ6MpHxbifmYez0eOGBt5DNSU9Gb5VYHfhri0vnpDhbKu+WYPizELNEt2skDSAcc8mY4aQe97inomCK6EBagp9SfYbhlzRzpngNgJ1Jjm9uGYiUugng1vXPQWXlRgTlPXjgIb9XnJ8kDGuuq+tng9JMOi1k3oj4eWq5bj/s8UosLt03lHdwpmMia26VXcR8rLKgrL2+n6fG26/L1m3EDEu0Qa334eSzEKIFlGzL5r7M9pf3XYQO2a+zfuCDLgShkF4eGRwHXkWZEWjZ+ir2/UHAeSMdLLvqQZIq30yqyBCkv3Bv2Q5wylYEcA6n6Gc4e4H+iEcMp9Mm+TFRUPOxG9/+qseubRZvHBzNAxrrnhRCWczqHzkGBlzGg+FZhHQgCJaBTH4UbEi9Jv8q26XBeI4hLZbBRGihb2dLB88nxA6H2S9GalZ+8LAM6rp8xLPRb2//T43SgvHcwU0gCthGKaMKldS6PvcwUrK9BICWkWlZ1SQbn6WI4c1Dmlko5CD4wwzkXQCRbImvRpqpqafjwjy3OSYIKWobqkVi8rmYMbk6RGeuPfBlTACyBT64RbtDEK3DnRkDYjtLAVkQTk/jMpqlhqjl00ziG0FiNbL6B5UGRgxojonVWBfteeHXpHKPh64EkaALoU+S7ECv1lewSB0CwZCKVkeVlphGK2w5lrqV+IloVvolPZsRhh4wJwbaPbyEIADPjeeL19gIDBHhTtmokB4eAxKc6jFKum3P8PUMxvCMB3kJh040H8Pm57RQDY6TyhTbuIYzXVY56TlhOJYGujIwyv/80ceIxoG3hJGweIz7gyFs9GtCes7DT3mZjT2RisdZeLRpibrOrrzEr91OXLoFpIuT/c/6TKM1l9d3JMrYHi4EkbBzWdV4IZTLlFW/SVMNVKpdAPbtNNE9UAyTFm6v6eWo2doyFSrQ6Lpc1LfNatOGfURyevTE3IJWdR9MiUroAy5nNt/Ai4c9xO2kBwNXAmjwG614eLic+GyZkCSKSdNQDFMWyeyBaOdOowWVKDLUNtZJiRzhV5SNkFbLliW7peSctJDDyZ/IQMeqQNnDZrMhyQihCthlJw2/FSU5Y3WrHOoa1VYzg66bxeJVzSgABqFYvUPWQrcRR1LnVsX8cNA09KzhlQY2yT4uUc0SrgSxsAfLp6vzDkkWxWjPhLZz2KZftR33WC5BexhAvJ4E88qvc5i8CvZyhl4S5kZyFl9VmJbbXsT1lzxIjiRw5UwBoIp9CVvqDVU3fgWhFogov+kWe3WBLXPqAkTY/QNmSv4kn9hUI46JiibRXuMpgWkFZlqydXj3VIrFp52c8JWo+otcCWMkUcvulfXGgb7iNTQgWZfBBiVpc8ZqVKzdxjLpuvrwuBaAWVUW8xBjlxMPems8EJxNHAljJFCVz4eL5mpDFmwhgSMtkWoiMFDjVoz1dFidC2qrPlFDMqpfdJw4WyCEqRdlNEfowt653oS8cAH6+Nk7rL7lAUzA0HRoE1JI+jxP6NWjd7H+g1oWizD60ZwTWZCK7PrB7ZtdFdDvm+HwYU5ZvCWME4qJl2pzMAnXPxMc9KsJQzTbwv7m3a4GF3XZPzS8PgIcEutWHzGndEfyAHQC9esTzSnDT8V+1pqkC2OgU20KkMXBPQ2m2iFT5KY+9Wcpz6/ZLjd6Dd9XXK70V8jGcntADTy6vb5JVR76nvl4p6JgpujCcDd1ox5Kx5EumhLtSjHnQ6/DzeXXcPTVsQBV0IOJ8XwPiGHk2K4EnI4KYYrIR96umQAABtlSURBVIeTYrgScjgphishh5NiuBJyOCmGKyGHk2K4EnI4KYYrIYeTYrgScjgphishh5NiuBJyOCmGKyGHk2K4EnI4KYYrIYeTYrgScjgphishh5NiuBJyOCmGKyGHk2J4trUeQL27AV7Jh7ysfnwlpG6IqRLWNtVh0/dbAQBSl4TLT50GuzU1GcWWbVoR/D6470Ce3StAbVMdbnp7Pj4+uhu3j5iG0wZOwNVll6darJTx2oa3YLVYIXVJKX8OX/5QhX2N+4K/Z0yezixnqIRzl92HOk8D/tuyFwDQ3tWJf+35FDMmXoKx/UdiWO7gBIvMZn1NFT7+4Sss2fYGHJY0AECmNR23n/5LXDX+krheCvXuBqyp+QKNhw/ie/e+8AfEwbj8kzGr/LqEnnPN7rVY/MVLONjhRmnWIHzWUIWXaz/AMa8nomutr6nCf9212Pjd5uA2p92JK8ZedNxfcnOX3Ye+ffrhyLHDwW3FBSPgkNMiWmbNK/nwwueVWLD5r8hLy0R7Vye+PVqL0kETcMnoKckUXYe7rRn3r1qEDY074ZZaAQCNnR64+uRgRN8hOt3RpTx8Ys0S3LXxaZS4Rimp3YlMzZLsh0fqQLXnB6y54sWkr75T21SH4UunYEzWSXCK9uBKQLIFaOhwY8n592NS4VgUuvJjOv+Hu9Zi6rt3oCSzMLGCM/D5Jexw78DWG1djQtHouM930+vz8O+GTcizZcEqiJoM2ydnD8GSKx42NU3JZ6sm8lXlHOkajAfOuz0hcobj5arl+GjPF6g6+K1GDkBZbHSQIxf3nj3HtK5t278Tv/v4GXxztAautNA9B+tr01eQf9+StHsgubxyFt4+sAklmYXK/4XggNeNkuzheOV//qhZRlxcuHDhQvVHbVMdpv1rPspyRikeGypVukWwIF20YWBGPh7d/DdcWPQjDMwpSNoNtfva8caOf6OvLVOz9JcAIMuajn/u/gB7G77H9LHnx3T+k5ZORWn2CFgEi/YDi35bNPsZ5dNEK3JsfVHftD9meUk++PY/OOJ1h/7RxP9q+7EfMMSWi3FFpxge/48Nb6LO3QCn1a6T84j3GP66/W3cefov45bTjHp3A85e9r8QpU7YrGkQqeeaLtrg65Lw3I53MMTa1/B+TnlhOoQuv/KiJrAIFqRbbMhxFKGz04fBfQqQlZ6ZlHvxSj48/unz2FD/NYrs2bAIep9nlpiOlq52nNLvJJzUb0hITrKQ3WqDS7RB7vKbXlDu8qPENRyVm99M0C2wuef9R5BnyzLcn2fLijnr9dK1lSjOHKJbG0Km1nZgEsGSZKzyTqsd/27YhOfXvhLlCaLDYUmD1WLuc7t13SJk2JzajQE5rRDhsKRh6drKJEmocM/7jwRbDLPFc4qdA3D3umeZ+3Ye2A0AoQV5aATAkWbHy1+/jXs+eAweb2u8YjO5d/Ui/OOb90yXq5MtgL/Lj/kfPqbZrlHCoiVno9g5IKKLWgURHxzYiCfWLIle4gip3Pc5RIvBw40Dj7cVn+/dhExrOnud9ggwfNhh8pkX2F34Yu/m5FSGqHKppxnvEgCbYMXOxj3xSsTEK/lw58oH8VXTzpApHWYFK4clDf/7zm90u/66+Z8osrmMDw2sMiVaRFQd/BZnv3hVQp+9ei8raz6DU7SbvkwEGUgTbdjirtFs17aZ1izjteoY21xpGVj67dtJU0RXktZ2+Nf2j/DJoW06mx1AxK1cuMU3zfjk0Da8t+3fkV0oHPQquglc1MBmNVHUGPFKPvz67YVYWfOZ0n8jViIGYLhqlU2wwt6lb92vL7kC+31u7UZywdPAS1WQFUsEAOa8uwD17oZ4bwVeyYeHPlqMD2rXwWXNML8HdZdfb2XqDVfWssvqCRhD+660DDz0dWXSTBehK7IVaSOl3t2Ayu3vmJq5APuakmxuphsdp+wIfc1Pd+Gv25bB3dYc9nxhoRcRTeCzSgY3v3UPPjiwUam0QPil38IwoWg03N7DEETihWryPKyCiG+aqhNimt67ehFWfvcfONLsES07Bxk44HNjzRXPaTaHj5ihllFmMTKzEPM3LNGM5SUM1qKVlFzRsPNgNbY01yh9iDDnECwiBIuomDQWEWmiLbiN/qhlLILynVRYup8pyMDRTg9ynhwX203QcnaTJX083lZUfv+pttWgMbgX2nNKUjH0QnT6fRHLoSpirKapV/LhkU+WYGXNZ0p/NtI1HQVgZEYBRg8o1sqjKxjhYpIkXbIfwxy52Fj/NaZLFyR3QJ9sqWOofFPfuBZl/UtNnU/psOLaMdNxUv9hun0Z6Rlo7TD+x6l9kGfXvYR97Y2wQmQ+QitEDMwajvU1Vb0i8KDe3YC57z2gDAdFsyhqANb6iSqPXnQvznmlQmvehsEqiJBkP+a8uwCPnn93xMNcqgn61u4PQ8MhEbbeB7xu3FV6o+5aCQlbE7qUm3r/hy8grV6Ep6YtSMRpARgs/xzjm3/p2kqMcY0xVUBJ9mOoa0jcA+uTB41Hzp/OQ2nWIHYBQfHuVm5+88RTwgS3rO62ZlQs+xWOdnrY/fA4KXTl47bxV2HB5r9iZGYhumR/REuGk6bpkksfjCjk797Vi/BB7TrFBI3iObk7WzFjxE9w4bif6PYlJoCbcMF/ULsO01+6EV4pcvPA9NRGy0tH2XdYtmkF5m9Yoh1Los4tWERsce/CK9c8E62YOlzObOy/ZRWq2w4alrEKIt7dvy6pHmYzWE4CAAntV7rbmpHz5Li4FdDMHAWAuefMxKKyOdjtqYfF7DoGfcRwpqnGC2o194LSSLIfN4y7DE9NW8BU9LBKKEdp9jmtdvy3ZS8e+mhxwhSRSRQyebyt+KJus+LKNjG1j3qP4fHSOxIiHgD0cWTh+mHno03yGpYpsLlw15YXE+KtixaNMyNJ3L9qEca4xhiP4yWQW8or8JvxFahvPxy+MIH6cjDymqom6H/qNmgicjQw6qMccJpdP/4y3Fl+k+H1wyqhEKGNTeJKy8BL376Hw54j0R0YDtodHyHH2lvwzJ6VQRe1EdUdR3BFybTYZGOQac/AmYMnhVzoBi+OksxCzH3vgdgucgI7ZdbXVGFD407luR8nr+28qXNw+5if44DXrd9p8qzMvKb3rl6E13etDo1pss5F3Z8sAM2+Vlw+6nzMPv0Xpn6SqM1RWQDaJG9Yd31+ugvTXr05fje8keJFUfmKFpdp+2aMYw943XjjvAcSHpg+Y/J0LCqbo7SGrIooKBXgk0Nfx/asklG5E6DYH+5ai/9d/QAkMOoJUZEl2Q93Z2IDF+ZNnYP7J92o7wqEeVakaepua9aYoDonTJhz+bsUE/Tec+eEdVRGrYSDMgbg6fPvw0BHnqkiqjbzdf/8FWqb6qK9DHGiKLdTrK+pwsCs4aatqCwApf1GYfLQibFIGJZbyiuww70DbZIXAhEBRH4vdg7A9JdnRvysOvw+iAbDJYAy9SxVrK+pwtTls2EVRNOACLfUiikDT8OSn/5WabkS2KrPKr8OvxlfYdonZ6HKe90/f4UF7z+mVcAIUIenwpmgmmtGI6Ak+zE4Ix9TRpVj8qDxOO9vv4Ak+0P2PtVSWQURNZ4DuOnt+Vh+7XOayPHjReXmN8MOzDf7WlE+cGBSp2fV/O/nWPXNGty6bpESmUQjdeCSgtOQE+EzemL6AuQ8OhBIp2XuxGWDzsUlE34av9AxsL6mCjNX/QalOcWm5dydrZg2/Gw8eMHdsFtt2PduCwod/cLGLUfDvKlzAAAPfV2JYkcgHDPC4Yt97Y3Yt68xagVs9rXihnGXhTVBNdeL+AoBJH8nAMX79/Ev/44r/jEbLVK7viDhMd3degBvbF4R0bywRPLahrfw7v51KLAbxxYCwNic4QkdVmExLHcw5p4zE3PPmZmQ87mc2cdtek6keCUfln/zfthybZIX04afrXvmiVRAlXlT56BPehbmb1gScVw0AHYLHsY/Qpqg0RDXEIXLmY3ZJVezO8EEBXYXZn35dDDi/Xjg8bZi/b5tyBYdpuU2tuzFny753XGSqpsQYz/z5S//iddqPgzrABuQ7sJvz7stqnObDdaHQ/WahqunYTGbIRGBF9QI49jRCJk+8QKU9huldcMzbPvJfQbh1pUPYNv+ndFdIMZ+wvIdq7G87lPdHDMSd2crFpfNiXlScI8lhmf+2oa38OzWV9lWBzFLorrtIH5+8oVRd03CjROGQ/WaRttHjAR3Z2ReUCPiHqy3W214q+J5jHQNDgUSMxRZkIFj/nZM/EcFPty1NuLzs4LGw+Fua8YdnzyhVAiDl4osAC5rBiYNK4n+Aj2dKF/ET6xZgjlrH1eiSIzOJyiVdVHZHMNoJMFiHM8bT0uoMm/qHCwqm4PqtoMJmxSgDsRH4gU1Ql/FY2x5Xrt6MS4cVq60iOqbj45IkYHSzEGYujzyflEswcn3r1pkOscMUOz38X1H4EdDTrCQseNNnCGBf/rPi3hmxxsodgww/V+5O1tx2/irwvsFkjyeqJqme1rjaxEl2Y90WDFr3IyYTFCShKU8tFttOHtoGV7ftRpOmAzOCkBx5hAsXVuZFEfNlz8QA8QmHektnnp8/Mu/R3TO9TVV+Kp+K6oP7IFV1M+xU51VieTkvJPCOnFuen0exg0crTPtWo65I3cAxTmV6NZ1i1DqGm1qcTT7FAWMSCbyf6YqdYIVc97UOUhPs+PZr1+PyvtJMzS7KCHJuxKad3TKqHLMO3RdWE9Uti0Dz259FTLkhGcgU2c4yIL5/84l2iLqlwgPDsbArOHIFh1x90sixeeX0BFmas51r96Ob9w1+Kpxh25fs78d/Zw5SU3555V8uPmte1DiGmX6oAUZyE/LxnkRJAWTu/yGYYWJfvZzz5mJrQ3fourIruhjWmWgtr0JX96yPCGyJDwD9y3lFXhw0k1hB/KdVjvu2fCXsMHL0druU0aVoyxvNNo7qXhNhqm0vqbK9FzqQH+B3QWn1R4cfDb9IIIyajlWWYho9rfj5rJrTGXrE3iDO0U7nFbtJ5IcM/HglXxY8P5j+KapOmz6kY1Hq/H4T+/D6IKRcV0zEX1CFa/kw90r/oDPjLIrhEMAhjlyMaNydkImZhsrYbi8HybMPWcmZo2bAXdnq16JiHMWOwfgoa8r8XKV8RtFMJLDRLY/XDxfn/KAkmOYIzdsoqoXNryKPFtW5C+CaOJsTWaC7GupiXx6Ex1gH8X/zHAWRRiufu1WvPP9p9oETdT/SZL9kGQ/1lzxXMT3IiQhnxCLm9+6Bx/uWx8yRWOo51ZBREPHEdy28ndxz9A3VsIYpguRzCq/DucXlMJPD8BS9v6IjAH46L+fGc64YGU/C5cRzeXMxvtX/llxRxs8YHUakVk2ADWTm6aimSEQ8kUKde6Nnr3Yf+uGKE6AmP9PhrMoTO5z7rL7dPk9gzIQcmQKdvzlgt9FlZvWbLA+EeaoV/LhuldvR9XBb7UteIzPTxaQkORRSV0QpmLSlUpmKVZrFrhxQQaqDu+OaupTJB7TcfmjlGlEfuNpRNmiA1/UGWc+6/D7tGZQvEmgmIVDf9skL24fMQ19HOZhdjRx5Zgxmq/JoLapDnWeBmTbzJ0ZbZIX43NHJnSycrzmqDod6Rt3DRxp0c0HNELtVvn8Eua8uyBm0zSpSnja8FOx5ornUN1+kB1NH8BptWPld//B1a/dmrBrq9OImv2MkDr1uqIdz+xZiWPt7PCvJ6YvwPDMArRJ3ohbN11umQiRBcWhcubgSVEv6hJXhYpQRo+3Fb/+10Oo8RwwvZ4k+7Gj5Tv84eL5cQiVeG5+4y6s/O4/StB7pDlhIsSRZse3R2piNk2TvjTalFHl+OKal5GTZp75WLSI2O2uw+WVszQtYjwVbMbk6bi06AxjJ5EAlGUPRdFT7GBjlzMbK274P1w79hLsaT2ILKvDMNGT+iGTQVkE5W8kWdr8XX5cWnSG4aIhxxXqmbvbmpH12Cn4vqXeNCRNkv3IScvE0Ts2piRYnwWd4zSW+bHhUOto1cFvcc2rt0atiHpDOwmDpaMLRuLnJ1+IJ7dUGo7LqE37xsO7sGLr6mBlZOaYiYKKSVfi3RXGQdxylx8D+04yTbh01bhpGJqRj6EDhpomeTLig12f4v0fvjCtwLXtTfjLpCujPndSCNSBdLsD7rZmTH95Jkr6TTD1JEqyH0OzCvGnS353QimgJi9oFKjrWJhmhiNQ62+N5wDmvLsAz057IOLncNzWJ5xVfh1m/+f+sP/MPFsWntvyGqZPvAB5aZnwd/njyk1y2vBTsa+tPrRwCkngrVhgd+G2NQ/hpemPMF3pw3IHxzXN6bPvzR0tB7xuLJv22AmV8MkmWrG1fgduXH43jkitYYOyt3jq8dnM15O2PmIsjpl7Vy+KaT5gs68Vp+eOxlmDJkc9+8KRZsc3TdX4/cfP4pEL5kcUynZcV+o9+uvtyEnLNDXPrIKIo50e5D/zY2Ra0xOSnevoHRthDeQD1UD8bvW1Ye2er+K+Fk29uwHfHNptWIkl2c/MRZlq1Dl14UxQQAlJqxj64xNmgVLNjPgoW0AAuGHcZXjlmmdwS3lFMNY0SLhctYGU+x/UrsOkv1wakbPxuCqhy5mNyhl/RE5apqnTwiqIKHYOSFh6PJczG9edcgkaOoynsjitdsz+8pmEJlzyeFvx8JpnsdtdZ/jPa/S1YHbJ1SfkTA7DmfEE7s5WnF9QihcufzSpskTqHVUDCYIKGGH3Sk3bcvmo8zWxoLppUFGYpoDSGoerU8d9zfpCVz6WX/scNh3be9wGZwHg5rMqcG7/Caat8BhHf9zz/iMJu+ax9hb8ufbfobUVSQL5Vc7tP4GZizJaYpkVEPMk2sALRZ0d/+RlC5O+gnOk5ujNb9yF93/4QjFBo3gmzb5WXDv2EtxZfpPuXkyTR5FQL1o1BegTn79g2iImbBZFNLic2agY+mMc9R5L/sUC2K02nDloEjxSh2EZp9WOyn2fJ2aNCABFTxWjLHuoYWXwSB04a9DkhJhxUTuvrOn6l2Ck5wjkUTk9fxyemrYgYQpo9lIO1xKqA/FfNe00nUPKQhYQdjrSvKlzsGDSTNMAENb/WVXEi1663lARj3tLqPLC5Y/i/ILShGfaMmNW+XWobt5lWqYksxDzVjwY97W27d+JgX0nGbc2AlDt+eG4p/wIwnoZRRGet8VTj0fPvzuhIsWKx9uKX7+9EF817YyqBVTzgv5i7PSIpiMFTVNfdEmpnFY7Dna4seD9x5iJvMLPrE9Sy2i32vDkZQsxbfjZpslxE82an/8DB7xuw5hW0SLi6yN7wgZ3m7G+pgo3r7gP+ekGs8yheETXXPFizNdIGDHEnR7wufF4ycyE92NjDVtTzf5opyVFmheUJDhDv/2gcXw1Y5vTasdrNR9i0/dbdft0d6Ybl0viJEu71Yanpi3A9JduVBZPScI6BTSTB41HSfZw/fWIMDrZAly54k7s88WWSGmgLUsZEmFlnQ44AEZmFGDyoPExnT+hGIS8GY3PHvC6sWDSzOPegpuZo0WLy1CaGxjeiXAwnpwRHy1hk0cZXL/A7sLPP7gXNUMnaoa8dEoodBmfJFk8c8lCDP+/y4wXT0kgLmc2bjvjBtz90WOGZQRZSU9foKbNpyea0jMXyN90eWh/y4KS6GjxtBNnUDsIISdLAd2drZg/sSJ1JrQRYpayPB09H5EmcE+yBbg+kJYwVm4pr8CxjhY8s+MNFNhdkQWVyEBxZiFWfbNGM8E57kRPiWBY7mA8XjIzqvGYeHKETBlVjqFZheHDyVg5c8htAqMMpYD0jA9/lx9FGf3jnl/HJN6ug8kzbZO8kc+Oj/XydI4Z4ruRObp0bSWKMwsVBTS6f+IF6ZbiS8pEQiaPMo1HJa7vsmbg1nVPaXZrlVDqYD+EOOYWRsq8qXOwpPyu0AKbYd5o8UbBv1XxPLa4dxl75NQWLZq5jPQUK4aciVr1yfD6ERN9So7jkhTLwDz2SB0YmKU3/eRg8wbj+xdC8xvjTcpEE0we1W6Ss4Z4QSvTx7TPXqOEi8+4U/H80AcHKley+2xXl12O3549F2mizbyVCsjlkTrCpoEw4/HSO5RhkkiVirq+hnBTgmSlNUnkqk9GtHd1hk2Dv/iM+Wj1tYV1zEiyHxtb9uLFix9KblIsb6PharuCRUR1xxHMPvt63b5Z5dehuuOI6f9EFoA00ZaQpEwsVK+p6fAFAAjKyl+Lz9DOMNEo4S9/dBXOLTxV561UXbnuzta4Kn0kXDJ6Cp6+4Dea8Dba9FQXEfnJ4DI8MT32zNlXlExDdccRSPDHNFVJg8nxsgBI8GNHS13CVn3ypwlo9LXolEgWgHP7T8Dlp5pf5+KxU7Gj5Tu0+YnFfQL3IMl+tEleZFkdSBNtWHPp00mPa91642qcVjheN2QlyX7lZeFtNB5P9exmZ3EI/G72tWJO6TWYVX5d0oIK5k2doyhi+0FIMrs+SbIfOfY+uHzixZrt4sKFCxeqP2xWGy4adS421VbhcKcHbp8HHV2dSBdtKLD3xYg+A/HS1X9Myk2QDHIVoKOtDV5fB7Yf+wF90jKCsnTJMuxiGq4eMw2PXngP0tPSY75OjjMbY+wF2HesAQfbjsBmtUMQLKYf0SKGLUN/pC4JaaINfyz/Nc4cUZaQZzTt5J+gny0LK2o+g0NMg2CxwC/7UdPWiJmjL8Vpw8yVJseZjQuLzsSAzH7we33YfuwH+GU/jkptGJU5EBeNPBcT+o3EC1c+iuG5QxIisxn5ffIwdUQ5/J52fHhgc1CW8waVonzwZLw54y+G/+uF596HoVmF+OeuD5AlBsoEGo2hGfkY7RqG305NvgVyxkml6Ou3Iz8rD5sPfYuOrk7YrTYIstIXPbX/KXhkyjwUU8uwC7Is6xpQNTnv0ZajAIB0pxMn5QxOjjPBBK/kw4qtq+HqkwP3sZAsDtGOwj4DEiLPzgO74XL0web6b+CIMtIiUtr9XuRm9EW2LTOhz9DjbcW/tn+Eyu3v4L3Gbbjr5MtQWjg+6jmJXsmHt6pWBpNDTaZc6Meb1za8FZTlzBFlEY1H1rsbsPNgNaa+ewdcog0jMwsxb9L1KbkXj7cVn3z3JRyiHVPfVZR/cdkc/KLsSqZHnKmEnO5FvbsBXsmHvKx+J8xMhlShRqTYrbYTIihelcfsRcCVkMNJMSmLHeVwOApcCTmcFMOVkMNJMVwJOZwUw5WQw0kxXAk5nBTDlZDDSTFcCTmcFMOVkMNJMVwJOZwUw5WQw0kxXAk5nBTDlZDDSTFcCTmcFMOVkMNJMVwJOZwUw5WQw0kxXAk5nBTDlZDDSTFcCTmcFMOVkMNJMVwJOZwUw5WQw0kx/x9kXb357wMQ2gAAAABJRU5ErkJggg==;" vertex="1" parent="QUJFFLUGVoSj-1alCTjn-61">
          <mxGeometry x="140" y="9" width="70" height="70" as="geometry" />
        </mxCell>
        <mxCell id="QUJFFLUGVoSj-1alCTjn-8" value="" style="group" vertex="1" connectable="0" parent="QUJFFLUGVoSj-1alCTjn-61">
          <mxGeometry x="180" y="79" width="190" height="50" as="geometry" />
        </mxCell>
        <mxCell id="QUJFFLUGVoSj-1alCTjn-9" value="" style="rounded=1;whiteSpace=wrap;html=1;fillColor=#fff2cc;strokeColor=#d6b656;" vertex="1" parent="QUJFFLUGVoSj-1alCTjn-8">
          <mxGeometry width="190" height="50" as="geometry" />
        </mxCell>
        <mxCell id="QUJFFLUGVoSj-1alCTjn-10" value="&lt;b&gt;Endpoint HTTP&lt;/b&gt;" style="text;html=1;strokeColor=none;fillColor=none;align=center;verticalAlign=middle;whiteSpace=wrap;rounded=0;" vertex="1" parent="QUJFFLUGVoSj-1alCTjn-8">
          <mxGeometry x="23.75" width="133" height="25" as="geometry" />
        </mxCell>
        <mxCell id="QUJFFLUGVoSj-1alCTjn-11" value="Http://192.1681.147:9113/metrics" style="text;html=1;strokeColor=none;fillColor=none;align=center;verticalAlign=middle;whiteSpace=wrap;rounded=0;fontStyle=2" vertex="1" parent="QUJFFLUGVoSj-1alCTjn-8">
          <mxGeometry x="9.5" y="25" width="161.5" height="25" as="geometry" />
        </mxCell>
        <mxCell id="QUJFFLUGVoSj-1alCTjn-14" value="" style="group" vertex="1" connectable="0" parent="QUJFFLUGVoSj-1alCTjn-61">
          <mxGeometry x="10" y="79" width="170" height="61" as="geometry" />
        </mxCell>
        <mxCell id="QUJFFLUGVoSj-1alCTjn-15" value="" style="rounded=1;whiteSpace=wrap;html=1;fillColor=#dae8fc;strokeColor=#6c8ebf;" vertex="1" parent="QUJFFLUGVoSj-1alCTjn-14">
          <mxGeometry width="170" height="52.285714285714285" as="geometry" />
        </mxCell>
        <mxCell id="QUJFFLUGVoSj-1alCTjn-16" value="&lt;b&gt;Exporter&lt;/b&gt;" style="text;html=1;strokeColor=none;fillColor=none;align=center;verticalAlign=middle;whiteSpace=wrap;rounded=0;" vertex="1" parent="QUJFFLUGVoSj-1alCTjn-14">
          <mxGeometry x="60" width="60" height="26.142857142857142" as="geometry" />
        </mxCell>
        <mxCell id="QUJFFLUGVoSj-1alCTjn-17" value="&lt;i&gt;NGINX Prometheus Exporter&lt;/i&gt;" style="text;whiteSpace=wrap;html=1;" vertex="1" parent="QUJFFLUGVoSj-1alCTjn-14">
          <mxGeometry y="26.142857142857142" width="170" height="34.857142857142854" as="geometry" />
        </mxCell>
        <mxCell id="QUJFFLUGVoSj-1alCTjn-6" style="edgeStyle=orthogonalEdgeStyle;curved=1;rounded=0;orthogonalLoop=1;jettySize=auto;html=1;exitX=0;exitY=0.5;exitDx=0;exitDy=0;entryX=0.25;entryY=0;entryDx=0;entryDy=0;" edge="1" parent="QUJFFLUGVoSj-1alCTjn-61" source="QUJFFLUGVoSj-1alCTjn-7" target="QUJFFLUGVoSj-1alCTjn-16">
          <mxGeometry relative="1" as="geometry" />
        </mxCell>
        <mxCell id="QUJFFLUGVoSj-1alCTjn-62" value="" style="group" vertex="1" connectable="0" parent="1">
          <mxGeometry x="90" y="360" width="380" height="140" as="geometry" />
        </mxCell>
        <mxCell id="QUJFFLUGVoSj-1alCTjn-45" value="" style="rounded=1;whiteSpace=wrap;html=1;fillColor=#d5e8d4;strokeColor=#82b366;" vertex="1" parent="QUJFFLUGVoSj-1alCTjn-62">
          <mxGeometry width="380" height="140" as="geometry" />
        </mxCell>
        <mxCell id="QUJFFLUGVoSj-1alCTjn-48" value="" style="group" vertex="1" connectable="0" parent="QUJFFLUGVoSj-1alCTjn-62">
          <mxGeometry x="180" y="80" width="190" height="50" as="geometry" />
        </mxCell>
        <mxCell id="QUJFFLUGVoSj-1alCTjn-49" value="" style="rounded=1;whiteSpace=wrap;html=1;fillColor=#fff2cc;strokeColor=#d6b656;" vertex="1" parent="QUJFFLUGVoSj-1alCTjn-48">
          <mxGeometry width="190" height="50" as="geometry" />
        </mxCell>
        <mxCell id="QUJFFLUGVoSj-1alCTjn-50" value="&lt;b&gt;Endpoint HTTP&lt;/b&gt;" style="text;html=1;strokeColor=none;fillColor=none;align=center;verticalAlign=middle;whiteSpace=wrap;rounded=0;" vertex="1" parent="QUJFFLUGVoSj-1alCTjn-48">
          <mxGeometry x="23.75" width="133" height="25" as="geometry" />
        </mxCell>
        <mxCell id="QUJFFLUGVoSj-1alCTjn-51" value="Http://192.1681.147:9104/metrics" style="text;html=1;strokeColor=none;fillColor=none;align=center;verticalAlign=middle;whiteSpace=wrap;rounded=0;fontStyle=2" vertex="1" parent="QUJFFLUGVoSj-1alCTjn-48">
          <mxGeometry x="9.5" y="25" width="161.5" height="25" as="geometry" />
        </mxCell>
        <mxCell id="QUJFFLUGVoSj-1alCTjn-52" value="" style="group" vertex="1" connectable="0" parent="QUJFFLUGVoSj-1alCTjn-62">
          <mxGeometry x="10" y="80" width="170" height="59.48" as="geometry" />
        </mxCell>
        <mxCell id="QUJFFLUGVoSj-1alCTjn-53" value="" style="rounded=1;whiteSpace=wrap;html=1;fillColor=#dae8fc;strokeColor=#6c8ebf;" vertex="1" parent="QUJFFLUGVoSj-1alCTjn-52">
          <mxGeometry width="170" height="50.98285714285714" as="geometry" />
        </mxCell>
        <mxCell id="QUJFFLUGVoSj-1alCTjn-54" value="&lt;b&gt;Exporter&lt;/b&gt;" style="text;html=1;strokeColor=none;fillColor=none;align=center;verticalAlign=middle;whiteSpace=wrap;rounded=0;" vertex="1" parent="QUJFFLUGVoSj-1alCTjn-52">
          <mxGeometry x="60" width="60" height="25.49142857142857" as="geometry" />
        </mxCell>
        <mxCell id="QUJFFLUGVoSj-1alCTjn-55" value="&lt;i&gt;SQL Prometheus Exporter&lt;/i&gt;" style="text;whiteSpace=wrap;html=1;" vertex="1" parent="QUJFFLUGVoSj-1alCTjn-52">
          <mxGeometry y="25.49142857142857" width="170" height="33.988571428571426" as="geometry" />
        </mxCell>
        <mxCell id="QUJFFLUGVoSj-1alCTjn-59" style="edgeStyle=orthogonalEdgeStyle;rounded=0;orthogonalLoop=1;jettySize=auto;html=1;exitX=0;exitY=0.5;exitDx=0;exitDy=0;entryX=0.25;entryY=0;entryDx=0;entryDy=0;startArrow=none;startFill=0;curved=1;" edge="1" parent="QUJFFLUGVoSj-1alCTjn-62" source="QUJFFLUGVoSj-1alCTjn-57" target="QUJFFLUGVoSj-1alCTjn-54">
          <mxGeometry relative="1" as="geometry" />
        </mxCell>
        <mxCell id="QUJFFLUGVoSj-1alCTjn-57" value="" style="shape=image;verticalLabelPosition=bottom;labelBackgroundColor=default;verticalAlign=top;aspect=fixed;imageAspect=0;image=data:image/png,iVBORw0KGgoAAAANSUhEUgAAATYAAACjCAMAAAA3vsLfAAAAgVBMVEX///8ymdszmdsxm9wck9n4/P0olto9n93M4/TQ5fUnldnr9fv///7x+Pw1mdoul9mGvefi8PnX6vekzu2LwOecyeyx1e/U6PbB3vJUqeBireGt1O+62vH1+v1aq+FJo956uuZuteWSxup+ueVtt+UAjdaYxul3teSJvuaMxeqezu3eX0K+AAATaklEQVR4nO1diYKiOBDtAAaMmnCpgChgz9rH/3/gJgFycHiC3cP4dqcPG1GeVUml6qV4e3vhhRdeeOGFF1544YUXXnjhN2Em8NPv5Ndj70fppohj2zYJskpASGw7i4tdmjqLn36DvwwzLwrei4NpWQhBaGBgAMMwAPuC6S+EEMhoNOOkCDfey/4oFtEpJpQvSAg2OE8GJ42Rx7jDmD/MHjAI5PRl4Wb+L3O3dz4pZYiAkiFgaACgtDn5OPuR/iOQWl5y8n/67f8IVps/bOTi9gWApA2cpY2DHoMhQmbo/GNGt0oT04IYcA8EKm3gCtqwwV2Xzht2Pv/pS3ketjmhZgZqRsrv4HragPgTIVYSrH76ep6BpZMACLhnNmkDgqxraCu/UW81Q++nL2p0RAUiBhYU1GRUv/OAg0YckH4B1CCZVbL/+ADYRRs7nh41ceJ8aml8BmhePgcNzxCi4W2FLKP/yh8Ji+gI0HgTvNNPgVrchGeHkw0Bi8gkqLVgaJThLLI/TkHqNddTy7fZartbn/KMHUNjX8CNVdorO4sB4+hnrml0eAnCADRMBhIETbv4nvve/tIJ9t48KDIbQO7nipezLwR+TdLgUgL0UZ16JbLMw9G5bSpcehs3Fj5bDXmMO5JPcE79ZmGajFgxMzT7eO/63A8ObL7AYk7hs8mfya32vyFWTI2ORZaZP7Y8WkVFZhF1fp0ebzvKmhzY6BSQpAN41CqwIZETLDXhP5PyU5+ICZSFC/bHdjnMiWfRwRS8UYcl+YTmhVlCal/CmJj5oK60LUREx3hbD3nun0WA6oCBTgSZM/DZZ4EJK1um3+BkFgz7DIrpznJH8CLvQMQiDebDn/9nkCIx+ljrgQY1HbNCvAQxpzIrJLByIQMFo7BGIXjD1makl3gyZjbBZVhFwrFYe5vF9bwwFS/1rTptlo3oP07tpTAb70WeiblVrRvh+5gvY1fmhs0xX+V5cKwy+jCIO+KrLOuw1wAjvsoT4ViVGZB4xFfZipjXnMZCYW5VCWwAdqO9yPIwPdrE2oeMlYJdhnJlOjnasAFH4u0LibzU5GhjeTYyhp/uc6RkQKdI2xipxHkMlSLFBGljOiJongaNer0CaJljA0yDNkfSVl4XBOvBiPNyC+r1sKlYW5M2anPIPA6hs5o5BUAAG/8GbWzBQNAheDCh6B9tBAEwmueezOKqRRtnDuHD8V6d1WwbZhaCuMkZCw4nRxvWLs/ABKH4GPk3OtVqnoY2UxSCtgRngtbWkFqV3sU04SD5DLYXpQwMK2ftJrZlwdbpsPhIpkcbsXTVEIPJ6vMQEWzGH4Ez9xf7N936lkx6v507OzczCZOSk7ZnUpe3hChkIrTVcZsB352E8qNfNS41ahhXMnq2GSHOXdf9DMPPT9c9EESqhwlXkWCsBxxM+QZJ7lX5NmMqM2lNG4bu21tgWw3ZkZCAS6cjUIJooqymo/NnEhRHS5GmHI+2ledvt77vPUcxIawNsTTlPjCR5mZGQ1HZokVlqs0atdE4ZS9zC22rebQLJKqfzz3PS/Os3pqDsnzt9I7Fjjzh+qoBuwdicQXL7O5qczAtJpJvUNFPm6H8rP4F0yHNLqpy9dW0+d8Zc3vUBOldumyPtklY7b/0Cy5jhHlPMueTnrk6+X+P2GWTNvbOQ1OIxfvoUgxMoU39C0So2IhrvY62ZXSg0woLhYSQut4L0VdgjWK+5UQqstnP2IAwjrpeKYT1ibE1CG1IqSUs/SA2LSYXwsA4y1yHtJ7Fa9Cy4rW6zriKNo/OSdUZWjA7XcqP6SxWCdvVwYQ+REg5POgQtBkj0MavISggHf2B0RHs99LGomSIIHHTxtpM0HYmA7K1Ea5moCZpoNvavkwi5ezKXoDyQYLaCk5Jm/EQbY42JehY0qHWroKLM7zVhBAWHdtJizKGK6zNs+t9Wx3G1kXbIkHKboDWu6L/4KGZk3AHclKnPbY1rsYJioxFHaiMOWqqqi+YByT0b4CYyTHqm8PsywW/A1RN+LKTUgfFfZ5Q+SEmZkM84Q7kpMLa+mgrsfei0+f7e1HQMU+Hffj4eA9Tf3V2ipTW1ndEBPUI8JK1+THsZEz6APtCGnl+aW3DOGmvtTWx93x/Pnfm8zkLLr3F/irlyGXaEqhetGHUU2g5W7do8+OuZVyDNvYT0SYGd+Cx7Wra7sNF2lZEu2g6LtGBkv3PwizYmhK8mCjrGa5JJ+xQi+3mVCcJOqWq+a+p0eYpu0kwoENlHmw2aZpuNrtdkGdAp21/0CYpg8W4xZodHmYI6tMEUTVBnDbwt9HWv5RfSHUiwOZ3a9O9/nuhj2t0NooEN34IoBYUkVA+8RPW7j9S3DYsbqLNvJSQ3yGVFmw14oxFDrVEDJKC5BDWi4mBaPtha9vL8AOG3YcILGx1OiDguzUr7RR7ox4cixetaAND0WbAMRVH3mXpTFYfgtElbUCOFGMiZsca6i1Cck2IDSuoHw9hvQYbhjYato4oq83rGaGftrw2t4uSMV+bdEF3riNSC7TEroPlENbPG4g2g2SjbRrYmZdpqxXrbFkb9BxTIldjD9D3Ye8UcjGqLTIUY8FAtI3I28a8QjqzEFvFDQDPuelCDmx0FfDde5xLRDHOgEn1YCg2YQwUgLCTD74HhiMwlcpVfwbkQwzjNG7rZ+MtUGRfJOlf0q0yeWXYrDj6FC8yGG3U4Mzj4Kl+rzANLHPF/RkQx1LWpPDYe8JE2W9pnauAb5D4HAxU+bKrbPkZiDbmJTAe1uBmAdubdF15Wa5K2YhR9FzVwpKng8XZFxeTM/0Y8vIhV8Y5Q9KGacA9XK+Y1SZrpOrO0ebLFAhLa9vdH2CK5IcAz0t8lH1RdcLKHd5JARc0YILsYXrF+CErSTSFWmee8GUpwRaNGjq3gOViyUlHtvPZl30mPzNSkjQObdVLWHYRPVIOeysrYAi0SjhnadsraQ22ckRFx8cn9wsaFzdwfcmlKyx9aETamK9CSNzobpvzNkUta2goS86LGeZKbMGTjIdWSLS361PS4P9SwBTJi0NlLDimtRm8eASpzZ22N8+sK+c9s1g9yWj2FSmt7ewJ11Y96ZYmRQ7NAc6TugHj4v6trTy4WugOFYDMO2irCyuE0MvPit38OrNbevP0mLH+KS39kmJt5z+HXGx1rs/QiHx98X6Ny7sFPRniVZmKUAaHA9FGkL7W498wL3KT2A3Xm6iv8+TeT4NTyPr1oKrlTIM1gsRpL9C2zOtgq3ZF+NXzfjG6uPN+JWekaife0LQZsFjbSLZoEPVGg0dRvPEkawyVxUXuHk+flMcg/CiSOLNNJtFiGi2gFFEkZ5jAbGNeSRtPbxj6KbTGUoqMEZ1fulLsR6eNWfHiC0A9bapXj3j3MV7fY+14EK8AEgbRy0220pKWBrNgdot0JkRNB3eVWd1pjfLnaasPHok2jD7pb15oI6LoUWu+QB3p8waKuKpC8h/5GK4Ww+u3xQ4B0Mp2bGS8RXH0beqiJ0AUe5NLsCtoW8GxrQ1XY+biaEOZGhW0aRaoG6FiXQ1dA3XPw6a84ptkgZHdLObJ8c1XrO3Mer/EAvVb29Bihtm8gJbIj7VYaxZ/ayqVb9UbtcxQLH4kbVe9KbsxVsj80EIkoQz4eek8HpLWVh7sDmRtnZWrxS5h/WNFM+JraeM/8vIbtGCeKkPS5fKyfr2xupRlojWxUJbJc3i44uJq2lAZt41K2xvrVuyygIK0dVpdtKl/phOGXQS+vly8kba3/ZepnVlWOoRUBAN0abPOUTppVaAYfJXQrlwtvWidWITPltfQVk6yMA86GhXfShudGID2oiJIW4ueIvhcMpMjlqN0lSx5Am0cMy9yPw522YgdAKPu+lz1FjdKzRFisgM7+XA3PcvE28Y2jo0mVxCSIyXeBfb5K98qshJYfpSCNvyMqvzKidLN58GEBJZ2VZkX4f8yd7dJz++Xud3aWPFJ2hu9ymqVNVOzQefXCblyZFVMcIeuJVxVXp7tV4vFwqtBf16t9tes9u8S2DtEBCJ0mqkzua4syRNbjm5BFpfI6tnDM2trM0BdKVVpe6Tg9Fuq8p2YK83fQOVmrJeEmA1hLLIMa0RK1PWFZaGQXusjZNwGUFdZ+up39ptpe4uAgoqhpVS2GRgmNW9iqqhpS5WxkdSxikJb7bd34bcojnoQiuWRAeqxKBJZNDojoaSaKpq0eUrBTDbyClUx0gObjeetVcIouJc2X+YtBW2yGQubzVFcPt6gbZEo8Quxa5tUaSOH+0smzTXpSLiXNk8ErIYpZj5HZAZZF/iqKK7T5iVq+GKJXGeoaAYxub+cLqztIVe/BK+O+W/tzCDrVEDZPnSUjNC4EcZsvJe0bd8Wgals0seqUEvJSrFFYJx6PBrY31hxEq2hDHMUJUOJ02WhludsvYX2x9k8OCgVeCj/OEu0pb7FREeCNpIcyjv+CHoUWWBgKWMbb3ZOyqzhjW0MxZRgwAdc/QLmtqSt75j1f3SpYR+K4qNEkdhI3W0I/ygHe7a68uK0nUTivVQ9y2ciRWbYqDjxhQ63y7tpowHlSLxtZT6jn7YA0ZGKB17VVlW9nt/QsTmKHKekLVRL8NLYmCxCccC93ZEHY1/QnbSxLGoxyn2WdrLV81na+spd/Hkk1lMqqXLSFm2KtRkEaKuBP7CddWVf76aN2Vtzr80AWLmQqK2h+o5bo17WmFLQ3jaOT2XqnNPmNvceAT7RkkabsAh212/vp41/NMmwBjdLMz1VftbaemjDGNptoWAEat4a1iZz0tRDW2rLjHS9xEO0sddBD7b815AmzT3k52jrYY1+mnZXtWVrI4W2tSK6r32U2tquqa5xYBdvj9HGbzBhJukg4sBVymRahlaZ6Q9A1MvWr4iy1i1KZf7PXA510cZSgsTs0EM3CmMVrNsW9i0xg8H2a9vrR01uFoWAkOYwcmaV0E8bsnu7GEYZG+Fb1lYmUiEsOnNDR7Ntb5fVSzq6NCDsrglW/EBbrb2TZ6wFWXtuvJU2GsiD45l84myXQdJ2UsAEFFlfHVXPt5d41NpA5VYEEfsrup26/ZbfCYY3TmnXZ87QZpEmILRAHFxIwq422X/sknUnZbdl6X+iE7Od6RoGsLbqpQ3A4vaPU199oIX9dhfGrNxVFuo761q9tAWm3UB2CLv2j7fhaGtS3hTiAttLP8gPSYkDx4134pKdULliVGurxeQK7KaZyMzy3dxvLBklZp7vR9+JbbL7CpdCB7kRliUpCLpM26OQtJE/x9HvRiYSRyQ5Ut/SzKMSf/BSHr+zmnkIw+NpXXduWa/Xp+Mxj8s/EtJ+Mj8BIdlaVPlH600pl/L2SK+gwlHybX5uw57giRHABVuk1Q8GkmYnxeop5bPotBzs76pc3QZZPzVHu4GBhK4B8V0TAgO3lx/VggWzVbLobgLKcmk3a+WTCMzWtyqO7oNibU+kra4leKHZ3DUtaWuQaJQ21S85JZVM67466W2QtD2jRVy7ocVqU7CBqou3Dtqq3ztIo0FILvoMTZ82Cu94MC0INLH3tbTx6RdDCyaqQP8OMcONWNd526fS1iz4LXY5sqCy7D1Hm5bkgOwW6V+RHjc9wdqIWeGZM2lH15mZHxQ208Sw6bUWnsomRBqbuPJLJqDJ03aoOdUmiz3l5Zmfbr4LyBVYXNvM234J2riClyWwWRYbwszd9TQ5+sdoKzFbOEHOiiLQaoPaV1IUx8g71+Xon6StxszbOlHEWsGUSNPImfdt8tAwftz2XFzZUetRTI225yqOJkRbNSdelqs/AkEbngZtW6uMaY0L+84fw0rQ9oyg6gnwatoMe5TacgnRy2TUlkBPxDKraAMkfnCfdz98s15CoP5GFX8XZDUbJiPx5slSkTV63vVJmMsmI+gwSh/zuShMYjiRoe1N7bw3TrceqZzBxsUeY38PHCW3huHXwI7qJMo9YWRDsAngS90/SuzNgCo3zy07q1esdWkL/lqsMkXSaRBCwoEakjkFgkoqrlsA8/fCVySdbCM3An/mDwfzqyiGWlcoYl/cbfyXYavssualYV4HeMBZvd2BEKKKQY3pscbsrdmgm0DLLNa33uWKYR8dDxA1C67EbPcr/fuxSADR7xqE2d1vkOlu/BtGOm8bFIT3UNFuE4kpa9MJPTQETL6h1ZX5rRqYUCErTsH8fCS89zfrMI+RVaon9copHqt942+AXyC9OFp3DzCYhAcC286KwHFY43qf9a6n8KMg/HwvWOeZsqWKWtuSJ4Lwa7QtDz+P5Y5FIo37XfA7fvEtD0wFhlqFBOqRrATDj1K8XJyESc2Kpsp7YtgzbWJvM6xau6CZo9JrQH2imEBhu5fYBDHbxbBTSl1ve+iis25D0/obIfDjHyCNww9Ni4VcnbT1WmGDNjq5YGjZj94c9q/CalNw2dpVMCrdZOPeDhCaYUc/kIljEeUZ4J2Out2vZYdC71ZGyvHunkh5EvCCBFnsXkzX0MZU+fx2nMgy881zbtv4e7FyvhN2jyZ07hZhoFb32slHelWR/p/A3kmDPDN5Rx6lRyDf+Im43BmacbhL/1m/PIfZfrVNg9MxfM8/Co6P9/fjKdhE3v6qzjMvvPDCCy+88MILL7zwwgsvvPDCDfgfCz4P5PgNGtkAAAAASUVORK5CYII=;" vertex="1" parent="QUJFFLUGVoSj-1alCTjn-62">
          <mxGeometry x="130" y="25.480000000000018" width="103.69" height="54.52" as="geometry" />
        </mxCell>
        <mxCell id="QUJFFLUGVoSj-1alCTjn-63" style="edgeStyle=orthogonalEdgeStyle;curved=1;rounded=0;orthogonalLoop=1;jettySize=auto;html=1;exitX=1;exitY=0.5;exitDx=0;exitDy=0;entryX=0;entryY=0.5;entryDx=0;entryDy=0;startArrow=classic;startFill=1;" edge="1" parent="1" source="QUJFFLUGVoSj-1alCTjn-2" target="QUJFFLUGVoSj-1alCTjn-5">
          <mxGeometry relative="1" as="geometry" />
        </mxCell>
        <mxCell id="QUJFFLUGVoSj-1alCTjn-64" style="edgeStyle=orthogonalEdgeStyle;curved=1;rounded=0;orthogonalLoop=1;jettySize=auto;html=1;exitX=1;exitY=0.5;exitDx=0;exitDy=0;entryX=0;entryY=0.75;entryDx=0;entryDy=0;startArrow=classic;startFill=1;" edge="1" parent="1" source="QUJFFLUGVoSj-1alCTjn-45" target="QUJFFLUGVoSj-1alCTjn-5">
          <mxGeometry relative="1" as="geometry" />
        </mxCell>
      </root>
    </mxGraphModel>
  </diagram>
</mxfile>
